<?xml version="1.0" encoding="UTF-8"?>
<svg id="Camada_1" data-name="Camada 1" xmlns="http://www.w3.org/2000/svg" viewBox="0 0 1808 772">
  <defs>
    <style>
      .cls-1 {
        fill: #0495d9;
      }

      .cls-2 {
        fill: #0395d9;
      }

      .cls-3 {
        fill: #04a551;
      }
    </style>
  </defs>
  <path class="cls-2" d="M704.61,625.01c-48.13,16.53-96.32,27.64-146.48,33.99-40.18,5.09-79.59,7.56-120.08,7.01-47.32-.65-108.8-9.92-151.01-31.25-38.58-19.5-74.45-56.38-85.02-99.82-49.38-20.34-99.27-49.07-114.84-103.89-15.6-54.93,29.4-107.18,73.94-132.93,36.75-21.24,76.35-36.08,118.26-43.52,32.29-5.73,63.86-6.91,96.54-7.44,39.57-26.48,81.14-48.56,124.4-67.78,74.41-33.07,152.53-54.31,232.36-68.77,10.11-1.83,17.86-10.76,29.01-2.24,7.09,5.42,13.1,14.46,10.79,25.62-1.69,8.19-7.63,15.16-14.5,17.75-9.39,3.54-17.93.82-24.9-5.63-104.43,13.15-207.82,49.21-298.8,102.59l52.9,5.78c22.07-13.53,60.64-19.04,86.87-21.53,27.97-2.66,54.76-4.62,82.94-4.35,50.78.49,100.57,10.32,147.19,30.34,49.91,21.43,93.05,57.15,112.95,108.53,9.45,24.4,11.14,49.16,5.95,74.71-7.55,37.21-27.26,69.25-55.97,93.88-17.01,14.59-36.69,23.07-55.52,34.94l-37.79,23.82c-21.39,13.48-44.59,21.74-69.2,30.19ZM854.77,502.43c28.5-31.48,46.27-68.33,36.64-110.83-9.52-40.66-44.85-73.05-79.79-93.16-62.15-35.77-140.22-43.92-210.6-38l-50.61,4.26c27.56,5.79,53.02,10.87,79.33,18.73,47.07,14.07,91.51,34.27,132.51,61.26,52.69,34.68,102.11,88.99,92.52,157.74ZM793.06,544.85c30.11-24.29,43.04-59.87,25.45-95.2-30.6-61.44-103.4-105.14-166.52-126.71-30.61-10.46-61.01-17.91-92.78-24.22-34.1-6.57-67.45-10.82-102.15-13.81-25.15-2.17-48.79-3.61-74.19-3.14-45.36,32.23-84.6,67.62-115.63,114.36-14.89,23.25-27.08,47.27-34.06,74.03-3.67,14.09-3.5,28.14-1.98,42.35,24.27,8.76,47.37,16.05,72.21,21.15l88,18.07c116.53,23.93,226.9,30.29,344.39,9.28,19.95-3.57,38.28-8.69,57.25-16.18ZM154.41,471.16c13.85,10.02,27.4,18.44,43.07,26.62,1.55-54.56,26.56-98.05,58.48-139.94,21.02-26.99,44.44-50.69,70.21-73.54-50.14,1.48-94.08,13.56-137.7,36.06-14.44,7.97-27.62,16.28-39.87,27.16-27.29,24.24-43.57,60.69-21.7,94.49,7.24,11.43,16.63,20.29,27.51,29.14ZM656.55,605.62l-62.62,1.4c-35.51-.88-69.87-3.45-105.23-7.54-64.91-7.93-129.04-17.52-191.94-34.95l-55.02-15.24c17.47,37.33,53.95,58.8,92.21,69.82,92.92,26.76,229.3,11.98,322.6-13.49Z"/>
  <path class="cls-2" d="M1238.39,533.04l-61.84-.21-10.62,27.49-36.51-.11,55.82-138.39,40.01-.04,61.39,138.1-36.98.51-11.27-27.35ZM1228.03,508.69l-22.26-53.54-20.28,53.62,42.54-.08Z"/>
  <polygon class="cls-2" points="1558.3 501.61 1495.3 501.68 1495.34 534.78 1562.92 534.83 1562.9 560.31 1460.69 560.3 1460.69 421.76 1561.28 421.77 1561.32 447.23 1495.34 447.28 1495.31 476.33 1558.23 476.38 1558.3 501.61"/>
  <path class="cls-1" d="M1014.73,526.73c14.18,7.3,29.86,7.87,45.05,4.16,11.3-2.76,20.77-7.77,32.28-12.85l.12,30.02c-26.79,14.82-58.14,18.11-87.04,8.85-27.05-8.67-45.37-31.95-47.81-58.89-2.62-28.95,12.53-54.97,38.5-68.22,27.18-13.86,67.56-13.44,94.53,2.07v30.84c-22.76-12.66-49.95-19.39-73.38-8.7-14.37,6.55-23.67,19.62-24.34,34.61-.7,15.9,7.22,30.45,22.08,38.1Z"/>
  <path class="cls-1" d="M1698.66,556.73c-23.34,9.94-56.44,5.83-78.54-8.12v-29.6c10.16,6.26,19.43,12.27,30.47,15.38s34.47,5.4,36.92-8.59c4.29-24.5-69.25-15.2-70.32-64.77-.28-12.74,5.22-23.93,15.77-31.1,23.13-15.73,59.69-10.69,83.98.96l-.16,26.74c-18.01-7.57-39.18-16.36-56.65-9.95-3.71,1.36-6.85,4.72-7.32,7.98s1.78,7.62,5.04,9.65c14.35,8.92,29.15,10.07,46.72,21.23,13.35,8.48,20.02,22.03,18.6,37.75-1.27,14.09-10.42,26.45-24.49,32.44Z"/>
  <path class="cls-2" d="M1386.79,504.29l-33.42.38-.1,55.62-34.58-.03v-138.51s65.28.19,65.28.19c10.02.03,19.75,3.74,27.33,9.74,13.71,10.86,18.33,28.5,12.66,45.32-5.04,14.94-19.45,27.09-37.17,27.29ZM1390.95,462.49c-.62-19.05-24.79-14.57-37.63-15.14l.05,32c13.33-.49,38.27,4.23,37.58-16.86Z"/>
  <circle class="cls-3" cx="502.98" cy="433.53" r="70.17"/>
</svg>