<?xml version="1.0" encoding="UTF-8"?>
<svg id="Camada_1" data-name="Camada 1" xmlns="http://www.w3.org/2000/svg" viewBox="0 0 553.03 170.18">
  <defs>
    <style>
      .cls-1 {
        fill: #07589c;
      }
    </style>
  </defs>
  <path class="cls-1" d="M515.73,131.53c-4.78,5.37-9.15,9.42-16.09,10.56s-17.07.96-21.98-4.35c-4.21-4.56-6.86-12.01-6.62-18.13.11-2.74-.16-5.41.14-8.16.43-3.93,1.26-7.65,2.44-11.41,1.71-5.44,4.45-10.18,7.66-14.86,3.41-4.98,7.98-8.68,13.76-10.67,5.02-1.73,10.29-2.54,15.64-2.32,3.81.16,7.13,1.77,9.77,4.34,1.69,1.64,3.21,3.27,4.65,5.13.37.48.36,1.29,1.27,1.4l2.09-8.03,24.57.02-19.53,90.9h-24.58s6.81-34.44,6.81-34.44ZM502.29,126.93c2.83.41,5.61.18,8.18-.8,6.77-2.6,8.44-10.83,10.41-16.76s2.39-11,0-16.71c-1.25-3.01-3.49-4.71-6.87-4.98-4.13-.33-7.88,1.2-10.28,4.64-1.7,2.43-3.03,4.91-4.08,7.71-1.84,4.92-1.73,6.72-2.88,11.7-.26,1.15-.22,2.17-.34,3.33-.33,3.11-.07,6.16,1.56,8.86.94,1.56,2.32,2.73,4.3,3.01Z"/>
  <g>
    <path class="cls-1" d="M44.97,146.18v-42.01s-9.4-.48-9.4-.48l12.15-32.8c1.38-3.71-.06-19.71,13.96-32.94,2.63-2.48,5.26-4.81,8.34-6.77,25.31-16.07,60.01-3.2,69.68,24.81,5.7,16.49.92,38.01-12.5,49.64l18.82,64.56h-18.83l-9.88-36.24-10.31-36.72c8.56-4.9,14.44-11.49,15.86-21.44.87-6.12,0-12.1-2.86-17.61-2.09-4.04-4.78-7.77-8.55-10.42-5.51-3.86-12.3-5.35-18.91-4.68-7.26.73-13.64,3.78-18.42,9.23-3.68,4.19-6.06,9.17-7.15,14.65-.26,1.3.24,2.73-.2,3.97l-6.82,18.91,3.75.09v37.56s44.81,0,44.81,0l5.41,18.69"/>
    <path class="cls-1" d="M58.59,32.85c-3.24,3.06-5.76,6.34-8.04,10.05-5.79,9.43-6.78,17.11-7.69,28.07l-15.53,37.54,12.38.11.02,42.18h75.46s5.25,19.14,5.25,19.14H21.03s-.03-44.96-.03-44.96l-21-.05,18.22-42.4c1.56-3.84,3.09-7.32,4.42-11.22,1.4-18.21,8.85-37.85,22.03-50.82,7.87-7.75,17.43-13.46,27.92-16.87,6.59-2.15,13.19-3.03,20.05-3.47,11.29-.73,19.73,1.64,30.12,5.72,12.93,5.08,24.68,15.8,32.37,27.22,1.76,2.61,3.07,5.13,4.24,8.04,7.9,17.74,8.74,37.79,2.08,56.05-1.93,5.29-4.47,10.22-7.79,14.77l15.33,57.49-18.28.06-17.86-61.94c9.07-9.25,14.06-22.69,14.56-35.59.21-5.54-.71-10.68-2.29-15.87-5.55-18.33-20.78-31.85-39.41-35.95-16.85-3.71-34.43.72-47.14,12.71Z"/>
    <ellipse class="cls-1" cx="95.02" cy="71.4" rx="18.51" ry="18.49"/>
  </g>
  <g>
    <path class="cls-1" d="M220.9,123.24c3.81.64,8.63.31,12.22-1.25,4.76-2.07,10.45-7.22,10.78-12.94l27.66-.18c.49,1.17.27,2.5-.07,3.79-1.4,5.35-4.28,9.95-8.08,13.95-3.09,3.26-6.58,5.72-10.36,8.15-4.11,2.65-8.31,4.59-13.07,5.84-5.97,1.56-11.92,2.08-18.12,2.08-8.13,0-16.66-.49-24.05-4.01-3.57-1.7-6.35-4.09-8.54-7.39-3.42-5.16-6.22-10.85-6.67-17.17-.32-4.54-.22-8.9.02-13.45.34-6.36,1.56-12.49,3.4-18.57,3.13-10.38,10.69-20.6,18.75-27.7s19.54-9.86,29.93-10.58c8.64-.6,13.28-.47,21.75,1.03,5.43.96,10.42,2.76,15.23,5.38,7.65,4.16,9.54,11.83,8.87,20.02-.11,1.29-.65,2.46-1.01,3.8h-28.57c.44-2.9.43-6.22-1.52-8.59-2.31-2.8-5.92-3.97-9.38-4.5-1.66-.24-3.32-.21-4.96.05l-3.39.53c-4.38.68-11.19,7.81-13.6,12.69-3.33,6.74-5.73,13.93-6.66,21.41l-.75,5.97c-.62,4.93-.19,9.8,1.56,14.42,1.47,3.88,4.45,6.54,8.63,7.24Z"/>
    <g>
      <polygon class="cls-1" points="366.87 140.38 329.89 140.42 312.2 69.11 297.88 140.44 273.31 140.36 292.85 46.27 330.7 46.28 347.31 113.64 362.67 46.25 387.25 46.28 366.87 140.38"/>
      <path class="cls-1" d="M476.96,69.52c-.24,19.93-9.14,30.78-28.08,36.27-4.65,1.27-9.19,1.81-14.03,2.02l-21.81.04-6.94,32.58-26.69-.03,19.55-94.12h43.78c1.94.48,3.63.52,5.6.39,6.67.27,13.14,1.8,19.08,4.75,7.31,3.63,9.64,10.31,9.54,18.1ZM447.84,76.35c.77-4.08-1.51-7.89-5.18-9.52-1.87-.62-3.69-1-5.69-1.01l-14.67-.03-5.04,23.56h15.89c3.78-.15,6.89-1.82,9.54-4.35,2.51-2.39,4.45-5.05,5.13-8.66Z"/>
    </g>
  </g>
</svg>