<?xml version="1.0" encoding="UTF-8"?>
<svg id="Layer_1" data-name="Layer 1" xmlns="http://www.w3.org/2000/svg" xmlns:xlink="http://www.w3.org/1999/xlink" viewBox="0 0 448 193">
  <defs>
    <style>
      .cls-1, .cls-2 {
        fill: #0b5f2c;
      }

      .cls-1, .cls-3, .cls-4 {
        fill-rule: evenodd;
      }

      .cls-5 {
        fill: none;
      }

      .cls-3 {
        fill: #7db828;
      }

      .cls-6, .cls-4 {
        fill: #439335;
      }

      .cls-7 {
        clip-path: url(#clippath);
      }
    </style>
    <clipPath id="clippath">
      <circle class="cls-5" cx="83.41" cy="97.54" r="71.57"/>
    </clipPath>
  </defs>
  <g>
    <g>
      <polygon class="cls-2" points="169.75 56.1 169.75 26.19 182.34 26.19 182.34 31.72 175.53 31.72 175.53 37.76 181.7 37.76 181.7 43.25 175.53 43.25 175.53 50.26 182.34 50.26 182.34 56.1 169.75 56.1"/>
      <path class="cls-2" d="M185.45,55.06v-6.21c.75.66,1.49,1.15,2.21,1.48.73.33,1.46.49,2.2.49,1.01,0,1.8-.27,2.39-.8.58-.53.87-1.26.87-2.18,0-1.13-.78-2.36-2.36-3.69-.44-.37-.77-.66-.99-.86-1.83-1.64-3.08-3.11-3.77-4.42-.68-1.3-1.02-2.78-1.02-4.43,0-2.58.73-4.67,2.18-6.26,1.45-1.59,3.36-2.39,5.71-2.39.83,0,1.65.12,2.46.36.82.24,1.67.62,2.57,1.12v5.28c-1.05-.5-1.87-.85-2.45-1.04-.58-.19-1.1-.29-1.55-.29-.86,0-1.57.27-2.11.81-.55.54-.82,1.24-.82,2.12,0,.76.2,1.48.62,2.14.41.66,1.36,1.64,2.87,2.94,2.01,1.73,3.3,3.15,3.87,4.29.57,1.15.86,2.52.86,4.13,0,2.72-.77,4.87-2.31,6.45-1.53,1.57-3.63,2.36-6.28,2.36-1.01,0-1.94-.12-2.8-.35-.85-.23-1.64-.59-2.36-1.06Z"/>
      <path class="cls-2" d="M217.87,55.77c-.57.24-1.15.41-1.73.52-.58.12-1.16.17-1.75.17-3.81,0-6.91-1.38-9.3-4.16-2.39-2.77-3.57-6.41-3.57-10.9s1.17-8.45,3.5-11.32c2.33-2.87,5.37-4.3,9.13-4.3.69,0,1.35.06,1.97.17.62.12,1.2.29,1.76.55v5.6c-.57-.23-1.13-.41-1.67-.51-.54-.11-1.07-.17-1.59-.17-1.99,0-3.62.88-4.85,2.64-1.24,1.76-1.87,4.1-1.87,7.01s.64,5.07,1.92,6.81c1.28,1.73,2.92,2.6,4.93,2.6.5,0,1.02-.06,1.55-.18.52-.13,1.06-.31,1.59-.54v6Z"/>
      <path class="cls-2" d="M231.06,50.78c1.53,0,2.67-.8,3.43-2.4.76-1.6,1.14-4,1.14-7.22s-.38-5.65-1.14-7.25c-.76-1.6-1.9-2.4-3.43-2.4s-2.67.8-3.42,2.38c-.75,1.59-1.13,4.01-1.13,7.27s.38,5.65,1.13,7.24c.75,1.59,1.89,2.38,3.42,2.38h0ZM241.6,41.58c0,4.56-.96,8.18-2.87,10.87-1.92,2.69-4.47,4.03-7.67,4.03s-5.88-1.35-7.72-4.05c-1.85-2.69-2.77-6.45-2.77-11.26s.93-8.55,2.8-11.28c1.87-2.73,4.43-4.09,7.69-4.09s5.85,1.39,7.73,4.18c1.87,2.78,2.8,6.65,2.8,11.6Z"/>
      <polygon class="cls-2" points="245.29 56.1 245.29 26.19 251.19 26.19 251.19 50.26 257.99 50.26 257.99 56.1 245.29 56.1"/>
      <path class="cls-2" d="M265.8,46.21h3.98c-.41-2.09-.78-4.28-1.11-6.57-.33-2.29-.62-4.7-.86-7.24-.3,2.24-.62,4.51-.96,6.81-.34,2.3-.69,4.63-1.06,6.99h0ZM257.83,56.1l6.97-29.92h6.25l6.64,29.92h-5.97l-1-5.25h-6.01l-.92,5.25h-5.96Z"/>
      <path class="cls-2" d="M295,50.57h.47c2.12,0,3.74-.8,4.85-2.39,1.12-1.59,1.68-3.9,1.68-6.94,0-3.25-.55-5.67-1.63-7.25-1.08-1.57-2.74-2.36-4.98-2.36h-.39v18.93h0ZM289.1,56.1v-29.92h5.13c4.62,0,8.06,1.24,10.33,3.71,2.27,2.48,3.41,6.23,3.41,11.27,0,3.04-.42,5.57-1.25,7.62-.83,2.05-2.13,3.74-3.91,5.09-1.05.8-2.25,1.38-3.57,1.72-1.34.34-3.22.51-5.64.51h-4.49Z"/>
      <polygon class="cls-2" points="311.68 56.1 311.68 26.19 324.27 26.19 324.27 31.72 317.46 31.72 317.46 37.76 323.63 37.76 323.63 43.25 317.46 43.25 317.46 50.26 324.27 50.26 324.27 56.1 311.68 56.1"/>
      <polygon class="cls-2" points="169.75 99.03 169.75 69.12 182.34 69.12 182.34 74.65 175.53 74.65 175.53 80.7 181.7 80.7 181.7 86.19 175.53 86.19 175.53 93.19 182.34 93.19 182.34 99.03 169.75 99.03"/>
      <path class="cls-2" d="M192.28,93.5h.47c2.12,0,3.74-.8,4.85-2.39,1.12-1.59,1.68-3.9,1.68-6.94,0-3.25-.55-5.67-1.63-7.25-1.08-1.57-2.74-2.36-4.98-2.36h-.39v18.93h0ZM186.37,99.03v-29.92h5.13c4.62,0,8.06,1.24,10.33,3.71,2.27,2.48,3.41,6.23,3.41,11.27,0,3.04-.42,5.57-1.25,7.62-.83,2.05-2.13,3.74-3.91,5.09-1.05.8-2.25,1.38-3.57,1.72-1.34.34-3.22.51-5.64.51h-4.49Z"/>
      <path class="cls-2" d="M227.47,69.12v18.79c0,2.3-.07,3.93-.2,4.89-.14.97-.36,1.76-.68,2.39-.73,1.44-1.77,2.5-3.15,3.19-1.37.69-3.13,1.04-5.29,1.04s-3.93-.34-5.32-1.04c-1.39-.69-2.44-1.75-3.15-3.19-.33-.64-.56-1.45-.7-2.41-.13-.97-.2-2.59-.2-4.86v-18.79h5.97v19.26c0,2.44.25,4.02.75,4.72.5.71,1.38,1.06,2.65,1.06s2.19-.36,2.67-1.08c.48-.71.73-2.28.73-4.7v-19.26h5.92Z"/>
      <path class="cls-2" d="M247.38,98.71c-.57.24-1.15.41-1.73.52-.58.12-1.16.17-1.75.17-3.81,0-6.91-1.38-9.3-4.16-2.39-2.77-3.57-6.41-3.57-10.9s1.17-8.45,3.5-11.32c2.33-2.87,5.37-4.3,9.13-4.3.69,0,1.35.06,1.97.17.62.12,1.2.29,1.76.55v5.6c-.57-.23-1.13-.41-1.67-.51-.54-.11-1.07-.17-1.59-.17-1.99,0-3.62.88-4.85,2.64-1.24,1.76-1.87,4.1-1.87,7.01s.64,5.07,1.92,6.81c1.28,1.73,2.92,2.6,4.93,2.6.5,0,1.02-.06,1.55-.18.52-.13,1.06-.31,1.59-.54v6Z"/>
      <path class="cls-2" d="M256.54,89.14h3.98c-.41-2.09-.78-4.28-1.11-6.57-.33-2.29-.62-4.7-.86-7.24-.3,2.24-.62,4.51-.96,6.81-.34,2.3-.69,4.63-1.06,6.99h0ZM248.57,99.03l6.97-29.92h6.25l6.64,29.92h-5.97l-1-5.25h-6.01l-.92,5.25h-5.96Z"/>
      <path class="cls-2" d="M285.98,98.71c-.57.24-1.15.41-1.73.52-.58.12-1.16.17-1.75.17-3.81,0-6.91-1.38-9.3-4.16-2.39-2.77-3.57-6.41-3.57-10.9s1.17-8.45,3.5-11.32c2.33-2.87,5.37-4.3,9.13-4.3.69,0,1.35.06,1.97.17.62.12,1.2.29,1.76.55v5.6c-.57-.23-1.13-.41-1.67-.51-.54-.11-1.07-.17-1.59-.17-1.99,0-3.62.88-4.85,2.64-1.25,1.76-1.87,4.1-1.87,7.01s.64,5.07,1.92,6.81c1.28,1.73,2.92,2.6,4.93,2.6.5,0,1.02-.06,1.55-.18.52-.13,1.06-.31,1.59-.54v6h0ZM276.13,108.01v-2.64c.87.29,1.69.5,2.43.66.75.15,1.38.22,1.9.22.59,0,1.03-.13,1.32-.38.29-.25.44-.63.44-1.12s-.17-.87-.53-1.1c-.36-.22-.92-.34-1.68-.34-.22,0-.39,0-.52,0-.13,0-.24.02-.36.03v-4.32h1.97v1.84h.24c1.35,0,2.37.33,3.06.99.68.65,1.02,1.63,1.02,2.93s-.39,2.39-1.17,3.07c-.78.69-1.94,1.03-3.48,1.03-.59,0-1.27-.08-2.06-.22-.79-.15-1.64-.37-2.57-.66Z"/>
      <path class="cls-2" d="M295.14,89.14h3.98c-.41-2.09-.78-4.28-1.11-6.57-.33-2.29-.62-4.7-.86-7.24-.3,2.24-.62,4.51-.96,6.81-.34,2.3-.69,4.63-1.06,6.99h0ZM287.17,99.03l6.97-29.92h6.25l6.64,29.92h-5.97l-1-5.25h-6.01l-.92,5.25h-5.96ZM302.76,59.8c-.23,1.75-.64,3.02-1.22,3.81-.58.79-1.38,1.19-2.39,1.19-.19,0-.38-.01-.59-.05-.21-.04-.43-.09-.66-.15l-1.56-.56c-.19-.06-.38-.12-.58-.15-.2-.03-.38-.05-.55-.05-.38,0-.69.13-.93.37s-.43.66-.59,1.23h-1.92c.27-1.64.7-2.86,1.28-3.65.58-.79,1.34-1.19,2.29-1.19.22,0,.45.02.71.07.25.05.52.13.8.24l1.54.5c.15.05.3.09.45.12.15.03.29.04.43.04.41,0,.74-.14.99-.41.25-.27.45-.72.61-1.35h1.88Z"/>
      <path class="cls-2" d="M318.68,93.71c1.53,0,2.67-.8,3.43-2.4.76-1.6,1.14-4,1.14-7.22s-.38-5.65-1.14-7.25c-.76-1.6-1.9-2.4-3.43-2.4s-2.67.8-3.42,2.39c-.75,1.59-1.13,4.01-1.13,7.27s.38,5.65,1.13,7.24c.75,1.59,1.89,2.38,3.42,2.38h0ZM329.22,84.51c0,4.56-.96,8.18-2.87,10.87-1.92,2.69-4.47,4.03-7.67,4.03s-5.88-1.35-7.72-4.05c-1.85-2.69-2.77-6.45-2.77-11.26s.93-8.55,2.8-11.28c1.87-2.73,4.43-4.09,7.69-4.09s5.85,1.39,7.73,4.18c1.87,2.78,2.8,6.65,2.8,11.6Z"/>
      <polygon class="cls-2" points="342.15 99.03 342.15 69.12 355.06 69.12 355.06 74.65 347.93 74.65 347.93 80.86 354.45 80.86 354.45 86.37 347.93 86.37 347.93 99.03 342.15 99.03"/>
      <path class="cls-2" d="M358.77,99.03v-29.92h6.09v29.92h-6.09ZM367.63,58.79l-6.13,7.6h-2.75l3.83-7.6h5.04Z"/>
      <path class="cls-2" d="M368.93,97.99v-6.21c.75.66,1.49,1.15,2.21,1.48.73.33,1.46.49,2.2.49,1.01,0,1.8-.27,2.38-.8.58-.53.87-1.26.87-2.18,0-1.13-.78-2.36-2.36-3.69-.44-.37-.77-.66-.99-.86-1.83-1.64-3.08-3.11-3.77-4.42-.68-1.3-1.02-2.78-1.02-4.43,0-2.58.73-4.67,2.18-6.26,1.45-1.59,3.36-2.38,5.71-2.38.83,0,1.65.12,2.46.36.82.24,1.67.62,2.57,1.12v5.28c-1.05-.5-1.87-.85-2.45-1.04-.58-.19-1.1-.29-1.55-.29-.86,0-1.57.27-2.11.81-.55.54-.82,1.24-.82,2.12,0,.76.2,1.48.62,2.14.41.66,1.36,1.64,2.87,2.94,2.01,1.73,3.3,3.15,3.87,4.29.57,1.15.86,2.52.86,4.13,0,2.72-.77,4.87-2.31,6.45-1.53,1.57-3.63,2.36-6.28,2.36-1.01,0-1.94-.12-2.8-.35-.85-.23-1.64-.59-2.36-1.06Z"/>
      <rect class="cls-2" x="386.21" y="69.12" width="6.09" height="29.92"/>
      <path class="cls-2" d="M412.68,98.71c-.57.24-1.15.41-1.73.52-.58.12-1.16.17-1.75.17-3.81,0-6.91-1.38-9.3-4.16-2.39-2.77-3.57-6.41-3.57-10.9s1.17-8.45,3.5-11.32c2.33-2.87,5.37-4.3,9.13-4.3.69,0,1.35.06,1.97.17.62.12,1.2.29,1.76.55v5.6c-.57-.23-1.13-.41-1.67-.51-.54-.11-1.07-.17-1.59-.17-1.99,0-3.62.88-4.85,2.64-1.24,1.76-1.87,4.1-1.87,7.01s.64,5.07,1.92,6.81c1.28,1.73,2.92,2.6,4.93,2.6.5,0,1.02-.06,1.55-.18.52-.13,1.06-.31,1.59-.54v6Z"/>
      <path class="cls-2" d="M421.84,89.14h3.98c-.41-2.09-.78-4.28-1.11-6.57-.33-2.29-.62-4.7-.86-7.24-.3,2.24-.62,4.51-.96,6.81-.34,2.3-.69,4.63-1.06,6.99h0ZM413.87,99.03l6.97-29.92h6.25l6.64,29.92h-5.97l-1-5.25h-6.01l-.92,5.25h-5.96Z"/>
      <polygon class="cls-2" points="169.75 141.5 169.75 111.59 182.34 111.59 182.34 117.12 175.53 117.12 175.53 123.16 181.7 123.16 181.7 128.66 175.53 128.66 175.53 135.66 182.34 135.66 182.34 141.5 169.75 141.5"/>
      <polygon class="cls-2" points="195.61 141.5 195.61 111.59 208.2 111.59 208.2 117.12 201.39 117.12 201.39 123.16 207.56 123.16 207.56 128.66 201.39 128.66 201.39 135.66 208.2 135.66 208.2 141.5 195.61 141.5"/>
      <path class="cls-2" d="M211.31,140.46v-6.21c.75.66,1.49,1.15,2.21,1.48.73.33,1.46.49,2.2.49,1.01,0,1.8-.27,2.38-.8.58-.53.87-1.26.87-2.18,0-1.13-.78-2.36-2.36-3.69-.44-.37-.77-.66-.99-.86-1.83-1.64-3.08-3.11-3.77-4.42-.68-1.3-1.02-2.78-1.02-4.43,0-2.58.73-4.67,2.18-6.26,1.45-1.59,3.36-2.39,5.71-2.39.83,0,1.65.12,2.46.36.82.24,1.67.62,2.57,1.12v5.28c-1.05-.5-1.87-.85-2.45-1.04-.58-.19-1.1-.29-1.55-.29-.86,0-1.57.27-2.11.81-.55.54-.82,1.24-.82,2.12,0,.76.2,1.48.62,2.14.41.66,1.36,1.64,2.87,2.94,2.01,1.73,3.3,3.15,3.87,4.29.57,1.15.86,2.52.86,4.13,0,2.72-.77,4.87-2.31,6.45-1.53,1.57-3.63,2.36-6.28,2.36-1.01,0-1.94-.12-2.8-.35-.85-.23-1.64-.59-2.36-1.06Z"/>
      <path class="cls-2" d="M234.12,124.56c.07,0,.17,0,.31.02.15.01.25.02.32.02,1.27,0,2.23-.36,2.9-1.1.66-.73.99-1.78.99-3.15s-.31-2.47-.94-3.15c-.62-.67-1.61-1.01-2.94-1.01-.07,0-.17,0-.32.02-.14.01-.24.02-.31.02v8.32h0ZM228.34,141.5v-29.92h6.2c3.29,0,5.74.71,7.34,2.14,1.6,1.43,2.4,3.61,2.4,6.55s-.77,4.98-2.31,6.53c-1.55,1.55-3.71,2.33-6.5,2.33-.35,0-.62,0-.8,0-.19,0-.36-.02-.52-.03l-.02,12.42h-5.78Z"/>
      <path class="cls-2" d="M256.92,136.18c1.53,0,2.67-.8,3.43-2.4.76-1.6,1.14-4,1.14-7.22s-.38-5.65-1.14-7.25c-.76-1.6-1.9-2.4-3.43-2.4s-2.67.8-3.42,2.39c-.75,1.59-1.13,4.01-1.13,7.27s.38,5.65,1.13,7.24c.75,1.59,1.89,2.38,3.42,2.38h0ZM267.46,126.98c0,4.56-.96,8.18-2.87,10.87-1.92,2.69-4.47,4.03-7.67,4.03s-5.88-1.35-7.72-4.05c-1.85-2.69-2.77-6.45-2.77-11.26s.93-8.55,2.8-11.28c1.87-2.73,4.43-4.09,7.69-4.09s5.85,1.39,7.73,4.18c1.87,2.78,2.8,6.65,2.8,11.6Z"/>
      <path class="cls-2" d="M276.93,124.56c.07,0,.18,0,.34.02.16.01.27.02.34.02,1.29,0,2.27-.36,2.92-1.08.66-.73.99-1.79.99-3.2s-.3-2.48-.9-3.13c-.6-.66-1.56-.99-2.89-.99-.2,0-.36,0-.47.01-.11,0-.21.01-.31.03l-.02,8.32h0ZM271.15,141.5v-29.92h6.21c3.41,0,5.89.67,7.42,2.01,1.54,1.34,2.31,3.48,2.31,6.41,0,2.13-.39,3.85-1.17,5.13-.79,1.29-1.97,2.2-3.56,2.71l5.74,13.65h-6.3l-4.87-12.37v12.37h-5.78Z"/>
      <polygon class="cls-2" points="293.22 141.5 293.22 117.12 288.65 117.12 288.65 111.59 303.79 111.59 303.79 117.12 299.22 117.12 299.22 141.5 293.22 141.5"/>
      <polygon class="cls-2" points="306.74 141.5 306.74 111.59 319.33 111.59 319.33 117.12 312.52 117.12 312.52 123.16 318.69 123.16 318.69 128.66 312.52 128.66 312.52 135.66 319.33 135.66 319.33 141.5 306.74 141.5"/>
    </g>
    <path class="cls-2" d="M181.01,152.11v11.32c0,1.39-.04,2.37-.12,2.95-.08.58-.22,1.06-.41,1.44-.44.87-1.07,1.5-1.9,1.92-.83.42-1.89.62-3.19.62s-2.37-.21-3.2-.62c-.84-.42-1.47-1.05-1.9-1.92-.2-.38-.34-.87-.42-1.45-.08-.59-.12-1.56-.12-2.93v-11.32h3.6v11.61c0,1.47.15,2.42.45,2.85.3.43.83.64,1.6.64s1.32-.21,1.61-.65c.29-.43.44-1.37.44-2.83v-11.61h3.57Z"/>
    <path class="cls-2" d="M183.73,170.14v-18.03h3.64l3.64,9.71c.11.31.26.79.45,1.44s.41,1.4.66,2.28c-.19-1.27-.33-2.44-.42-3.51-.09-1.07-.13-2.06-.13-2.98v-6.93h3.33v18.03h-3.33l-3.95-10.09c-.07-.15-.24-.76-.52-1.84-.13-.49-.24-.88-.31-1.16.08.7.15,1.49.19,2.36.04.88.06,1.92.06,3.14v7.58h-3.31Z"/>
    <rect class="cls-2" x="197.9" y="152.11" width="3.67" height="18.03"/>
    <path class="cls-2" d="M207.81,170.14l-5.14-18.03h3.64l2.12,8.16c.21.8.38,1.65.53,2.56.14.91.26,1.85.34,2.85.06-.92.16-1.83.29-2.72.13-.89.31-1.77.51-2.61l2.07-8.24h3.74l-5.1,18.03h-3.01Z"/>
    <polygon class="cls-2" points="216.86 170.14 216.86 152.11 224.45 152.11 224.45 155.45 220.35 155.45 220.35 159.09 224.06 159.09 224.06 162.4 220.35 162.4 220.35 166.62 224.45 166.62 224.45 170.14 216.86 170.14"/>
    <path class="cls-2" d="M230.36,159.93s.11,0,.2.01c.1,0,.16.01.21.01.78,0,1.37-.22,1.76-.65.4-.44.59-1.08.59-1.93s-.18-1.49-.54-1.89c-.36-.4-.94-.59-1.74-.59-.12,0-.22,0-.28,0-.07,0-.13,0-.19.02v5.02h-.01ZM226.88,170.14v-18.03h3.74c2.06,0,3.55.4,4.47,1.21.93.81,1.39,2.1,1.39,3.87,0,1.29-.24,2.32-.71,3.09-.48.78-1.19,1.32-2.15,1.64l3.46,8.22h-3.79l-2.94-7.46v7.46h-3.48Z"/>
    <path class="cls-2" d="M237.93,169.51v-3.74c.45.4.9.69,1.33.89.44.2.88.3,1.32.3.61,0,1.09-.16,1.44-.48.35-.32.53-.76.53-1.31,0-.68-.47-1.42-1.42-2.22-.27-.22-.46-.4-.59-.52-1.1-.99-1.86-1.88-2.27-2.66-.41-.78-.62-1.67-.62-2.67,0-1.56.44-2.81,1.32-3.77.88-.96,2.02-1.44,3.44-1.44.5,0,.99.07,1.48.22.49.14,1.01.37,1.55.67v3.18c-.63-.3-1.13-.51-1.48-.63-.35-.11-.66-.17-.93-.17-.52,0-.94.16-1.27.49-.33.32-.49.75-.49,1.28,0,.46.12.89.37,1.29.25.4.82.99,1.73,1.77,1.21,1.04,1.99,1.9,2.34,2.59.35.69.52,1.52.52,2.49,0,1.64-.46,2.93-1.39,3.89-.92.95-2.19,1.42-3.79,1.42-.61,0-1.17-.07-1.69-.21-.51-.14-.99-.35-1.42-.64Z"/>
    <rect class="cls-2" x="248.34" y="152.11" width="3.67" height="18.03"/>
    <path class="cls-2" d="M258.58,166.81h.28c1.28,0,2.25-.48,2.93-1.44.67-.96,1.01-2.35,1.01-4.18,0-1.96-.33-3.41-.98-4.37-.65-.95-1.65-1.42-3-1.42h-.24v11.41h0ZM255.03,170.14v-18.03h3.09c2.78,0,4.86.75,6.23,2.23,1.37,1.49,2.06,3.76,2.06,6.79,0,1.83-.25,3.36-.75,4.59-.5,1.23-1.29,2.26-2.36,3.06-.63.48-1.35.83-2.15,1.04-.81.21-1.94.31-3.4.31h-2.71Z"/>
    <path class="cls-2" d="M271.48,164.18h2.4c-.25-1.26-.47-2.58-.67-3.96-.2-1.38-.37-2.83-.52-4.36-.18,1.35-.38,2.72-.58,4.11-.2,1.39-.41,2.79-.64,4.22h0ZM266.68,170.14l4.2-18.03h3.77l4,18.03h-3.6l-.6-3.16h-3.62l-.56,3.16h-3.59Z"/>
    <path class="cls-2" d="M283.51,166.81h.28c1.28,0,2.25-.48,2.93-1.44.67-.96,1.01-2.35,1.01-4.18,0-1.96-.33-3.41-.98-4.37-.65-.95-1.65-1.42-3-1.42h-.24v11.41h0ZM279.95,170.14v-18.03h3.09c2.78,0,4.86.75,6.23,2.23,1.37,1.49,2.06,3.76,2.06,6.79,0,1.83-.25,3.36-.75,4.59-.5,1.23-1.29,2.26-2.36,3.06-.63.48-1.35.83-2.15,1.04-.8.21-1.94.31-3.4.31h-2.71Z"/>
    <polygon class="cls-2" points="293.56 170.14 293.56 152.11 301.15 152.11 301.15 155.45 297.04 155.45 297.04 159.09 300.76 159.09 300.76 162.4 297.04 162.4 297.04 166.62 301.15 166.62 301.15 170.14 293.56 170.14"/>
    <path class="cls-2" d="M312.7,166.81h.28c1.28,0,2.25-.48,2.93-1.44.67-.96,1.01-2.35,1.01-4.18,0-1.96-.33-3.41-.98-4.37-.65-.95-1.65-1.42-3-1.42h-.24v11.41h0ZM309.15,170.14v-18.03h3.09c2.78,0,4.86.75,6.23,2.23,1.37,1.49,2.06,3.76,2.06,6.79,0,1.83-.25,3.36-.75,4.59-.5,1.23-1.29,2.26-2.36,3.06-.63.48-1.35.83-2.15,1.04-.8.21-1.94.31-3.4.31h-2.71Z"/>
    <polygon class="cls-2" points="322.76 170.14 322.76 152.11 330.34 152.11 330.34 155.45 326.24 155.45 326.24 159.09 329.96 159.09 329.96 162.4 326.24 162.4 326.24 166.62 330.34 166.62 330.34 170.14 322.76 170.14"/>
    <path class="cls-2" d="M337.78,169.51v-3.74c.45.4.9.69,1.33.89.44.2.88.3,1.32.3.61,0,1.09-.16,1.44-.48.35-.32.53-.76.53-1.31,0-.68-.47-1.42-1.42-2.22-.27-.22-.46-.4-.59-.52-1.1-.99-1.86-1.88-2.27-2.66-.41-.78-.62-1.67-.62-2.67,0-1.56.44-2.81,1.32-3.77.88-.96,2.02-1.44,3.44-1.44.5,0,.99.07,1.48.22.49.14,1.01.37,1.55.67v3.18c-.63-.3-1.13-.51-1.48-.63-.35-.11-.66-.17-.93-.17-.52,0-.94.16-1.27.49-.33.32-.49.75-.49,1.28,0,.46.12.89.37,1.29.25.4.82.99,1.73,1.77,1.21,1.04,1.99,1.9,2.34,2.59.35.69.52,1.52.52,2.49,0,1.64-.46,2.93-1.39,3.89-.92.95-2.19,1.42-3.79,1.42-.61,0-1.17-.07-1.69-.21-.51-.14-.99-.35-1.42-.64Z"/>
    <path class="cls-2" d="M351.33,164.18h2.4c-.25-1.26-.47-2.58-.67-3.96-.2-1.38-.37-2.83-.52-4.36-.18,1.35-.37,2.72-.58,4.11-.2,1.39-.41,2.79-.64,4.22h0ZM346.53,170.14l4.2-18.03h3.77l4,18.03h-3.6l-.6-3.16h-3.62l-.56,3.16h-3.59ZM355.93,146.5c-.14,1.05-.38,1.82-.73,2.3s-.83.72-1.44.72c-.11,0-.23,0-.35-.03-.13-.02-.26-.05-.4-.09l-.94-.34c-.11-.04-.23-.07-.35-.09-.12-.02-.23-.03-.33-.03-.23,0-.42.08-.56.22-.14.15-.26.4-.35.74h-1.16c.16-.99.42-1.72.77-2.2.35-.48.81-.72,1.38-.72.13,0,.27.01.43.04.15.03.31.08.48.14l.93.3c.09.03.18.05.27.07.09.02.18.03.26.03.25,0,.45-.08.6-.25.15-.16.27-.43.37-.81h1.13Z"/>
    <path class="cls-2" d="M365.52,166.93c.92,0,1.61-.48,2.07-1.45.46-.97.69-2.41.69-4.35s-.23-3.41-.69-4.37c-.46-.97-1.14-1.45-2.07-1.45s-1.61.48-2.06,1.44c-.45.96-.68,2.42-.68,4.38s.23,3.41.68,4.36c.45.96,1.14,1.43,2.06,1.43h0ZM371.87,161.39c0,2.75-.58,4.93-1.73,6.55-1.15,1.62-2.69,2.43-4.62,2.43s-3.54-.81-4.65-2.44c-1.11-1.62-1.67-3.89-1.67-6.79s.56-5.16,1.69-6.79c1.13-1.64,2.67-2.47,4.64-2.47s3.53.84,4.66,2.52c1.13,1.68,1.69,4.01,1.69,6.99Z"/>
    <path class="cls-2" d="M383.15,159.93s.11,0,.19.01c.09,0,.15.01.19.01.76,0,1.34-.22,1.74-.66.4-.44.6-1.07.6-1.9s-.19-1.49-.57-1.9c-.38-.4-.97-.61-1.77-.61-.04,0-.11,0-.19.01-.08,0-.15.01-.19.01v5.02h0ZM379.66,170.14v-18.03h3.74c1.99,0,3.46.43,4.42,1.29.97.86,1.45,2.17,1.45,3.95s-.46,3-1.4,3.93c-.93.94-2.23,1.4-3.92,1.4-.21,0-.38,0-.48,0-.11,0-.22-.01-.32-.02v7.48h-3.49Z"/>
    <path class="cls-2" d="M393.55,164.18h2.4c-.25-1.26-.47-2.58-.67-3.96-.2-1.38-.37-2.83-.52-4.36-.18,1.35-.38,2.72-.58,4.11-.2,1.39-.41,2.79-.64,4.22h0ZM388.75,170.14l4.2-18.03h3.77l4,18.03h-3.6l-.6-3.16h-3.62l-.56,3.16h-3.59Z"/>
    <path class="cls-2" d="M413.18,152.11v11.32c0,1.39-.04,2.37-.12,2.95-.08.58-.22,1.06-.41,1.44-.44.87-1.07,1.5-1.9,1.92-.83.42-1.89.62-3.19.62s-2.37-.21-3.2-.62c-.84-.42-1.47-1.05-1.9-1.92-.2-.38-.34-.87-.42-1.45-.08-.59-.12-1.56-.12-2.93v-11.32h3.6v11.61c0,1.47.15,2.42.45,2.85.3.43.83.64,1.6.64s1.32-.21,1.61-.65c.29-.43.44-1.37.44-2.83v-11.61h3.57Z"/>
    <polygon class="cls-2" points="415.91 170.14 415.91 152.11 419.46 152.11 419.46 166.62 423.56 166.62 423.56 170.14 415.91 170.14"/>
    <path class="cls-2" d="M430.7,166.93c.92,0,1.61-.48,2.07-1.45.46-.97.69-2.41.69-4.35s-.23-3.41-.69-4.37c-.46-.97-1.14-1.45-2.07-1.45s-1.61.48-2.06,1.44c-.45.96-.68,2.42-.68,4.38s.23,3.41.68,4.36c.45.96,1.14,1.43,2.06,1.43h0ZM437.05,161.39c0,2.75-.58,4.93-1.73,6.55-1.15,1.62-2.69,2.43-4.62,2.43s-3.55-.81-4.65-2.44c-1.11-1.62-1.67-3.89-1.67-6.79s.56-5.16,1.69-6.79c1.13-1.64,2.67-2.47,4.64-2.47s3.53.84,4.66,2.52c1.13,1.68,1.69,4.01,1.69,6.99Z"/>
  </g>
  <g>
    <circle class="cls-2" cx="83.41" cy="97.54" r="71.57"/>
    <g class="cls-7">
      <g>
        <g>
          <g>
            <rect class="cls-6" x="82.39" y="17.72" width="2.04" height="18.33"/>
            <rect class="cls-6" x="144.9" y="96.51" width="18.33" height="2.04"/>
            <rect class="cls-6" x="82.39" y="159.03" width="2.04" height="18.33"/>
            <rect class="cls-6" x="3.59" y="96.51" width="18.33" height="2.04"/>
          </g>
          <g>
            <rect class="cls-6" x="92.53" y="28.27" width="18.33" height="2.04" transform="translate(47.08 119.94) rotate(-74.99)"/>
            <rect class="cls-6" x="150.64" y="106.66" width="2.04" height="18.33" transform="translate(.53 232.33) rotate(-75)"/>
            <rect class="cls-6" x="55.96" y="164.76" width="18.33" height="2.04" transform="translate(-111.86 185.79) rotate(-75)"/>
            <rect class="cls-6" x="14.14" y="70.08" width="2.04" height="18.33" transform="translate(-65.31 73.38) rotate(-74.99)"/>
          </g>
          <g>
            <rect class="cls-6" x="109.58" y="35.32" width="18.33" height="2.04" transform="translate(27.89 121) rotate(-60)"/>
            <rect class="cls-6" x="143.58" y="123.7" width="2.04" height="18.33" transform="translate(-42.77 191.65) rotate(-60)"/>
            <rect class="cls-6" x="38.92" y="157.7" width="18.33" height="2.04" transform="translate(-113.42 121.01) rotate(-60)"/>
            <rect class="cls-6" x="21.2" y="53.04" width="2.04" height="18.33" transform="translate(-42.76 50.35) rotate(-60)"/>
          </g>
          <g>
            <rect class="cls-6" x="124.21" y="46.55" width="18.33" height="2.04" transform="translate(5.42 108.24) rotate(-45)"/>
            <rect class="cls-6" x="132.35" y="138.33" width="2.04" height="18.33" transform="translate(-65.23 137.51) rotate(-45)"/>
            <rect class="cls-6" x="24.29" y="146.47" width="18.33" height="2.04" transform="translate(-94.49 66.85) rotate(-45)"/>
            <rect class="cls-6" x="32.43" y="38.41" width="2.04" height="18.33" transform="translate(-23.84 37.59) rotate(-45.01)"/>
          </g>
          <g>
            <rect class="cls-6" x="135.44" y="61.19" width="18.33" height="2.04" transform="translate(-11.73 80.62) rotate(-30)"/>
            <rect class="cls-6" x="117.72" y="149.56" width="2.04" height="18.33" transform="translate(-63.45 80.64) rotate(-30)"/>
            <rect class="cls-6" x="13.06" y="131.84" width="18.33" height="2.04" transform="translate(-63.45 28.91) rotate(-30)"/>
            <rect class="cls-6" x="47.06" y="27.18" width="2.04" height="18.33" transform="translate(-11.73 28.91) rotate(-30)"/>
          </g>
          <g>
            <rect class="cls-6" x="130.3" y="53.5" width="18.33" height="2.04" transform="translate(-4.37 96.17) rotate(-37.5)"/>
            <rect class="cls-6" x="125.4" y="144.42" width="2.04" height="18.33" transform="translate(-67.37 108.7) rotate(-37.5)"/>
            <rect class="cls-6" x="18.19" y="139.52" width="18.33" height="2.04" transform="translate(-79.91 45.7) rotate(-37.5)"/>
            <rect class="cls-6" x="39.38" y="32.32" width="2.04" height="18.33" transform="translate(-16.9 33.17) rotate(-37.5)"/>
          </g>
          <g>
            <rect class="cls-6" x="117.26" y="40.46" width="18.33" height="2.04" transform="translate(16.55 116.53) rotate(-52.5)"/>
            <rect class="cls-6" x="138.44" y="131.38" width="2.04" height="18.33" transform="translate(-56.94 165.63) rotate(-52.5)"/>
            <rect class="cls-6" x="31.24" y="152.57" width="18.33" height="2.04" transform="translate(-106.04 92.13) rotate(-52.5)"/>
            <rect class="cls-6" x="26.34" y="45.36" width="2.04" height="18.33" transform="translate(-32.55 43.04) rotate(-52.5)"/>
          </g>
          <g>
            <rect class="cls-6" x="101.29" y="31.24" width="18.33" height="2.04" transform="translate(38.37 121.95) rotate(-67.49)"/>
            <rect class="cls-6" x="147.67" y="115.41" width="2.04" height="18.33" transform="translate(-23.31 214.26) rotate(-67.5)"/>
            <rect class="cls-6" x="47.21" y="161.79" width="18.33" height="2.04" transform="translate(-115.62 152.6) rotate(-67.5)"/>
            <rect class="cls-6" x="17.11" y="61.33" width="2.04" height="18.33" transform="translate(-53.93 60.27) rotate(-67.49)"/>
          </g>
          <g>
            <rect class="cls-6" x="83.47" y="26.46" width="18.33" height="2.04" transform="translate(53.3 115.74) rotate(-82.5)"/>
            <rect class="cls-6" x="152.44" y="97.59" width="2.04" height="18.33" transform="translate(27.6 244.98) rotate(-82.5)"/>
            <rect class="cls-6" x="65.03" y="166.56" width="18.33" height="2.04" transform="translate(-101.65 219.25) rotate(-82.5)"/>
            <rect class="cls-6" x="12.34" y="79.15" width="2.04" height="18.33" transform="translate(-75.94 90.04) rotate(-82.5)"/>
          </g>
          <g>
            <rect class="cls-6" x="73.17" y="18.32" width="2.04" height="18.33" transform="translate(-2.95 9.92) rotate(-7.5)"/>
            <rect class="cls-6" x="144.3" y="87.29" width="18.33" height="2.04" transform="translate(-10.21 20.78) rotate(-7.5)"/>
            <rect class="cls-6" x="91.61" y="158.42" width="2.04" height="18.33" transform="translate(-21.09 13.53) rotate(-7.5)"/>
            <rect class="cls-6" x="4.2" y="105.74" width="18.33" height="2.04" transform="translate(-13.82 2.66) rotate(-7.5)"/>
          </g>
          <g>
            <rect class="cls-6" x="55.35" y="23.09" width="2.04" height="18.33" transform="translate(-8.05 24.03) rotate(-22.5)"/>
            <rect class="cls-6" x="139.52" y="69.47" width="18.33" height="2.04" transform="translate(-15.66 62.28) rotate(-22.5)"/>
            <rect class="cls-6" x="109.43" y="153.65" width="2.04" height="18.33" transform="translate(-53.89 54.65) rotate(-22.5)"/>
            <rect class="cls-6" x="8.97" y="123.55" width="18.33" height="2.04" transform="translate(-46.29 16.42) rotate(-22.5)"/>
          </g>
          <g>
            <rect class="cls-6" x="142.5" y="78.23" width="18.33" height="2.04" transform="translate(-15.34 41.94) rotate(-14.99)"/>
            <rect class="cls-6" x="100.68" y="156.62" width="2.04" height="18.33" transform="translate(-39.44 31.97) rotate(-15)"/>
            <rect class="cls-6" x="6" y="114.8" width="18.33" height="2.04" transform="translate(-29.47 7.88) rotate(-15.01)"/>
            <rect class="cls-6" x="64.1" y="20.12" width="2.04" height="18.33" transform="translate(-5.36 17.85) rotate(-14.99)"/>
          </g>
        </g>
        <path class="cls-4" d="M83.41,159.2c33.97,0,61.67-27.7,61.67-61.67s-27.7-61.67-61.67-61.67-61.67,27.7-61.67,61.67,27.7,61.67,61.67,61.67Z"/>
      </g>
    </g>
    <g>
      <path class="cls-1" d="M99.98,136.3c.49.28.85.64,1.32.85,2.45,1.12,6.71-.36,6.54-2.64-.1-1.31-1.07-1.84-2.28-1.93-2.08-.15-4.41.57-6.58.23-1.97-.31-3.66-.89-4.5-2.75-.3-.67-.02-2.26-.79-1.97h0c-.42,2.37-1.27,8.91-2.62,9.47,0,0-1.22.83-2.03,1.4-7.06,4.97-9.74,6.89-28.37,12.8-5.06,1.61-9.17.13-8.78-.72.31-.69,1.26-.73,1.9-1.01,1.27-.57,3.95-1.85,5.12-2.57,6.98-4.3,7.76-9.34,6.39-16.54-.51-2.7-1.49-5.28-2.37-7.87-.64-1.9-3.09-4.25-4.87-5.04-2.55-1.12-6.27-2.99-8.97-3.5-2.26-.43-3.73-2.41-3.42-4.64.06-.43.12-.9.27-1.27.36-.85.49-1.34.58-2.26.1-1.06.29-2.07.12-3.13-.02-.15,0-.3-.04-.45-.02-.1,0-.25.13-.26.72-.05,1.32-.03,2.01-.2.13-.03.55-.21.53-.33-.02-.14-.17-.39-.25-.34-.59.33-2.42.41-3.15.26-.66-.13-.11-1.91.77-1.93.87-.02,2.11.05,2.97-.21.17-.05.19-.3.18-.43-.02-.24-.15-.08-.24-.07-1.07.15-2.57.24-3.59.03-.42-.09-.62-.66-.34-1.03.35-.46.84-2.5.96-3.2.05-.33.15-.57.5-.68.34-.11.91-.48,1.13-.61.08-.04.19-.42-.18-.24-.22.11-.72.21-.95.31-.83.37-1.49.41-2.09-.22-.14-.15-.34-.18-.5-.26-.78-.41-2-.64-2.86-.84-.32-.08-1.07-.53-.85-.97.93-1.93,1.88-3.87,2.86-5.78,1.5-2.95,3.35-5.87,4.75-8.82.44-.93.19-1.84-.21-2.71-.13-.29-.33-.6-.59-.81-.39-.32-.41-.71-.3-1.12.18-.69.86-2.09,1.29-2.72,1.65-2.46,4.08-6.02,5.16-8.78.16-.41.6-.36.94-.39,2.02-.21,3.37-.36,6.12-2.17.98-.65,2.23-1.55,3.07-2.37.2-.19,2.02-1.53,2.07-1.47.13.14-.33,1.27-.51,1.85-.27.84-.35,1.39-.7,2.26-.41,1.02-1.17,1.9-1.94,2.65-.39.38-1.49.92-1.35,1.28.08.21.39.17.6.13,2.4-.43,4.65-1.41,6.88-2.35,1.51-.64,2.89-1.79,3.98-2.98.12-.13.23-.47.4-.37.27.15.08.8-.01,1.19-.12.52-.93,1.15-1.09,1.94-.03.16-.08.26-.02.39.16.3,1.2-.27,2.47-.44.7-.09,1.31-.52,1.94-.83.44-.21.84-.5,1.24-.77.12-.08.35-.46.14-.46-.3,0-1.55.99-2.4,1.35-1.47.62-3.02.85-3.02.85,0,0,.23-.42.39-.72.23-.45.62-.87.8-1.19.14-.25.12-.49.12-.74,0-.71.32-1.31.71-1.86.22-.3.5-.56.71-.87.06-.09.03-.16-.06-.21-.14-.09-.27-.11-.4.04-.66.79-1.16,1.29-1.87,2-1.23,1.23-2.26,2.24-3.88,3.07-.95.48-1.96.84-2.94,1.25-.67.28-3.68,1.25-3.68,1.25,2.62-1.27,3.49-1.71,5.36-4.03.61-.76,1.15-1.57,1.78-2.31.85-.98.87-1.51,2.1-2.55.71-.61,1.09-1.06,1.97-1.17.08,0,.16,0,.19-.09.03-.09-.05-.14-.1-.19-.24-.24-.53-.12-.72,0-.44.29-.86.62-1.24.98-.79.74-1.24.99-1.88,2.04-.74,1.23-2,2.75-2.93,3.86-.58.69-1.36,1.24-2.06,1.83-.4.34-1.87,1.11-1.87,1.11,3.31-3.68,2.28-5.92,3.81-7.85.5-.63,1.08-1.23,1.91-1.48.41-.12.82-.23,1.2-.44.1-.06.22-.07.15-.24-.06-.15-.16-.17-.3-.15-1.16.16-2.11.75-2.98,1.5,0,0-.02.02-.03.03-.4.25-.35.86-.93,1.02-.45.13-.82.51-1.21.79-1.18.85-2.52,2.19-3.67,2.91-.66.41-1.31.79-1.98,1.2-1.48.89-5.13,1.35-6.79,1.25-.68-.04-4.21-.4-3.67-.62,1.05-.42,2.27-.34,3.39-.58.49-.1,1.72-.39,2.11-.7.07-.05.16-.16.1-.26-.07-.11-.19-.06-.27,0-.56.41-1.25.43-1.87.65-.83.29-1.72.2-2.58.4-.95.21-.61.13-.21-.18.6-.45,1.32-.73,1.91-1.19,1.33-1.03,2.6-3.3,4.11-4.37.87-.62,1.89-.91,2.87-1.22,2.18-.69,3.58-.86,5.18-.93,1.6-.08,1.91.19,2.31.2.19,0,.33-.05.31-.23-.02-.18-.21-.21-.37-.23-2.25-.29-5.15.18-7.36.71-.45.11-.74,0-1.08-.25-1.45-1.1-3.09-3.49-3.95-5.13-.38-.72-.72-1.26-.27-.93.7.52,1.26,1.12,1.84,1.72.08.08.24.08.27,0,.04-.14.06-.3-.11-.42-1.68-1.22-2.55-2.07-2.55-2.07,1.27.59,2.65,1.04,4.03,1.18.98.1,1.95,0,2.92-.04,1.21-.06,2.41-.05,3.64.02,1.23.07,1.91.45,2.4.63,1.1.39,3.86,2.04,3.88,3.4,0,.19.1.2.24.2.18,0,.15-.13.17-.24.09-.85-1.07-1.82-1.68-2.26-1.55-1.11-1.84-1.33-3.83-1.87-1.87-.51-1.78-3.81-2.98-4.56-.14-.09-.49-.23-.35-.41.03-.04,2.38,1.07,2.74,1.23,1.14.52,2.15,1.3,3.04,2.16.18.17.37.33.55.49.09.08.18.12.27.03.12-.12-.03-.19-.09-.24-.73-.76-1.52-1.43-2.45-1.94-.46-.25-.9-.54-1.37-.78-.62-.32-2.68-1.02-.1-.59.62.1,1.24.14,1.85.25,2.76.5,4.12,1.33,5.04,4.98.27,1.09,1.16,2.22,1.86,3.13.23.3.85.9,1.6,1.44,1.04.74,2.34,1.19,2.36.88,0-.12-1.52-.59-2.05-.99-1.59-1.21-2.89-2.79-3.36-4.42-.29-1.01-.2-1.8-.6-3.53-.06-.25-.34-2.41-.04-2.4.09,0,.11.84.59,1.5.54.74,2.47,2.43,2.77,2.64.49.33,1.98,1.98,2.13,2.44.03.08.12.13.21.09.08-.03.11-.12.08-.19-.08-.16-.13-.32-.25-.48-1.21-1.54-2.58-2.54-3.92-3.93-.37-.39-.77-.73-1.04-1.21-.15-.28-.11-.57.21-.18.99,1.22,4.14,2.14,5.55,2.65,1.3.47,2,1.68,2.04,3.02,0,.14-.12.44.06.45.27.02.31-.31.34-.57.14-1.25-.88-2.01-1.41-3.03-.25-.47-.37-.96-.43-1.46-.06-.51-.26-3.17-.14-2.7.04.14,1.92,4.22,2.46,3.32.05-.09,0-.16-.06-.19-.76-.42-2.4-3.13-1.78-2.68.74.54,1.52.86,2.34,1.1,1.66.48,2.32-.36,4.14.58,1.42.74,1.57,2.2,2,2.15,3.46-.38,5.21,3.75,6.42,3.72.95-.02,1.89.02,2.84-.01,13.87-.57,25.07,15.43,27.18,27.97.89,5.32,1.19,7.46.3,12.18-.34,1.79-.89.52-2.67.18-.94-.18-1.88-.19-2.82-.23-1.05-.05-1.57.16-2.57.21-.93.05-3.7,1.04-4.62,1.45-1.08.48-2.1,1.05-3.14,1.6-.69.37-1.39.74-2.07,1.12-.42.23-.85.48-1.25.76-2.12,1.52-5.07,4.19-6.61,6.23-.5.66-1.04,1.3-1.56,1.95-.09.11-.26.2-.16.35.26.4,1.56-1.54,2.2-2.31,1.17-1.41,1.53-1.94,2.97-3.18.67-.58,1.87-1.62,2.52-2.07,1.93-1.34,7.24-4.29,9.43-4.8,1.02-.24,2.02-.42,3.09-.35.53.04,1.4.08,2.34.3,1.66.4,3.45,1.19,4.01,2.17,1.65,2.88,1.13,6.1.11,8.82-.08.22-.18.2-.33.09-.77-.54-1.55-1.11-2.47-1.38-.22-.07-.15-.1-.12-.22.18-.75.35-1.5.37-2.26.02-1.03-.25-2-1.09-2.69-.65-.54-1.42-.79-2.25-.96-.69-.14-1.38-.12-2.05-.09-1.68.08-3.28.56-4.83,1.23-.94.41-1.91.84-2.78,1.37-1.7,1.04-3.26,2.26-4.65,3.7-.91.95-2.45,2.55-3.12,3.61-.38.6-.71,1.22-1.03,1.86-1.38,2.78-.92,3.46-.99,3.81-.06.33.2.28.25.07.23-1.04.86-1.89,1.42-2.74,1.15-1.72,4.61-4.35,6.4-5.21,1.82-.87,3.32-1.44,5.35-1.72,2.81-.39,5.9-.12,8.64.62,1.53.41,2.73,1.37,3.88,2.36.71.62,1.78,2.45,1.97,3.36.19.9.53,1.84.58,2.77.12,2.22-.15,3-.84,5.05-1.84,5.48-4.69,6.82-11.18,8.12-1.66.33-3.49.2-5.19.38-1.11.12-2.21.23-3.29.59-1.06.35-3.97,1.54-4.68,2.29-.7.75-1.29,1.87-1.01,3.01.18.75.96,1.8,1.91,2.33,1.6.88,5.15.75,7.03.75,2.38,0,4.46,2.42,4.11,4.8-.27,1.84-1.53,4.58-3.9,5.2-2.65.69-7.44.44-8-3.01-.02-.1-.17-.54,0-.44h0ZM112.46,115.31c1.39-.78,2.67-2.83,2.85-4.35.21-1.8-.4-2.82-2.06-3.66-.9-.46-1.86-.46-2.83-.38-1.44.12-3.56.75-4.84,1.37-1.23.6-2.4,1.9-3.22,3-.04.05-.09.1-.14.11-.09.02-.1-.09-.1-.13-.08-.99-.12-1.64.15-2.63.14-.51.27-1.04.53-1.49,1.74-3.07,2.81-3.74,6.01-4.96,2.25-.86,7.36-.07,9.16,2.08.8.96.97,2.34,1.6,2.98.09.09.18.15.3.06.1-.08.09-.17.03-.27-.2-.34-.29-.72-.43-1.07-.37-.89-.74-1.78-1.52-2.42-2.21-1.83-5.43-2.4-8.29-1.93-.83.14-1.62.4-2.4.72-.88.37-1.67.86-2.44,1.4-2.44,1.68-3.61,5.18-3.13,7.9.06.31.18.72.58.66.07,0,.16-.02.18-.15.17-.93,2.33-2.98,3.28-3.38,1.85-.78,2.71-1.06,4.62-1.27,2-.23,3.12.03,4.25,1.64.99,1.4-.67,4.53-1.84,5.36-1.1.78-2.31,1.43-3.65,1.59-2.09.25-5.5-.96-8.93.01-2.29.65-4.36,2.49-5.45,4.57-.17.32-.27.67-.27,1.04,0,.15.11.24.22.28.1.04.18-.05.17-.15-.06-2.19,3.98-5.07,5.98-5.42,1.58-.27,3.22-.3,4.82-.07,3.13.45,4.22.44,6.82-1.03h0ZM53.09,77.48l.36-.42c.21-.25,1.87-1.32,4.04-1.12.72.07,1.36.36,1.97.62.54.23,1.08.57,1.63.83,1.47.68,2.86.69,4.42.59.12,0,.26-.11.25-.23,0-.11-.13-.26-.27-.21-1.25.44-3.62-.11-4.68-.73-.17-.1-.38-.13-.54-.25-.39-.28-2.06-1.07-2.5-1.09-.68-.03-1.36-.07-2.03.13-.38.11-.76.18-1.14.34-.85.34-1.77,1.1-2.25,1.88-.08.14-.06.43.08.41.31-.04,1.22.79,1.33,1.18.13.47.4.85.63,1.25.66,1.17,3.39,1.94,4.64,1.62,1.18-.3,2.21-.3,3.28-1.22.11-.1.39-.15.28-.32-.07-.11-.33-.02-.48.09-.02.01-.04.03-.06.05-.73.62-2.23.92-3.18.99-.86.06-1.72,0-2.53-.42-.77-.39-1.47-.79-1.84-1.59-.03-.06-.03-.12.02-.17.01-.01.47.28.54.32,1.23.7,1.72.63,3.1.27.55-.14.94-.6,1.05-1.18.03-.13.14-.37.37-.22.39.24.81.4,1.24.54,1.31.42,2.34.52,3.51.35.15-.02.19-.04.2-.17.02-.18-.11-.18-.22-.17-.8.13-1.39.08-2.24-.08-1.77-.33-1.86-.67-2.6-1.02-.76-.36-1.48-.8-2.31-1.01-.78-.21-1.57-.24-2.37-.19-.55.03-1.72.36-1.72.36h0ZM53.04,74.99c.35-.06,3.87-1.05,4.59-1.22.88-.21,1.72-.23,2.61-.12.57.07,2.52.93,3.15,1.25.85.43,1.65.61,2.54.76.11.02.24.02.25-.14.01-.17-.11-.16-.22-.16-.29,0-.55-.15-.83-.22-1.29-.31-2.99-1.71-4.77-2.04-.92-.17-1.84-.12-2.73.08-1.99.43-4.86,1.8-6.97,1.23-.09-.02-.25-.07-.3.02-.07.14.03.31.08.45.11.32,1.55.28,2.6.11h0ZM58.9,46.43c-.14-.03-.29-.03-.3.13,0,.28.68.22.91.23.68.02,1.36-.08,2.04-.14.62-.05,2.99-.04,3.49.24.31.17.63.32.94.5.1.06.16.05.23-.03.07-.08.05-.13,0-.23-.07-.12-.17-.18-.28-.22-.46-.16-.92-.34-1.39-.46-.74-.2-1.47-.25-2.25-.2-.81.05-2.71.34-3.39.19h0ZM121.21,84.6c-.16.94-.39,1.09-.52,1.67-.02.09-.14.2-.02.26.12.06.3.08.38-.07.44-.93.55-1.45.63-2.48.13-1.54.26-2-.07-3.79-.02-.1-.13-.12-.2-.14-.1-.02-.1.1-.1.17.18,1.63.15,2.85-.1,4.38h0ZM57.13,58.64h0s.12-.06.2-.08c1.01-.23,2.53-1.07,3.47-1.54.73-.37,1.4-.86,2.09-1.31.26-.17.46-.42.74-.56.09-.05.16-.18.13-.3-.02-.1-.12-.13-.21-.15-.02,0-1.5,1.19-1.7,1.32-.76.49-1.55.94-2.36,1.35-.74.37-1.69.7-2.48.96-.09.03-.15.09-.15.19,0,.14.12.09.25.12h0ZM120.05,78.67h0c0-.16,0-.33-.19-.43-.15-.08-.25.02-.33.1-.17.17,0,.3.09.43.05.08.05.17.08.24.47,1.11.17,3.57.03,4.78-.02.16.04.28.14.35.07.05.21.06.29.02.11-.06.12-.22.13-.32.13-1.72.16-3.52-.24-5.17h0ZM74.68,49.18h0c-.09-.33-1.39-1-1.98-1.81-.99-1.36-1.46-2.94-1.7-2.64-.06.07-.05.15.01.26.15.27.23.57.36.85.36.81.96,1.48,1.49,2.17.34.44,1.68,1.43,1.75,1.41.09-.03.06-.13.07-.24h0ZM62.3,47.2c-.19,0-.39-.01-.38.26.01.31.22.18.38.17,1.3-.13,1.43.18,2.46.27.14.01.32.14.37-.07.03-.14-.12-.23-.27-.25-.56-.07-1.02-.45-1.63-.41-.37.02-.57.03-.93.03h0ZM120.42,75.76c-.09.04-.09.09-.04.17.15.26.19.54.25.84.11.56.35,1.09.38,1.68,0,.1.03.17.15.17.11,0,.15-.04.18-.16.11-.34.03-.66-.07-.99-.44-1.35-.1-2.05-.85-1.72h0ZM81.3,41.7c.38,0,.74-.03,1.12.11.43.16.8.38,1.11.71.12.13.31.14.4.03.09-.12-.06-.22-.16-.3-.08-.06-.16-.13-.24-.17-.38-.18-.68-.48-1.1-.58-1.31-.32-2.37.24-1.13.21h0ZM74.58,47.9h0c.07,0,.17.02.2-.06.04-.11-.05-.18-.13-.24-.44-.37-.92-.7-1.28-1.17-.2-.26-.26-.58-.46-.83-.07-.08-.11-.17-.23-.15-.08.01-.14.07-.15.15-.05.4,1.45,1.88,1.8,2.22.07.07.15.09.25.08h0ZM61.38,55.16h0c-.39.07-.68.32-.98.53-.41.29-.58.32-1.1.48-.29.09-.12.28-.09.39.04.17.17.03.27.01.69-.17,1.2-.74,1.81-1.08.07-.04.12-.16.1-.33h0ZM118.63,80.88h0c.04-.22.08-.46-.23-.57-.14-.05-.28-.03-.24.14.1.44.11.88.13,1.33.01.19.14.19.23.23.33.14.45,0,.26-.32-.14-.25-.17-.52-.16-.81h0ZM62.39,48.9h0c-.09.04-.2.08-.28.14-.04.03-.02.14.05.16.38.12.7.37,1.12.38.1,0,.17-.05.19-.15.02-.08,0-.17-.08-.2-.33-.12-.66-.23-1-.34h0ZM60.02,48.96s0-.07-.02-.1c-.08-.18-.84-.55-1.04-.5-.13.03-.16.16-.16.26,0,.11.05.13.18.14.29.03.6.04.85.22.08.06.14.09.18-.03h0ZM61.33,49.23h0c.09.05.21.03.27-.13.03-.07,0-.15-.06-.16-.31-.03-.62-.17-.95-.06-.08.03-.18.04-.16.16.02.11.11.22.2.19.22-.06.43.03.69,0h0ZM63.85,48.04c-.16-.07-.29,0-.42.04-.03,0-.04.12-.03.17.05.22.66.39.84.24.26-.21-.26-.4-.39-.46h0ZM81.76,42.51c.05.15.7.37.85.3.17-.08.07-.18,0-.26-.03-.03-1.06-.61-.85-.04h0ZM56.93,47.78c-.08-.03-.16.08-.19.16-.06.14.09.13.15.16.34.18,1.72.3.04-.32h0ZM121.29,79.07c-.3.1.04.37-.05.56-.05.11.04.19.15.21.1.02.13-.05.14-.12.03-.22.09-.76-.25-.65h0ZM56.25,47.47c-.07-.26-.36-.2-.53-.32-.06-.05-.22.13-.2.17.1.2.31.24.52.29.17.04.13-.08.2-.14h0ZM117.18,80.99h0c-.02-.11.04-.24-.15-.26-.21-.02-.29.09-.31.25-.01.13.03.28.22.29.21,0,.18-.17.24-.28h0ZM60.37,54.7c-.13.02-.22.13-.27.25-.03.08,0,.15.07.2.07.05.17.07.2,0,.01-.03.69-.54-.01-.44Z"/>
      <path class="cls-1" d="M105.47,140.54c-1.35,3.22-3.8,5.19-6.77,6.57-.03.02-.11-.03-.09-.07.14-.32.35-.6.52-.9.41-.7.65-2.25.36-2.98-.46-1.16-1.96-2.16-3-2.83-1.43-.92-2.44-2.52-2.07-4.28.21-1,1.54-2.45,2.4-2.97.32-.19.57-.3.91-.14.45.21.95.27,1.44.32,1.74.18,3.46-.13,5.2-.26.9-.07,2.44.06,2.82,1.03.25.64-.01,1.13-.48,1.8-.72,1.03-2.76,1.41-4.56,1.13-1.52-.24-2.34-1.41-2.35-1.41-.23.07-.31.86-.3.96.33,2.57,3.2,3.92,5.97,4.02Z"/>
      <path class="cls-1" d="M97,106.16c.05-.86.91-2.34,1.37-3.14,1.77-3.08,5.92-6.71,9.12-8.44.98-.53,1.99-.96,3.03-1.34,1.73-.63,4.72-1.04,6.45-.23.38.18.74.39,1.08.66,1.07.86.66,2.94.39,4.09-.13.58-3.43-1.12-9.42.1-2.36.48-3.75.93-5.73,2.14-4.92,3.02-6.3,6.19-6.29,6.17Z"/>
      <path class="cls-1" d="M103.9,129.24c-.76,0-1.47-.09-2.09-.36-1.61-.71-2.17-1.25-2.47-2.24-.47-1.53.81-2.68,1.99-3.37,1.63-.95,3.88-1.79,5.74-1.98,1.25-.13,3.69-.04,4.8-.27,1.4-.29,2.61-.39,4.04-.81,3.58-1.05,6.68-2.49,7.96-6.31.02-.07.11-.35.15-.23.83,2.58-3.19,8.23-8.92,8.95-1.56.2-8.74.56-10.29,1.49-1.52.92-2.36,3.13-1.34,4.78.09.14.69.34.43.35Z"/>
      <path class="cls-1" d="M115.76,87.97c-.21-.11,6.18-1.29,9.46,3.8.92,1.42.94,4.16.78,5.76-.08.81-.36,1.97-.54,2.78-.08.38-.72,2.39-1.11,2.44-.14.02-.15-.11-.2-.19-.79-1.18-1.11-1.4-1.96-2.33-.05-.05-.15-.04-.08-.15,1.41-2.4,1.65-7.84-.54-10.07-1.14-1.15-4.17-1.96-5.81-2.04Z"/>
      <path class="cls-1" d="M121.43,119.95c.12-.12-.04.21-.1.3-.57.84-.08,1.67.63,2.21,1.84,1.4-1.14,3.62-2.34,4.37-1.17.73-.29,1.45-.49,2.36-.08.36-1.33,2.2-1.75,2.18-.38-.02.33-.92-.49-1.85-.77-.87-1.23-2.19-.05-2.93.46-.29.97-.5,1.35-.91.54-.59.57-2.16-.62-2.07-1.1.08-1.03-.97-.67-1.06,2.17-.54,3.4-1.47,4.54-2.6Z"/>
      <path class="cls-1" d="M53.67,77.86c2.12-.81,3.03-.18,4.99.59.25.1.14.45.09.65-.22.87-1.64,1.08-2.35.98-1.94-.27-2.9-2.15-2.73-2.21Z"/>
    </g>
    <g>
      <path class="cls-3" d="M80.05,60.57c.06-.29.39-.24.67-.32.91-.27,1.06-.38.94-.65-.1-.22-1.07.22-1.31.27-.56.11-.68.23-.68-.31,0-.32-.21-.56-.23-.86-.02-.4.24-.65.63-.76.61-.17,1.03-.38,1.41-.81.13-.15.18-.31.07-.45-.17-.21-.31.05-.35.13-.15.21-.42.32-.58.32-.63.02-.99.49-1.47.77-.24.14-.5.21-.75.26-.4.08-.57-.09-.5-.51.12-.66.34-1.32.42-1.98.12-.95.56-1.85.41-2.83-.04-.26-.02-.53-.45-.45-.2.04-2.06.13-2.02-.09.38-2.25-.14-2.08.76-5.06.87-2.88,5.5-5.32,8.37-5.78,1.88-.3,5.48.07,5.5,2.55.01,1.15,0,2.3,0,3.45,0,.28-.02.56,0,.84.04.44-.02.8-.49.99-.56.22-.44,1.16-.02.71.14-.16.35-.87.51-.57.26.5.13,1.02-.26,1.43-.1.1-.35,1.25-.03,1.28.36.04.29.35.27.5-.06.38-.05,2.26-.05,2.26-.42.1-.55-.79-1.01-.45-.32.22.34.78.69.87.31.08.32.24.32.49,0,.81,0,1.62,0,2.43-.02,3.54-.11,7.07-.13,10.61-.01,2.16-.16,4.59-.08,6.67.02.47-.04.93.04,1.4.03.17-.06.4-.32.34-.41-.09-1.59.1-1.64.06-.49-.31-1.02-.58-1.38-1.06-.15-.2-.28-.13-.43-.05-.13.08-.23.15-.1.36.22.37.63.5.89.81.77.92,1.89.2,2.57.33.31.05.46.16.41.44-.24,1.32-.09,3.76-.14,5.2,0,.18-.11.2-.23.17-.67-.15-2.69.12-3.38.32-.17.05-.31.15-.21.36.08.18.21.18.4.11.93-.31,1.94-.24,2.91-.24.45,0,.52.08.51.54-.09,2.7-.08,5.54-.08,8.25,0,1.32,0,2.64,0,3.95,0,.4-.37.58-.54.88-.43.75-1.24,2.15-1.4,3.01-.28,1.58-2.34,4.47-4.37,5.15-.94.31-2.06.8-3.42.59-1-.15-2.42.17-3.18-.64-1.08-1.16-1.85-3.61-2.27-5.16-.38-1.42-1.16-3.95-2.45-4.75-.51-.31-1.03-.62-1.6-.81-.2-.07-.3-.12-.2-.36.79-1.87,1.1-3.49,2.03-5.39.23-.48.77-1.31,1.08-1.83.24-.4.65-.44,1.05-.45.59-.01,1.15-.14,1.73-.3.85-.24,1.71-.38,2.47-.8.49-.27.99-.54,1.47-.81.06-.03.11-.04.17-.05.06,0,.11,0,.17,0,.18,0,.33-.05.47-.13.05-.03.13-.07.11-.14-.03-.09-.12-.04-.17-.06-.7-.26-1.29-.04-1.79.4-.68.58-2.14.93-3.07,1.18-.63.17-1.27.27-1.91.06-.5-.16-.66-.46-.51-.96.34-1.13.76-3.05.71-4.23-.03-.62-.32-1.15-.39-1.76-.03-.21.34,0,.48.06,1.71.61,2.38-.19,4.02-.2,1.75-.01,3.88.18,5.01-1.38.18-.25.34-.55.7-.64.15-.04.07-.2.06-.31,0-.09-.07-.11-.19-.09-.55.06-1.24,1.18-2.32,1.62-1.02.42-2.48.01-3.49.28-.47.13-2.22.5-2.65.41-.7-.15-1.47-.1-2.05-.64-.24-.22-.28-.55-.36-.84-.1-.34-.8-1.91-.98-2.14-.16-.2-.33-.26-.51-.11-.16.14-.07.27.05.46.32.5.64,1,.81,1.58.43,1.51,1.42,1.96,1.36,3.57-.05,1.26-.11,2.54-.56,3.76-.19.51-.41,1.08-.02,1.63.14.2.04.37-.09.55-.29.41-.59.82-.81,1.25-1.09,2.02-2.26,6.22-3.1,7.75-.11.2-.32.26-.44.08-.85-1.29-1.73-.8-2.55-1.87-.18-.23-.35-.41-.36-.74-.03-1.42.29-3.2.35-4.65.1-2.57-.46-4.21-.05-6.94.31-2.05,1.2-5.95,1.93-7.65.47-1.09.87-1.5.99-2.64.14-1.39.79-3.4,1.98-4.26.47-.34.96-.7,1.52-.91,1.27-.49,2.9-.39,4.3-1,.84-.36,1.74-.59,2.47-1.15.81-.62,1.81-.5,2.7-.81.33-.12.68-.16,1-.32.59-.29.89-.23,1.26.34.46.7,1.17.87,1.91,1.01.03,0,.08.03.08-.02,0-.05,0-.12-.03-.14-.12-.09-.24-.21-.38-.25-.55-.17-.81-.65-1.11-1.06-.11-.14-.58-.34-.38-.43.95-.43,1.81-.8,2.61-1.34.68-.47,1.39-.91,2.03-1.45.14-.12.34-.17.52-.23.19-.07.29-.23.23-.37-.07-.17-.24-.1-.4-.04-.61.22-1.11.57-1.62.98-.59.47-1.21.95-1.9,1.3-1.14.57-2.58,1.21-4.03,1.61-.46.12-2.59.63-2.41-.42.05-.31.05-.62.03-.93-.03-.38.05-.72.48-.75.1,0,.31-.01.28-.16-.03-.14-.22-.12-.37-.08-.2.05-.59.09-.54-.14h0ZM80.34,52.34c.03.32.59.27.94.18.45-.12,1.26-.24,1.73-.23.2,0,1.71-.5,1.92-.65.12-.09.09-.14.06-.24-.04-.11-.13-.23-.21-.17-.08.06-1.52.58-1.66.56-.32-.04-2.8.29-2.78.54Z"/>
      <path class="cls-3" d="M77.49,106.55c-.93.74-1.48,1.49-2.2,2.4-.13.17-.22.38-.07.56.14.18.32.11.51,0,.24-.14.5-.24.77-.32.21-.06.41.03.27.28-.39.71-.68,1.46-.91,2.55-.03.14-.05.28.07.37.43.34,1.51-.9,1.51-.45,0,.18-.92,1.5-.98,2.4-.04.63-.21,1.29.19,1.5.16.09.23,0,.3-.17.09-.24.44-.4.58-.68.23-.45.6,1.23.54,1.45-.32,1,1.24,1.06.76,2.64-.02.06-.04.12-.06.18-.08.19.18.71.54.29.16-.18.45-.75.55-.5.06.15-.49,2.57-.58,2.95-.46,1.88-.22,6.16.02,8.34.14,1.3.46,1.98.56,3.24.06.72.24,1.4.82,1.89.15.13-.08,1.9-.02,2.33.07.56.34.98.69,1.37.74.82,1.37,5.84,1.41,6.83.11,2.79.16,4.31-.5,7.12-.16.7-.38,1.38-.59,2.07-.36,1.13-2.27,7.2-2.25,8.11.04,1.47-.25,3.52,1.01,4.59.45.38.53,1.01.48,1.6-.03.32-.04.67-.44.82-.16.06-.36.18-.2.33.33.32.54.02.79-.23.16-.16.09-.49.28-.8.08-.12.15-.1.33.08.69.64,1.54,1.63.88,2.59-.52.76-2.43,1.37-3.33,1.63-.49.14-.99.2-1.49.31-1.7.39-2.39,1.34-3.65,2.29-.66.5-1.35.91-2.17,1.09-.42.09-.73.16-1.15.28-.74.22-.86.75-1.17.94-.52.32-.92.7-1.59.68-.29,0-.55-.37-.63-.56-.06-.15.1-.34.3-.43.43-.18.57-.63.84-.96.23-.28-.31-.05-.53.3-.22.35-.21.34-.57.45-.98.31-1.09-1.02-.14-1.04.1,0,.32-.27.52-.47.24-.23.29-.23.27-.29-.06-.31-.34-.31-.59.2-.18.37-.44.4-.83.35-.25-.04-.32-.33-.3-.45.05-.26.36-.36.59-.45.14-.05.64-.53.64-.66,0-.19-.13-.05-.28.02-.14.07-.28.06-.37.21-.13.22-.28.23-.51.25-.21.02-.31-.24-.32-.38-.01-.25.17-.45.35-.45.26,0,.41-.06.6-.14.11-.05.31-.2.15-.4-.11-.13-.28.15-.42.21-.23.1-.58.27-.68-.08-.04-.12.04-.46.21-.51.9-.23,1.57-.79,2.36-1.23,1-.56,3.44-2.25,4.23-3.07.42-.44.87-.86,1.12-1.48.48-1.18.4-1.31.67-2.66.38-1.87-.06-4.57-.19-6.64-.2-3.26-.96-8.05-1.66-11.23-.16-.73-.37-1.46-.59-2.17-.3-.97-.59-2.03-.42-3.02.02-.15.41-.08.5-.07.42.07,1-.23,1.23-.49.15-.17.29-.36.42-.55.05-.07.07-.17-.02-.23-.07-.04-.16,0-.2.07-.05.11-.12.2-.2.29-.51.62-1.49.37-2.08.21-1.21-.32-1.9-5.28-2.11-6.3-.41-2.03-1.7-4.03-2.08-6-.4-2.04-.75-4.08-1.03-6.14-.26-1.95-.22-3.46-.26-5.35-.17-8.49.14-11.23,3.52-19.39.28-.68.53-1.38.69-2.1.08-.35.25-.67.37-1.01.06-.16.13-.22.34-.17,1.15.3,2.09.94,2.67,1.96.89,1.56,1.1,3.34,1.78,4.97.44,1.07.61,2.22,1.27,3.16.23.34,1.07.75.85.93Z"/>
      <path class="cls-3" d="M92.52,95.44c-.25-.13-.08-9.8-.06-10.83,0-.26.08-.34.33-.32.56.07,1.14,0,1.65.35.24.17.58-.03.51-.23-.24-.65-1.05-.45-1.61-.59-.12-.03-.26,0-.39,0-.31-.03-.51-.12-.49-.52.03-.53.05-1.06.07-1.59.04-1.1.04-2.19.02-3.29,0-.24.07-.47,0-.72-.04-.14-.11-.39.07-.49,1.17-.65,1.96-.82,3.16-1.37.45-.21,2.04-1.42,2.07-1.96.02-.31.29-1.3.05-1.34-.15-.02-.18.16-.24.26-.04.06-.05.14-.05.22,0,.96-.74,1.41-1.35,1.92-.92.76-2.42,1.09-3.45,1.6-.13.06-.23.14-.23-.12-.05-1.74.09-3.55.05-5.3-.08-3.63.21-7.32.03-10.95-.03-.64.13-1.3.11-1.95,0-.05.08-.18.11-.09.26.59.37,1.25.51,1.89.37,1.64.55,2.15,1.29,2.89.1.1.22,0,.31-.06.12-.08,0-.18-.04-.23-.66-.73-.57-1.03-.96-2.16-.21-.61-.29-1.28-.52-1.87-.28-.7-.77-4.05-.69-4.77.08-.7.02-1.43.02-2.15,0-1.73.09-3.45.06-5.18-.01-.58.31-.99.42-1.49,0-.02.03-.05.03-.07.07-.98.63-2.67.72-3.81.11-1.4.33-3.71.57-5.11.27-1.61.34-4.19.11-5.76-.16-1.12-.19-1.75-.78-2.67-.43-.67-.76-1.43-1.39-1.96-1.76-1.47-2.87-1.81-4.4-2.91-.58-.42-.69-1.24-.22-1.75.22-.24.45-.48.59-.76.25-.47.11-.95-.1-1.4-.14-.3-.1-.54.12-.73.53-.46.74-1.03.65-1.71-.08-.6.58-1.39.95-1.6.1-.06.21-.1.31-.14.17-.07.38-.1.57-.08.43.04.08.31.09.44,0,.11.14,1.11.16,1.12.66.33,1.06.99,1.7,1.34.05.02,1.51.28,1.66.3.11.02.27.08.32-.04.06-.14-.09-.24-.2-.28-.41-.15-.76-.42-1.19-.51-.18-.04-.22-.11-.2-.29.04-.57.05-1.14.06-1.71,0-.11-.17-.41-.04-.36.25.1.45.24.62.46.51.64,1.17,1.09,1.9,1.46.73.37,1.26.96,1.72,1.6.11.16.26.29.34.5.18.48.05.93-.01,1.4-.1.84-.37,4.3-.2,5.03.07.31.15.62.25.92.58,1.87,1.03,3.61,1.33,5.57.37,2.44.98,4.71,1.32,7.15.15,1.04.17,3.53.23,4.77.07,1.52.03,2.73-.02,4.24-.03.96.09,1.86,0,2.82,0,.07,1.05,2.36,1.24,2.82.26.65.44,1.34.64,2.01.36,1.16.82,2.61.99,3.79.4,2.73.93,5.36.81,8.16-.1,2.28-.36,3.84-.96,6.05-.64,2.39-1.5,4.52-2.18,6.8-.24.8-.81,1.45-.97,2.28-.39,2.08-1.06,3.76-1.91,5.63-.44.97-1.08,1.82-1.56,2.76-.23.44-.35.87-.43,1.33-.03.19-1.87,1.38-2.26,1.7-.21.17-1.7,1.7-1.73,1.68Z"/>
      <path class="cls-3" d="M84.01,112.84c.4-.15.57,1.81.96.64.2-.61.51-2.59.74-3.42.07-.27-.02-.65.2-.24.1.17.23.8.31.93.29.48.42.33.48-.12.07-.55-.17-2.06-.43-2.78-.26-.72-.66-1.11-.97-1.56-.31-.45-.36-.38.12-.62,1.69-.86,3.36-3.9,3.7-5.77.08-.42.94-1.56,1.07-1.83.13-.27.01-.12.13-.1.12.02-.01-.34.03.17.04.5-.03,1.86,0,2.86.03.99.01,2.09-.01,3.1-.02,1.02-.03,1.76-.04,2.99-.01,1.96-.08,3.96-.08,5.91,0,4.31.05,8.76-.05,13.06-.05,2.13-.03,4.27-.07,6.4-.04,2.3,0,4.62-.08,6.91-.11,3.48-.05,6.97-.08,10.46-.01,1.3-.02.89,0,1.1.02.22,0,.14-.07.16-.08.02,0,.17-.16-.07-.51-.75-1.05-1.56-1.65-2.25-1.99-2.31-3.7-3.91-4.52-7.05-.16-.62-.16-.92-.28-1.12-.12-.2-.06-.22.17-.2.23.02.57,0,.78-.03.2-.02.37-.06.33-.24-.05-.17-.06-.23-.44-.24-.44,0-1.72-.02-1.84-.41-.18-.58-1.07-.63-1.19-1.68-.06-.56-.04-1.68.17-2.27.21-.59-.09-.55-.35-.59-.35-.06-.52-.85-.55-1.2-.08-1.07-.51-2.02-.63-3.29-.36-3.58-.27-6.06.13-9.61.1-.89.52-1.81.61-2.43.09-.61,1.1-1.35,1.4-2.22.16-.46.28-.36.52-.1.24.26.36.22.47-.03.08-.2.45-.78.67-1.44.29-.83.44-1.74.49-1.76Z"/>
      <path class="cls-3" d="M92.1,137.88c.91.49,1.49,1.28,1.9,2.15.6,1.26,1.12,2.54,1.47,3.9.25.97.53,1.92.72,2.91.24,1.21.88,3.57,1.29,4.69.23.61.31,1.29.6,1.89.21.42.36.87.66,1.24.06.08.14.14.24.19.55.23.78.69.89,1.23.06.28-.14.48-.22.71-.07.22-.08.44-.12.67-.04.21.14.31.29.28.15-.03.08-.27.04-.39-.08-.21.06-.35.18-.46.37-.36.49-.82.27-1.31-.12-.27-.01-.3.2-.28.3.04.61.08.9.16.71.22.94,1.43.87,2.07-.14,1.31-.3,4.11.06,5.31.42,1.39,1.01,3.04.86,4.51-.08.73-.17,1.48-.62,2.08-.24.32-.28.57-.21.95.06.32.19,1.24.12,1.57-.03.14-.44.47-.61.47-.22,0-.33-.34-.33-.49,0-.17.03-.93-.1-.85-.18.11-.24.33-.18.64.03.14.13,1.11-.53,1.18-.36.04-.5-.63-.48-.69.09-.38-.12-.91-.29-.48-.06.15,0,.79.03.95.06.31-.08.7-.53.82-.31.08-.47-.1-.58-.28-.2-.34-.15-.93-.25-.97-.13-.04-.16.07-.21.17-.13.26.12.98,0,1.25-.17.39-.66.44-.97.41-.4-.04-.3-.96-.23-1.14.06-.15-.03-.71-.16-.65-.25.1-.04.9-.28,1.34-.16.29-.34.44-.59.62-.44.31-1.11-.1-1.18-.26-.21-.44.17-.94.3-1.11.26-.34.22-.76.25-1.15.01-.18.11-.28.16-.41.23-.5.13-1.02.17-1.53.05-.75.07-1.98-.09-2.71-.24-1.08.22-4.69.3-6.02.06-.96-1.22-2.51-1.6-3.25-.35-.68-2.28-4.14-2.43-4.33-.21-.25-.09-.56-.07-.8.07-.76,0-1.51.02-2.27.01-.64-.03-1.29-.02-1.93.01-.85-.02-1.71.02-2.56.06-1.18,0-2.37.03-3.55.03-1.41,0-2.82,0-4.23,0-.07-.08-.31.01-.26Z"/>
      <path class="cls-3" d="M91.52,25.48c.39.05.59.5.88.75.28.24.28,2.38.26,2.79-.14,3.06,0,6.13-.14,9.16-.06,1.32,0,2.65-.03,3.98-.07,2.56.03,5.1-.01,7.65-.04,2.94-.19,5.98-.14,8.91.02,1.46-.12,2.84-.05,4.3.04.88,0,1.75-.02,2.63-.02.77-.03,1.55,0,2.32.02.96-.08,1.91,0,2.87.05.57.01,1.16,0,1.74-.02.97-.09,1.95-.08,2.93.02,2.49-.06,4.93-.09,7.42-.01.96.02,1.95.02,2.92,0,1.96-.05,3.94-.05,5.9,0,.81.04,1.62,0,2.42-.06,1.25-.05,2.5-.08,3.75-.02.87,0,1.75-.03,2.63-.02.9-.05,1.8-.04,2.71.02,1.95-.04,4.1-.11,6.06-.06,1.66.02,3.38-.03,5.06-.06,2.27.03,4.57-.01,6.84-.04,2.05-.12,4.62.03,6.65.14,1.92-.01,4.02-.02,5.97,0,1.01,0,2.03,0,3.04,0,1.42-.08,2.83-.05,4.25.03,1.44-.04,2.89-.04,4.34,0,1.32-.03,2.63-.04,3.95-.01,2.22,0,4.44-.03,6.66-.02,1.48-.03,2.97-.08,4.45-.06,1.68-.08,3.37-.08,5.05,0,1.13-.01,2.25-.02,3.38-.02,2.74.01,6.03-.13,8.67-.02.33-.07.46-.43.44-.72-.03-.72,0-.72-.73,0-1.85.12-3.86.05-5.67-.04-.87,0-1.73.05-2.59.03-.54,0-1.07.03-1.61.05-1.24,0-2.49.02-3.74.02-1.83-.01-3.72.02-5.53.02-.75.04-1.5.05-2.25.01-1.02,0-2.05,0-3.07.01-2.19-.08-4.54.01-6.69.1-2.31.02-4.63.08-6.94.04-1.5.08-3,.09-4.49,0-1.12.02-2.24.04-3.36.02-1.21,0-2.43,0-3.65,0-1.04.05-2.09.03-3.13-.06-2.81-.08-5.75-.02-8.56.05-2.36.04-4.75.1-7.11.03-1.11.02-2.22.05-3.33.03-1.03-.01-2.06.02-3.09.05-1.41.05-2.83.06-4.24,0-.83.02-1.66.03-2.49.01-1.14.06-2.28.04-3.42-.01-.85-.02-1.69-.03-2.54-.01-.91-.04-1.82,0-2.72.06-1.22.01-2.43.03-3.64.01-1.42.1-2.84.08-4.26-.05-3.81,0-8.06.12-11.85.03-1.01.05-2.01.08-3.02.05-1.68.05-3.56.03-5.24,0-.69-.05-1.38-.04-2.07,0-.78.02-1.57,0-2.35-.03-2.12.15-5.09.1-7.55-.03-1.44.05-5.32.06-6.98.02-2.26.06-4.52.03-6.78-.02-1.8.08-3.66.09-5.49,0-.66-.05-1.34.11-1.99.04-.15-.31-.44-.05-.41Z"/>
      <path class="cls-3" d="M92.25,135.26c-.16.11-.09-.26-.09-.38,0-1.42-.01-2.84,0-4.26,0-.85-.04-1.71-.03-2.56.02-1.07,0-2.14.02-3.2.01-1.38.01-2.76,0-4.15-.03-2.53-.06-5.09,0-7.61.03-.94-.02-1.89.02-2.83.2-4.55.04-9,.22-13.45.01-.26.01-.54.07-.8.06-.27.35-.39.54-.58.6-.59,1.24-1.14,1.9-1.67.44-.35,1.02-.72,1.51-.99.28-.16.24.11.24.43.03,1.38-.5,3.17-.84,4.5-.24.95-.08,1.85.03,2.74.18,1.56.7,3.52.98,5.11.19,1.05.3,2.11.28,3.16-.02,1.29-.15,2.52-.55,3.75-.19.57-.4,1.14-.68,1.68-.87,1.66-2.06,2.77-1.74,4.52.39,2.17,0,7-.36,9.12-.12.7-.27,1.41-.41,2.11-.12.6-.36,1.83-.43,2.4-.02.19-.67,2.93-.71,2.96Z"/>
      <path class="cls-3" d="M77.32,113.15c.18-.55.57-.99.82-1.51.12-.25.04-.46-.23-.42-.41.07-.82.14-1.17.38-.07.05-.15.09-.21.04-.07-.05.2-.94.24-1.04.16-.38.83-1.56.73-1.73-.06-.1-.09-.2-.26-.21-.41-.01-1.35.48-1.23.07.17-.6,1.19-1.54,1.95-2.16.17-.14.45-.07.6,0,.98.44,2.86-.36,2.42.85-.34.94-.65,1.89-.74,2.89-.06.7,0,1.05-.11,1.93-.15,1.22-.6,1.86-.36,3.32.04.24.21.14.33.15.19,0,.15-.15.13-.25-.03-.24-.19-.42-.22-.68-.06-.56.09-1.07.23-1.58.36-1.41.15-3.14.67-4.43.13-.31.24-.63.26-.97.01-.28.25-.48.26-.77,0,0,.24-.05.36-.07.9-.17,1.78-.39,2.61-.8.19-.1.38-.02.5.17.56.91,1.36,2.01,1.43,3.12.07,1.13-.09.27-.46-.34-.15-.25-.48-.21-.47.29,0,.52-.09.78-.19,1.26-.05.21-.37,2.24-.52,2.25-.09,0-.14-.06-.16-.14-.03-.16-.36-.92-.59-.86-.15.04-.18.17-.19.29-.08.71-.35,1.37-.55,2.04-.05.16-.4,1.14-.59,1.07-.09-.03-.1-.1-.09-.22.04-.27-.22-.41-.4-.41-.16,0-.35.17-.33.42.03.37-.67,1.66-.97,1.91-.45.39-.69.91-1.07,1.34-.08.09-.13.27-.29.24-.17-.03-.05-.2-.08-.29-.12-.48-.22-.95-.73-1.21-.58-.29,0-3.73-.99-2.66-1.02,1.11-1.06.91-.34-1.29Z"/>
      <path class="cls-3" d="M92.35,12.22c.2.03.37.05.53.09.1.02.12.09.11.21-.04.63-.08,1.26,0,1.9.08.63-.1,1.28,0,1.93.02.16-.15.27-.31.15-.19-.14-.38-.31-.52-.5-.11-.15-.21-.28-.39-.33-.07-.02-.18-.02-.12-.17.18-.53.11-1.06.08-1.61-.02-.35-.04-.71-.02-1.06.02-.37.32-.61.65-.61Z"/>
    </g>
  </g>
</svg>