<?xml version="1.0" encoding="UTF-8"?>
<svg id="Camada_1" data-name="Camada 1" xmlns="http://www.w3.org/2000/svg" viewBox="0 0 400 110">
  <defs>
    <style>
      .cls-1 {
        fill: #034480;
      }
    </style>
  </defs>
  <path class="cls-1" d="M32.46,72.71c-9.15,2.26-15.88,6.19-25.03,10.64L24.58,25.73c18.43-12,37.34-19.81,53.7.46l-17.43,58.05c-7.67-8.1-16.77-13.25-28.39-11.53Z"/>
  <path class="cls-1" d="M154.71,61.4l-4.15,14.02-13.61.26-6.53,21.82c-6.22-.57-13.23,1.18-19.26-.17-16.9-3.78-32.81-8.36-49.53-13.16l52.56-.46,13.04-44.41-47.61-13.08,51.84-.44-3.15,12.92,34.88.1-4.14,14.35-15.23.08-2.41,7.79,13.3.36Z"/>
  <path class="cls-1" d="M177.67,88.8l-11.39.11-4.09,8.62-19.8-.15,32.76-58.51,22.97-.08-1.46,58.69-19.59.06.61-8.73ZM179.73,76.11l1.08-17.4c-3.55,6.44-5.83,11.29-8.72,17.75,2.91.22,5.61.16,7.64-.35Z"/>
  <path class="cls-1" d="M381.53,72.76c-7.19,4.6-14.39,5.57-23.22,5.07l-5.96,19.68-20.23-.09,17.09-58.55,27.91.13c4.74.02,11.93,2.19,13.97,6.75,4.37,9.8-.71,21.35-9.56,27.01ZM371.98,53.01c-.92-1.17-4.82-1.84-6.08-1.18l-3.53,11.86c3.12.47,6.28-.43,8.41-2.46,1.87-1.79,3.04-5.86,1.2-8.22Z"/>
  <path class="cls-1" d="M244.01,74.59c-6.48,3.07-12.98,3.49-20.1,3.46l-5.87,19.47-20.25-.05,17.14-58.64c12.4.92,37.75-4,43,8.52,2.39,11.17-3.23,22.19-13.91,27.25ZM238.29,53.98c-.56-2.08-6.03-3.4-6.74-1.76l-3.53,11.7c3.27-.01,5.76-.56,8.06-2.3,1.68-1.27,2.99-4.68,2.2-7.64Z"/>
  <polygon class="cls-1" points="290.6 74.04 276.72 74.26 274.2 81.81 289.5 82.11 285.06 97.52 249.12 97.47 266.26 38.83 302.2 38.76 298.07 53.17 282.88 53.25 280.59 60.04 294.21 60.41 290.6 74.04"/>
  <path class="cls-1" d="M326.49,91.09c-10.84,8.9-26,9.83-37.9,3.29l4.67-16.43c4.76,3.66,16.09,8.81,18.93,2.27,2.09-4.81-8.03-8.94-11.55-17.53-2.67-6.5,1.13-13.67,6.18-17.92,10.16-8.54,24.03-9.31,36.02-3.79l-4.43,15.18c-5.7-4.42-15.52-6.54-17.05-1.25-1.26,4.36,9.97,8.41,12.62,15.93s-1.44,15.27-7.49,20.24Z"/>
</svg>