<?xml version="1.0" encoding="UTF-8"?>
<svg id="Camada_1" data-name="Camada 1" xmlns="http://www.w3.org/2000/svg" viewBox="0 0 2048 797">
  <defs>
    <style>
      .cls-1 {
        fill: #fcbc5f;
      }

      .cls-2 {
        fill: #fbd295;
      }

      .cls-3 {
        fill: #fbb23e;
      }

      .cls-4 {
        fill: #faa725;
      }

      .cls-5 {
        fill: #fbcf8d;
      }

      .cls-6 {
        fill: #fbce8b;
      }

      .cls-7 {
        fill: #fcce86;
      }

      .cls-8 {
        fill: #feddad;
      }

      .cls-9 {
        fill: #fdc16a;
      }

      .cls-10 {
        fill: #fac776;
      }

      .cls-11 {
        fill: #fcbe62;
      }

      .cls-12 {
        fill: #fdcc83;
      }

      .cls-13 {
        fill: #fbb240;
      }

      .cls-14 {
        fill: #fad18f;
      }

      .cls-15 {
        fill: #fcba58;
      }

      .cls-16 {
        fill: #fdd396;
      }

      .cls-17 {
        fill: #fbd18c;
      }

      .cls-18 {
        fill: #fdd190;
      }

      .cls-19 {
        fill: #faa71f;
      }

      .cls-20 {
        fill: #fdc778;
      }

      .cls-21 {
        fill: #fbdcaf;
      }

      .cls-22 {
        fill: #fcd193;
      }

      .cls-23 {
        fill: #f9a71b;
      }

      .cls-24 {
        fill: #fdc26b;
      }

      .cls-25 {
        fill: #fbb752;
      }

      .cls-26 {
        fill: #fbb343;
      }

      .cls-27 {
        fill: #fcddaf;
      }

      .cls-28 {
        fill: #f9bd5d;
      }

      .cls-29 {
        fill: #fbb54a;
      }

      .cls-30 {
        fill: #fcbc5c;
      }

      .cls-31 {
        fill: #fdc36e;
      }

      .cls-32 {
        fill: #fbb851;
      }

      .cls-33 {
        fill: #fbb340;
      }

      .cls-34 {
        fill: #fbb03a;
      }

      .cls-35 {
        fill: #faa61b;
      }

      .cls-36 {
        fill: #fde1b9;
      }

      .cls-37 {
        fill: #fdc16d;
      }

      .cls-38 {
        fill: #fcbd60;
      }

      .cls-39 {
        fill: #fba92b;
      }

      .cls-40 {
        fill: #f9f7f6;
      }

      .cls-41 {
        fill: #fbb64a;
      }

      .cls-42 {
        fill: #fcb84b;
      }

      .cls-43 {
        fill: #fcbf64;
      }

      .cls-44 {
        fill: #fbb852;
      }

      .cls-45 {
        fill: #fdc87b;
      }

      .cls-46 {
        fill: #fbb342;
      }

      .cls-47 {
        fill: #fbd79f;
      }

      .cls-48 {
        fill: #fdc36d;
      }

      .cls-49 {
        fill: #fcbb5a;
      }

      .cls-50 {
        fill: #fdc572;
      }

      .cls-51 {
        fill: #fbb850;
      }

      .cls-52 {
        fill: #fbb444;
      }

      .cls-53 {
        fill: #fadcad;
      }

      .cls-54 {
        fill: #fba82b;
      }

      .cls-55 {
        fill: #fdce8b;
      }

      .cls-56 {
        fill: #fcc168;
      }

      .cls-57 {
        fill: #fcc066;
      }

      .cls-58 {
        fill: #fbb549;
      }

      .cls-59 {
        fill: #fbb958;
      }

      .cls-60 {
        fill: #fcbe61;
      }

      .cls-61 {
        fill: #fdd9a5;
      }

      .cls-62 {
        fill: #fbb750;
      }

      .cls-63 {
        fill: #fdc575;
      }

      .cls-64 {
        fill: #fbb54e;
      }

      .cls-65 {
        fill: #fcbd5e;
      }

      .cls-66 {
        fill: #f89d10;
      }

      .cls-67 {
        fill: #fcbf66;
      }

      .cls-68 {
        fill: #fdc87a;
      }

      .cls-69 {
        fill: #fdc678;
      }

      .cls-70 {
        fill: #fdc574;
      }

      .cls-71 {
        fill: #fcbb59;
      }

      .cls-72 {
        fill: #fbb348;
      }

      .cls-73 {
        fill: #fdc97f;
      }

      .cls-74 {
        fill: #fdcb82;
      }

      .cls-75 {
        fill: #fad390;
      }

      .cls-76 {
        fill: #fcc169;
      }

      .cls-77 {
        fill: #fcbc5b;
      }

      .cls-78 {
        fill: #fcbc5d;
      }

      .cls-79 {
        fill: #fdcc86;
      }

      .cls-80 {
        fill: #fbb445;
      }

      .cls-81 {
        fill: #faa21d;
      }

      .cls-82 {
        fill: #fbae32;
      }

      .cls-83 {
        fill: #fdc26a;
      }

      .cls-84 {
        fill: #faa829;
      }

      .cls-85 {
        fill: #fcd496;
      }

      .cls-86 {
        fill: #fbb751;
      }

      .cls-87 {
        fill: #fcc067;
      }

      .cls-88 {
        fill: #facf8a;
      }

      .cls-89 {
        fill: #fdd69c;
      }

      .cls-90 {
        fill: #fadcae;
      }

      .cls-91 {
        fill: #faa626;
      }

      .cls-92 {
        fill: #fbb548;
      }

      .cls-93 {
        fill: #fcbd5f;
      }

      .cls-94 {
        fill: #fbd08a;
      }

      .cls-95 {
        fill: #fdc169;
      }

      .cls-96 {
        fill: #fbb140;
      }

      .cls-97 {
        fill: #f9ce89;
      }

      .cls-98 {
        fill: #fbb347;
      }

      .cls-99 {
        fill: #fcd392;
      }

      .cls-100 {
        fill: #facd81;
      }

      .cls-101 {
        fill: #fdc97d;
      }
    </style>
  </defs>
  <g>
    <g>
      <path class="cls-40" d="M1855.05,519.07l.13-118.91c0-5.49,2.38-10.49-.79-15.21-2.81,3.12-3.77,6.56-5.51,10.06l-39.76,80.07c-1.66,3.35-3.28,9.98-7.46,10.4-13.64,1.37-27.03.04-40.6.58-3.29.13-4.94-2.56-6.1-4.99l-7.19-15.01-35.39-71.34c-1.5-3.02-3.54-5.18-5.34-7.76l-.04,132.94c-.84,1.96-2.89,3.1-5.08,3.09l-46.91-.15-.03-236.65c0-2.54,1.71-4.27,4.02-4.25l45.88.34c4.15.03,9.98,15.07,11.91,19.01l16.06,32.85,17.31,35.73,18.01,36.95c4.1,8.41,7.44,16.58,13.03,25.28l48.27-102.46,21.92-47.49,52.58-.18c2.36,0,3.98,1.62,4.03,4.21l-.03,233.6c0,1.85-2.63,3.11-4.29,3.11l-44.41.03c-1.16,0-4.23-2.1-4.23-3.86Z"/>
      <path class="cls-40" d="M1584.43,493.78c-17.48,16.34-42.52,28.27-65.47,30.35l-12.88,1.17c-5.3.48-9.23.39-14.4.18-47-1.93-88.88-25.53-107.05-70.14-12.43-30.51-13.14-69.46-1.84-100.63,6.23-17.17,16.12-32.92,29.55-45.18,25.49-23.27,62.35-32.87,96-30.06,20.37,1.7,39.7,6.6,57.01,17.07,19.7,11.9,34.55,28.39,43.59,49.48,2.24,5.22,4.7,10.29,6.08,15.89,2.1,8.53,4.26,17.16,4.77,26.05l.83,14.16c.55,9.44-2.39,28.62-4.97,38.65-5.24,20.42-15.7,38.51-31.23,53.02ZM1546.18,456.06c19.45-17.47,25.43-45.63,20.58-70.65-4.17-21.52-17.65-38.7-37.75-47.51-8.39-3.68-16.97-5.69-26.29-5.55l-10.95.16c-14.37.22-27.41,4.65-38.89,13.37-4.28,3.25-8.1,6.22-11.3,10.77-10.57,15.04-16.15,34.63-14.19,52.81,1.64,15.3,6.36,29.89,16.74,41.36,5.85,6.47,11.72,11.65,20.01,15.28,26,11.4,60.1,9.67,82.05-10.05Z"/>
    </g>
    <g>
      <path class="cls-40" d="M1278.09,472.9c30.53-3.54,44.94-24.38,48.49-20.5,5.7,6.24,9.61,13.59,14.6,20.41l12.24,16.74c1.38,1.89.41,4.54-1.1,5.81-10.93,9.17-22.83,16.8-36.23,21.69-24.45,8.91-49.9,11.57-75.47,6.43-56.16-11.28-88.23-49.56-95.22-105.89-.9-7.27-.15-14.09-.57-21.46-.45-7.8,1.51-15.39,3.07-23.3,3.65-18.59,11.48-35.81,23.48-50.43,4.25-5.18,9.14-9.46,13.97-14.04,7.47-7.09,16.35-11.87,25.51-16.53,33.46-17.04,75.06-16.64,109.05-1.82,12.11,5.28,22.58,12.18,32.34,20.69,1.61,1.4,1.67,3.4.53,5.02l-24.3,34.6c-.75,1.07-2.54,1.74-3.41,2.18-3.09,1.57-17.51-18.41-48.02-20.42-3.01-.2-6.32-.9-9.14-.77-22.05,1.06-39.61,5.57-54.68,22.99-11.6,13.42-16.03,31.02-15.42,48.53.09,2.69-.68,4.69-.34,7.4,1.92,15.04,6.08,29.55,16.26,40.95,17.22,19.28,39.13,24.62,64.36,21.7Z"/>
      <g>
        <path class="cls-40" d="M1061.46,468.18l-89.65-.21-19.5,51.31c-.67,1.77-1.51,3.08-3.43,3.8l-47.61-.26c-1.48,0-1.6-3.63-1.18-4.71l12.78-33.16,8.68-23.35,18.37-47.79,40.17-106.59c1.58-4.2,7.27-24.07,12.01-24.1l44.95-.21c3.89-.02,7.32,1.4,8.87,5.52l80.62,213.76c2.31,6.13,3.78,11.23,6.4,17.04.82,1.83-2.27,3.8-3.98,3.79l-42.89-.08c-3.73,0-6.13-2.96-6.7-6.3l-6.21-17.74-11.67-30.74ZM1044.58,423.56l-25.93-69.09c-.5-1.21-2.47-3.17-3.35-2.34l-25.94,68.3c-.4,1.06-.32,2.19.06,2.58.25.26.87,1.08,1.7,1.07l53.46-.53Z"/>
        <path class="cls-40" d="M889.88,518.57c-.01,2.65-3.62,4.45-6.04,4.45l-145.76-.15c-3.86,0-4.05-6.47-3.27-8.77.72-2.14-.52-4.35-.68-6.1-.86-9.46.49-18.15.48-27.63l-.12-124.81c-.02-20.08-1.17-39.28-.06-59.02l.81-14.42,48.74-.04c1.89,0,2.99,3.17,2.99,5.13l.05,187.4,12.54,1.05,86.36.4c2.33.01,4.1,1.57,4.09,3.95l-.15,38.57Z"/>
      </g>
    </g>
  </g>
  <path class="cls-94" d="M656,450v-14c.52,2.37,2.5,12.57,0,14Z"/>
  <g>
    <path class="cls-44" d="M248,389v1c-.24.89-2.11.6-3,0-.09,3.1-8.74,2.86-9.5.6-3.24.16-6.4-.04-9.5-.6-.5,3.03-6.42,2.71-7.76.62-2.85.13-5.6-.08-8.24-.62l-12.05.02c-1.03,0-2.02-.24-1.95-1.02h52Z"/>
    <path class="cls-66" d="M405,299c-.86,1.64-4.14,1.64-5,0,1.65.02,3.36-.17,5,0Z"/>
    <g>
      <path class="cls-34" d="M159,446c.33,51.32.67,102.65,1,154,.44,9.6,4.75,17.66,11,25-.04.77.56,1.45,2,2,2.39,1.23,4.54,3.22,6.84,5.18,1.52,1.3,3.78.84,5.16,1.82,1.96,1.72,4.63,2.72,8,3h5c41.4.31,82.73.7,124,1.18,7.35,3.76,15.37,6.39,24.05,7.9l21.93,4.4.68,2.41c-2.98.87-5.99,3.01-10.07,3.02l-167.42.12c-14.36-2.53-26.83-9.28-36.15-19.91-9.1-10.71-13.52-22.51-14.88-36.78l.06-152.62c0-9.84,3.57-17.1,6.94-24.71l2.13.52,6.78,35.79.16-11.49c.24-1.48,1.4-1.55,2.79-.82Z"/>
      <path class="cls-34" d="M656,436c.8,4.76.8,9.43,0,14v9l-1,5c-10.57,101.79-95.29,183.7-198.34,191.75-6.79.53-13.47.42-20.54,0-3.49-.21-6.28-4-6.91-6.8l.74-2.16c15.22-2.18,30.28-5.53,45.18-10.05,3.72.08,5.42-1.12,5.11-3.57,40.55-9.65,76.54-29.74,105.12-60.86,21.81-23.75,36.42-51.69,45.79-82.07l1.22-.6c4.98-13.21,9.04-27.14,12.18-41.8.44-6.35,1.67-12.28,3.68-17.79-.86-.28-.8-.58.09-.9,4.26.01,6.91,3.3,7.69,6.86Z"/>
      <path class="cls-68" d="M271,430c1.18-1.08,8.1-.41,8.3.68,6.38,36.01,38.54,69.29,71.98,82.98,35.2,14.4,73.36,12.55,106.89-5.48,25.93-13.95,56.62-46.53,60.12-76.41.1-.82,1.03-1.3,1.91-1.58,4.06-1.11,8.73-.97,12.8-.18.46.07.9.18,1.27.4.68.41-2.64,14.14-3.24,15.22l-1.85,1.14c-1,.4-2.06.81-3.18,1.24.88.27.87.61,0,1-16.15,40.08-50.84,70.5-90.42,81.12-47.59,12.76-93.88.75-128.99-30.39-13.54-12.01-23.26-26.14-31.31-42.03-.74-1.46-1.69-3.36-1.27-4.7-.71-2.8-2.75-5.59-5.86-5.83-1.25-1.03-5.57-15.64-4.13-16.68,1.15-.83,5.81-1.53,7-.49Z"/>
      <path class="cls-101" d="M287,436c.5.52.74,1.33,1,2,.5,4.95,3.35,11.56,7,15,.07.31-.11.71,0,1,10.25,20.93,29.03,39.57,50,49h1c1.12,1.83,2.81,3.19,5,3,.3.08.73-.13,1,0,1.01,1.43,2.29,2.43,4,2,3.13,1.72,6.67,2.13,10,3,5.6,3.02,14.51,4.35,21.06,5.08,7.65.85,19.5.99,24.94-1.08.32.01.69.06,1,0,4.73.45,10.74-.84,15-3,38.73-10,69.75-39.17,82.35-77.6.65-1.97,2.73-2.01,3.58-3.07,1.04-1.18,4.9-1.4,4.8.52-.62,12.19-15.08,35.34-22.86,45.14-47.41,59.76-137.75,61.29-188.86,5.61-10.82-11.79-26.21-35.46-28.1-51.38-.4-3.34,8.23,2.48,8.09,4.78Z"/>
      <path class="cls-34" d="M265,616c-45.63-5.08-81.67-42.02-84-88,.29-.87.62-.86,1.01,0l2.03,1.23c-.2,4.1,1.25,6.66,4.35,7.68,8.89,14.24,19.19,27.51,30.89,39.81,14.13,12.57,28.66,24.37,43.59,35.41,4.32-.48,6.77,3.18,2.13,3.87Z"/>
      <path class="cls-83" d="M448,555c-.5,4.38-.74,8.86-.73,13.44l-1.38,1.45-12.89,3.08c-.18,3.94-1.51,6.62-4,8.03l-.09-11c-6.42.89-12.91,1.96-18.91,2-1.16-.62-2.24-.38-3.24.73.02,1.95-1.27,2.97-3.88,3.04l-10.36-.03c-.62,4.89-.78,9.81-.47,14.75l-2.05,1.51c3.36,1.24,3.13,8.6-1,8l.15-38.94c.02-6.3,6.51-8.48,11.79-8.2,13.17.68,25.29-2.81,38.1-4.77,4.18-.64,8.22,3.62,8.96,6.92Z"/>
      <path class="cls-101" d="M287,436c.05,4.47-2.27-5.47-6.74-4.31,20.89,73.15,101.54,109.95,169.6,79.06,32.98-14.97,57.74-43.5,67.57-78.65-1.3-1.4-2.49-.4-3.5-.77,1.13-1.41,2.11-2.33,4.07-2.33.97.24,1.71.63,2.2,1.18-1.83,19.48-22.96,51.35-38.29,63.83-36.6,29.8-83.58,39.24-127.38,22.61-24.08-9.14-41.46-23.12-57.14-43.09-3.76-4.78-6.12-10.28-9.48-15.43-5.28-8.08-7.5-17.4-10.41-26.61-.73-2.3-4.85-1.29-6.5-1.5-.87-.28-.86-.62,0-1,3.86.36,14.86-1.86,16,7Z"/>
      <path class="cls-3" d="M203.77,547.17c.35,2.11,2.62,3.88,3.23,5.83-.43,1.44-.1,2.88,1,4.32l8,12.68c.9.08,2.6,1.7,2,3,2.3,1.39,4.68,3.7,6,6,.66-1.08,1.49-.07,2,1,2.38,1.41,4.38,3.08,6,5,.58.41,1.56.3,2,1,3.52,2.2,7.19,3.86,11,5l17,5.21c-1.4,2.38.11,4.51,4.52,6.39l14.99,9.13c1.2,1.71,1.31,2.97-.78,3.9-5.17-.14-10.51.96-15.73.38.08-.66.76-.76,1.12-2.27-4.65,1.75-6.3-1.54-9.05-3.64l-17.72-13.53c-15.15-11.57-43.76-40.99-52.43-58.38-.62-.85-3.08-.75-3.52-1.67-.62-2.93-1.46-5.79-1.4-8.52-.8-1.07-.6-10.13-.24-10.52,2.29-2.46,4,2.09,3.09,4.8.78,2.66,14.46,22.24,16.74,24.17.62.52,1.37.72,2.17.72Z"/>
      <path class="cls-33" d="M166.94,423.94c.91-.06,1.48.7.23,1.17-3.93,6.54-7.17,13.52-7.17,20.89-.28.87-.62.86-1,0-2.54-.24.47,18.6-1.92,22.58-1.82-5.06-3.2-9.9-4.18-15.24l-5.76-31.33c3.28-7.39,7.49-12.76,13.93-17.9l1.91,1.38,1.21,17.68,2.74.77Z"/>
      <path class="cls-33" d="M648.22,430.04c2.26,1.87-.15,4.59-.23,7.1-.21,6.71-4.03,24.87-6.53,31.34-1.19,3.09-7.44,22.36-8.41,22.76-.75.31-1.11-.09-1.91-1.01.1-.33.16-.88.11-1.23.59-1.29.84-2.62.75-4v-1c.99-.7,1.33-1.7,1-3v-1c1.02-1.21,1.83-2.44,1-4l2.11-16c.52-3.9,1.4-7.46.89-11-9.69-.35-19.36-.68-29-1-2.32-3.89,8.34-4.44,9.2-1.18l2.04-2.01c4.11.57,7.76.34,10.96-.71,1.18-4.06,1.68-8.19,1.5-12.38l1.29-1.72c4.5-.8,10.52-.71,15.22.04Z"/>
      <path class="cls-3" d="M385,644c-4.73,4.26-10.28,7.11-16.34,8.89-2.71-1.52-20.33-4.15-23.52-4.97l-12.71-3.27c-4.12-1.06-7.94-2.1-11.32-4.95.01-.64.66-1.05.88-1.52,9.59-.47,19.26-.87,29-1.18,4.1-.71,9.02-.68,12.83-2.62,2.41.84,2.2,2.24-.6,4.18,7.75,1.11,15.05,2.36,21.9,3.74l-.13,1.7Z"/>
      <path class="cls-44" d="M215.95,475.89l-7.48,12.6c-2.12,3.57-2.76,7.84-5.41,10.62-.83,7.66-5.85,4.4-6.68-1.54-2.75-4.77-4.88-9.63-6.38-14.58,5.51-12.18,13.37-23.5,24-32,2.04.37,2.28,1.36,1.13,2.97l-7.12,7.09,4.93,13.65c1.37-.47,2.14-.21,3.01,1.18Z"/>
      <path class="cls-33" d="M449,637c.14.03,17.23-1.54,19-2,2.03.58,3.67.34,5-1h2c1.6.34,3.01.11,4.23-.7.31.06.68-.17,1-.14,2.64,2.53,5.18-1.58,9.03-.7-13.79,7.93-30.04,11.16-45.9,13.97l-14.16,2.51c-.35-1.52-.2-3.39-.2-4.95.54-3.1.8-6.29.8-9.59,4.81-1.97,9.89-3.24,15.27-3.82l-.44-9.07,1.97-1.57c-1.41.22-1.73.06-.68-.57-1.86-.9-1.34-11.53-.62-13.18.95-2.2,2.55-3.6,2.71-1.19.32,10.53.66,21.2,1,32Z"/>
      <path class="cls-92" d="M203.06,499.11c2.33-1.1-2.01,8.19-2.06,13.89-.28.87-.62.86-1,0-.15,5.86-.57,11.64-1.27,17.36-1.97-.25-3.54-1.38-4.71-3.41-4.6-6.96-8.28-14.25-11.04-21.87,1.25-8.05,3.69-14.72,7.02-22.09,3.1.44,3.75,5.92,7.97,13.29,1.12,1.97.52,4.76,3.12,5.75.71-.95,1.22-2.13,1.98-2.93Z"/>
      <path class="cls-80" d="M400,628c-2.17,4.01-5.95,7.24-8.85,11.2-1.56,2.14-4.41,3.23-6.15,4.8-.34-1.43-2.22,0-3.39-.24-7.09-1.49-13.8-2.59-20.77-3.51-.92-.12-1.98-1.28-2.08-1.88-.37-2.28,5.91-1.08,5.07-3.99,5.77-2.93,11.97-6.54,16.44-11.38,5.9,1.21,12.04,2.11,18.41,2.7l1.33,2.3Z"/>
      <path class="cls-78" d="M225.76,443.22l4.59,15.6c2.5-1.16,4.45.04,2.5,2.18-3.9,1.79-13.26,12.65-16.9,14.89-1.17.37-2.65,1.21-4.32.8-2.11-5.37-4.62-10.31-5.54-15.81,1.02-3.48,8.36-6.72,7.91-9.88,3.81-3.05,7.88-5.31,11.76-7.78Z"/>
      <path class="cls-44" d="M193.93,389.13c3.74,1.38,4.88,4.94,3.42,10.68-.34,4.84,3.35,6.57,11.05,5.21l2.6,1.99c2.2-.62,4.54-.79,7.03-.5,1.22-2.32,7.14-2.46,7.97.5,3.1-.64,6.27-.82,9.5-.55.82-2.43,8.67-2.39,9.5.55.57-.63,1.55-.69,2,0,.87.28.86.62,0,1l-49.73.35c-6.8.05-13.21,2.48-18.53,5.7l-2.24.66c-3.66-6.97-5.88-19.25,3.34-22.38,4.67-.98,9.2-3.5,14.08-3.2Z"/>
      <path class="cls-52" d="M262,596.21c2.86-1.26,6.71.57,9.95.85,5.16.44,9.53-1.71,14.12-.92.49,1.87-.5,2.55-1.97,3.25,5.92,3.58,11.93,7.01,18.02,10.27l-.38,2.39c-6.74,2.36-13.82,3.77-21.02,3.58l-.59-2.63c-8.42-5.5-17.39-9.01-24.62-16.61,3.31-.12,4.51.7,6.49-.17Z"/>
      <path class="cls-62" d="M407.83,604.78c-.07,8.2-3.96,16.06-7.83,23.22-5.37-1.2-12.95-1.38-19.96-2.61.06-1.05,1.03-2.01.23-2.39,3.88-4.2,4.9-11.2,7.88-15.96l2.13-1.55,13.87.59c.4-3.07,3.14-4.76,3.69-1.3Z"/>
      <path class="cls-62" d="M320,582c1.22,1.93.27,3.68-2.86,5.26,4.24,2.54,8.91,4.53,13.98,5.95l.88,2.54c-4.38,5.48-11.24,7.88-17.27,11.31-4.1.06-11.29-3.31-14.96-5.69-4.97-2.68-8.84-5.77-1.63-7.81.31,0,.63-.13.94-.14,1.55-.47,2.86-1.27,3.92-2.42,9.29-4.25,8.74-4.74,17-9Z"/>
      <path class="cls-33" d="M200,513c1.01.99.65,3.54,0,5,0,2.92.61,6.12,0,9l1,6c.49,4.83,1.99,9.37,2.77,14.17-.45.3-.77,1.73-1.85,2.23-2.22-1.92-4.5-3.98-6.03-6.37l-12.85-20.01c-.81-1.61,1.09-3.98-.81-5.11l-.22,10.1h-1.01c-.41-8.15.78-15.22,1.98-22.91,7.22,7.03,7.96,16.83,15.6,23.97,1.31-2.76-.76-17.14,1.42-16.06Z"/>
      <path class="cls-95" d="M354.86,569.98c-4.89-.49-9.75-1.89-14.58-4.19-1.92-.86-3.14-1.54-2.09-3.8,2.87-7.25,6.03-18.73,16.11-15.74,5.34,1.58,7.77,6.95,6.54,12.67-.94,4.38-4.48,7.55-5.98,11.06Z"/>
      <path class="cls-78" d="M196,389c4.71.38,9.38.71,14,1,3.26.53,6.64.77,10.14.71.48,5.37.38,10.62-.31,15.76-3.06-.26-6-.09-8.84.53-5.19,0-10.28.14-15.99-.26,0-.62,1.6-.93,1.4-1.55-3.14-9.93,1.97-10.21-2.49-16.07.69.04,1.38-.13,2.07-.13Z"/>
      <path class="cls-71" d="M346.72,581.15c3.82-3.63-11.51,15.58-14.72,14.6-5.61-2.49-11.95-3.69-17.97-7.46,1.15-3.22,4.63-3.74,5.97-6.28.66-1.25,10.24-10.79,12-12,3.68.9,1.65,3.07-.79,4.58,3.34,2.78,7.29,4.71,11.85,5.77,2.12-1.41,3.34-1.14,3.66.8Z"/>
      <path class="cls-93" d="M448,556c.88,4.36.82,9.75,0,14-.38,4.05-.71,8.05-1,12,.79,1.34.76,4.76-.28,6.08l-.84,2.13c-4.66.31-9.02,1.13-13.07,2.45-.28,3.72-1.55,5.84-3.81,6.34v-18c0-2.85,2.35-6.23,2.02-9.7l15.52-3.62c1.31-2.31-.66-13.47,1.46-12.68.07.31,0,.68,0,1Z"/>
      <path class="cls-58" d="M178.74,414.05c-4.35,2.63-7.88,6.73-11.8,9.89-1.02.82-1.98,1.69-3.09,3.31-2.57-3.41-1.65-7.22-1.79-11.3s-1.41-8.04-.98-11.85c5.72-4.56,10.99-10.14,18.77-11.78.7,1.79-1.91,1.51-2.87,2.49-2.22,2.29-2.03,16.93,1.76,19.24Z"/>
      <path class="cls-71" d="M410,572c-.64-.19-1.9-.21-1.91.99l-.25,31.78c-.69-.08-1.04-.57-1.26-.23-.32.51-.44,3.14-1.09,3.29-5.41,1.19-12.08.57-17.35-.8l-.14-1.04c.99-.9,1.32-2.23,1-4v-2c1.85-2.19.85-5.28,1-8l1.08-3.15c4.73.39,9.34.21,13.81-.53l.02-12.77,1.84-2.82c.19-.56.4-1.3,1-1.62.95-.51,1.7.39,2.25.89Z"/>
      <path class="cls-57" d="M245.71,454.08c-4.57,1.6-8.48,4.91-12.86,6.92.27-1.27-.73-.96-1.2-.62-.74.54-1.3.68-2.19,1.62-1.2-3.33-7.32-16.25-3.7-18.79,4.99-3.19,9.58-5.93,15.35-7.8,2.83.55,1.76,2.75-.52,3.64l3.26,9.45c1.43,1.92,2.05,3.77,1.86,5.58Z"/>
      <path class="cls-60" d="M354.86,569.98c-1.97,4.6-4.61,7.82-8.13,11.17-.85-1.16-2.01,1.8-2.83,1.54-4.2-1.28-14.53-4.43-14.62-8.11-.06-2.37,4.65-2.97,2.73-4.59,1.86-2.82,3.54-5.96,6.19-8.01,1.94,1.8,4.33,2.7,7.19,3.63l7.66,2.47c1.16.37,1.83,1.01,1.82,1.89Z"/>
      <path class="cls-71" d="M648.31,429.14l-.09.9-15.22-.04c.27,2.89-10.39,2.51-12.3,2-.97.32-1.87-.35-2.7-2l-1.74,1.98c-3.61-.38-7.14-.14-10.57.72-.71,4.58-1.57,9.13-2.57,13.64-3.25.68-14.27,2.46-17.11,1.53-.4-.13-.67-.62-.92-1.21l-1.72-1.52c.86-4.77,1.93-9.49,3.2-14.16l2.43-.88c4.54-.67,9.21-1.04,14-1.1l45.31.14Z"/>
      <path class="cls-51" d="M448,605c-.95-4.96-1.42,17.18-1.4,14.94-1.26.99-2.82,1.26-4.66.79-2.83,1.69-5.87,2.63-9.12,2.82-.72,2.73-1.99,3.88-3.82,3.44l.2-15.93.52-5.16c4.33-2.44,9.34-3.77,15.03-3.97l-.07-11.85,2.04-2.02.28-6.08c.28-.87.62-.86,1,0,.82,7.22.79,15.69,0,23Z"/>
      <path class="cls-32" d="M618,430c4.74-.13,2.18,12.08,1.15,15.61l-1.94,1.21-7.25.16c-1.04.02-2.04.26-1.95,1.01-5.82.3-11.82.63-18,1h-5c-1.88-.42-2.71-.8-.98-2.14.14-.93.5-.98,1.08-.2,5.36.48,10.94.77,16.19-.43l2.73-15.55c4.72-1.13,9.46-.68,13.98-.68Z"/>
      <path class="cls-41" d="M298.14,593.56c-.51,1.08-1.84,1.48-2.7,2.28,5.76,5.51,13.26,6.33,19.29,11.22-4.2,2.39-8.49,3.42-12.99,4.99-2.92-3.08-7.3-4.21-11.31-6.31-4.52-2.38-8.34-4.87-12.15-7.36,4.2.94,5.8-1.97,7.79-2.24,4.13-.56,7.9-2.64,12.07-2.57Z"/>
      <path class="cls-48" d="M260,430c3.33.71,1.94,2.27-.62,3.82-5.39-.76-6.07,3.15-2.04,11.74,1.28,1.36,1.84,2.8,1.67,4.3-4.49,1.2-8.93,2.68-13.29,4.21-3.4-.7-5.64-10.91-7.01-15.14.34-1.94,3.03-1.96,2.42-3.52,6.21-2.01,12.26-4.7,18.89-5.41Z"/>
      <path class="cls-15" d="M446.72,588.08c-.23,5.05.56,10.14.05,15.84-3.28-.31-15.33,2.12-16.22,3.2-.71.86-.09,2.83-1.35,3.96.05-3.95-.97-8.17-.2-12.07.54-2.69,1.91-5.51,2.14-8.77l15.58-2.15Z"/>
      <path class="cls-70" d="M271,429v1c-1.54-.2-5.29.05-5.71,1.7.97,4.6,2.97,10.4,4.6,14.54.81,2.07,5.31,2.88,4.1,6.75-1.18-1.2-1.99-2.66-3-4-1.56-.68-3.22-.68-5,0-2.04,1-4.94.32-7,.87-4.36-.58-7.37-14.37-5.34-16.77,1.63-1.93,7.41.15,6.34-3.1,3.7-.4,7.31-1.34,11-1Z"/>
      <path class="cls-58" d="M446.6,619.94c-.03,4.5,1.05,8.94.1,14.05-2.46-3.08-10.84,1.17-16.1,1.49-1.19,1.95.33,8.85-1.6,8.52v-17c.75-1.3,1.74-3.28,1.46-5.51,10.62.81,8.19-5.29,16.14-1.54Z"/>
      <path class="cls-42" d="M160,600c-2.32-51.04-.34-102.62-1-154h1v154Z"/>
      <path class="cls-81" d="M351,637c-9.33,1.61-19.35,1.2-29,1.18l-122.84-.2c-.86,0-1.27-.59-1.16-.98h153Z"/>
      <path class="cls-31" d="M300,389c-.17,6.23-.45,12.78,0,19h-53v-1c2.64-.16,4.77-.83,6.39-2,2.6-.52,11.98-.66,12.61,2,10.23-1.71,20.15-2.43,30.97-2.03v-12.95s-20.95-.03-20.95-.03c-2.61-1.46-5.95-2.12-10.03-2-.72,3.38-10.02,2.41-12.55.96-1.95-.17-3.77-.49-5.45-.96-.87-.28-.86-.62,0-1h52Z"/>
      <path class="cls-101" d="M345,503c-.9,1.38-2.16.64-3.77-.35-19.18-11.84-38.82-28.12-46.23-48.65,11.96,20.84,28.77,37.76,50,49Z"/>
      <path class="cls-99" d="M449,637c-.32-.08-1.02-.03-1.02-1l.02-31v-23c-.88-3.45-.83-8.28,0-12v-14c.37-.12,1,.34,1,1.12v79.88Z"/>
      <path class="cls-68" d="M412,515c.01.42.18,1.09-.04,1.45-.3.49-1.03.59-1.9.59l-23.1.05-19.2-3.83c-1.37-.27-2.03-1.29-1.75-2.26,7.04,1.84,14.19,3.76,22.08,4.11,5.58.25,10.95,1.93,16.51.44,2.61-.7,5.09-.66,7.41-.56Z"/>
      <path class="cls-36" d="M544,448c7.17-.91,15.76-.72,23,0,1.12-.6,14.16-1.01,14.37-.3.11.36-.09.82-.37,1.3h-55c.12-.29-.07-.7,0-1,5.25-.97,12.44-.68,18,0Z"/>
      <path class="cls-53" d="M608,448l28.01-.02c.92,0,.94.7.99,1.02h-47c-.07-.78.92-1.02,1.95-1.02l16.05.02Z"/>
      <path class="cls-70" d="M603,429c-4.36-.01-9.24,1.66-14,1.1-3.95,2.56-13.34,2.97-17-.1-2.71,2.52-10.97,3.59-13,0-.87-.28-.86-.62,0-1h44Z"/>
      <path class="cls-101" d="M559,429v1c-.42,3.1-8.17,3.05-8.93.1-1.96,2.15-5.23,2.79-9.8,1.94-3.74.7-6.17.02-7.27-2.04-4.27-.02-8.54-.09-12.8.18-.85.05-1.93-.32-2.2-1.18h41Z"/>
      <path class="cls-34" d="M216,569v1c-.65-.98-2.26-1.37-3.15-2.9l-6.61-11.44c-.38-.66-.2-1.38-.13-1.96.04-.35.23-.89.88-.7,1.83,5.93,5.86,10.68,9,16Z"/>
      <path class="cls-101" d="M295,453c-1.78,3.39-10.51-17.43-7-15,1.99,5.16,4.19,10.24,7,15Z"/>
      <path class="cls-71" d="M584.02,446.86l.98,2.14h-4c.07-.78-.91-1.02-1.95-1.02l-12.05.02c-.89-.27-.9-.64-.07-1.12.02-.9.31-.88.85-.05,4.67-2.73,11.6-2.76,16.24.03Z"/>
      <path class="cls-68" d="M428,512c2.15,1.73-17.15,5.66-15,3,4.98-.95,10.09-1.73,15-3Z"/>
      <path class="cls-34" d="M245,591c2,2.8-12.29-3.95-11-5,2.42-.78,8.84,4.34,11,5Z"/>
      <path class="cls-34" d="M224,577c1.11,1.18,1.11,1.85,0,2-2.51-1.45-4.43-3.65-6-6,.28-.87.62-.86,1,0,2.18.48,3.16,3.02,5,4Z"/>
      <path class="cls-34" d="M232,585c-2.15-1.52-4.84-2.55-6-5,.31-.44.64-.42,1,0,1.65,1.8,5.37,2,5,5Z"/>
      <path class="cls-4" d="M193,637c-1.6,0-8.83.02-8-3,2.41,1.7,5.76,1.07,8,3Z"/>
      <path class="cls-101" d="M351,506c-.8,1.23-1.99.66-2.73.3-1.6-.78-2.39-1.82-2.27-3.3l5,3Z"/>
      <path class="cls-34" d="M473,634c.36,1.36-.33,2.16-1.51,2.08-1.34-.09-3.13.34-3.49-1.08,1.65-.43,3.29-1,5-1Z"/>
      <path class="cls-41" d="M299.08,593.42c.42-1.79,2.47-1.76,3.92-2.42.36,1.1-.79,2.15-1.88,2.58-.58.23-1.31.5-2.04-.16Z"/>
      <path class="cls-19" d="M219,573h-1l-2-3v-1c.71,1.2,3.44,1.92,3,4Z"/>
      <path class="cls-62" d="M388,606c-.19-1.38.22-2.82,1-4,.85.6,1.04,1.61,1.1,2.44.12,1.51-.81,2.2-2.1,1.56Z"/>
      <path class="cls-34" d="M479.23,633.3c.55,1.21-.8,1.79-1.79,1.8-.94,0-1.85-.34-2.44-1.1,1.21-.94,2.77-.98,4.23-.7Z"/>
      <path class="cls-23" d="M227,580h-1c-.81-.05-1.35-.63-2-1v-2c1.46.78,1.96,1.87,3,3Z"/>
      <path class="cls-101" d="M356,508c-.03,1.55-1.45.84-2.1.58-1.31-.52-2.05-1.36-1.9-2.58,1.34.64,2.7,1.28,4,2Z"/>
      <path class="cls-17" d="M201,533c-.2-1.96-1.52-3.57-1-6,1.9,1.27.76,4.02,1,6Z"/>
      <path class="cls-34" d="M631.25,489c-.19-1.39-.13-2.84.75-4,1.55,1.12.43,2.96-.75,4Z"/>
      <path class="cls-47" d="M271,449h-5c1.77-.86,3.46-2.03,5,0Z"/>
      <path class="cls-75" d="M655,464c.17-1.65-.78-4.06,1-5,0,1.66.66,4.05-1,5Z"/>
      <path class="cls-35" d="M173,627c-.55.63-1.14.45-1.5.09-.89-.89-2.21-1.92-.5-2.09.58.68,1.85.89,2,2Z"/>
      <path class="cls-34" d="M633,480l1-4c1.31-.03,1.19,1.37.89,2.36-.24.8-1,1.4-1.89,1.64Z"/>
      <path class="cls-7" d="M200,518v-5h1c-.01,1.66.66,4.05-1,5Z"/>
      <path class="cls-34" d="M632,484c0-1.07.44-2.09,1-3,.66.4.97,1.02,1.06,1.58.2,1.19-.99,1.82-2.06,1.42Z"/>
      <path class="cls-70" d="M550.07,430.1c1.26,2.5.91,5.67-1.03,9.53-.09,3.35-1.07,5.72-2.93,7.11-.38.93-1.44.99-2.11.26-4.7.75-10.26,1.03-14.82-.24-.74-3.58,1.26-6.78,2.21-10.51l1.61-6.26,17.07.1Z"/>
      <path class="cls-83" d="M529.18,446.76c4.93.44,9.88.16,14.82.24.87.28.86.62,0,1h-18c-1.41-2.12,2.69-.63,3.18-1.24Z"/>
      <path class="cls-38" d="M406.76,572.73c.34,5.4.55,11.01-.12,16.93-6.19,3.72-15.16-1.22-16.63,2.34.33-6.2-.92-12.16,1.21-19.27,5.16,2.71,10.56,1.42,15.55,0Z"/>
      <path class="cls-41" d="M633,430c2.27,2.49-.39,12.08-1.31,16.71-4.98.64-9.79,0-14.49.11-.59-6.8,3.82-12.72.8-16.82h15Z"/>
      <path class="cls-20" d="M248,390h18c3.84.22,7.61.72,11.33,1.51-.63,4.74-.48,9.15-.04,13.9-3.6.9-7.36,1.43-11.29,1.59h-21c-1.3-2.23.63-3.36,5.77-3.4-.76-3.61-.88-7.13-.37-10.54-4.87.44-6.67-.58-5.4-3.06h3Z"/>
      <path class="cls-31" d="M245,390c-.51,1.93,6.38.1,8.48,1.94-2.04,4.41-1.74,8.85-.11,13.23-2.04,1.6-8.97,0-8.37,1.83h-19c0-2.91,2.39-3.96,7.19-3.16-.44-3.75-.64-7.34-.6-10.77-5.52.59-7.71-.43-6.58-3.07h19Z"/>
      <path class="cls-87" d="M226,390c-1.3,1.81,10.43.65,9.71,1.28-1.55,5-1.33,10.09.05,14.61-3.41.3-7.25-.99-9.76,1.11h-15c1.43-1.91,4.3-.69,7.84-1.06-.71-4.9-.8-9.63-.13-14.51-1.88-1.09-9.27.49-8.71-1.43h16Z"/>
      <path class="cls-15" d="M448,582h-1l-.02-10.06c0-1.03.27-2.02,1.02-1.94v12Z"/>
      <path class="cls-38" d="M589,430.1c-1.52,3.85-2.91,12-3.9,16.57-.35-.03-.73.18-1.08.2-5.41.22-10.84.26-16.24-.03-2.43-1.82-2.38-5.08.17-9.79-.58-4.54.77-6.89,4.06-7.04,5.63,0,11.39-.56,17,.1Z"/>
      <path class="cls-74" d="M266,407c-.5-2.14,8.15.03,9.23-1.76,1.51-2.52-2.12-5.11.04-10.43,2.82-6.94-9.24-1.81-9.27-4.82h32.97s0,17.01,0,17.01h-32.97Z"/>
      <path class="cls-38" d="M546.11,446.74c5.79-2.68,15.15-2.81,20.82.14l.07,1.12h-23v-1c.7.01,1.41-.31,2.11-.26Z"/>
      <path class="cls-83" d="M559,430h13c-2.9,1.47-1.41,4.92-2.17,7.74-.87,3.22-2.67,5.97-2.05,9.09-.28-.02-.57.05-.85.05-6.94.14-13.9.34-20.82-.14-.16-5.71,2.1-11.27,3.96-16.64l8.93-.1Z"/>
    </g>
    <g>
      <path class="cls-96" d="M400,299c1.64.81,3.35.73,5,0,9.57.98,18.86,2.97,28,6,1.56,1.86,3.63,2.67,6,3,.24-.11.73-.02,1,0,.96,1.29,1.94,2.18,3,2,5.31,1.05,8.63,5.13,13,8l4,3c.33,0,.68-.04,1,0,1.15,1.98,2.15,2.98,3,3,12.91,10.48,22.18,24.84,28.12,40.85,2.98,8.03,4.18,16.18,5.88,24.15.87.44.83.77-.12,1,2.56,1.94,2.92,9.36-.03,11-.59,2.3-.54,4.63.15,7-5.92,49.33-43.56,85.7-93,90-3.74-.88-8.27-.86-12,0-48.6,0-89.44-41.17-93-90-1.06-6.12-.94-12.86,0-19,.29-10.86,3.37-21.57,8.12-31.88,16.66-36.17,52.67-58.53,91.88-58.12Z"/>
      <path class="cls-10" d="M405,498h-12c-2.61-1.48,14.61-1.48,12,0Z"/>
      <path class="cls-39" d="M439,308c-2.14,1.01-5.96-.41-6-3,2.07.69,4.21,1.81,6,3Z"/>
      <path class="cls-91" d="M464,324c-.26,1.75-1.27.31-1.68-.09-.71-.69-1.46-2.11-1.32-2.91,1.65.2,1.97,2.16,3,3Z"/>
      <path class="cls-84" d="M460,321c-1.88,0-3.3-1.31-4-3,1.33.87,3.71.71,4,3Z"/>
      <path class="cls-54" d="M443,310c-.09,1.63-1.29.42-1.82.18-.99-.45-1.34-1.37-1.18-2.18,1.24.07,2.11,1.46,3,2Z"/>
      <path class="cls-72" d="M392.86,308.06l12.22.07c5.46-1.8,14.64.34,20.51,2.17,25.53,7.95,51.45,30.09,58.65,55.84,2.71,3.47,5.04,11.41,5.57,15.9.95,8.06,2.36,25.45.4,32.76-.2.73-.69,1.39-1.27,2.02-9.6,53.58-68.37,86.88-119.29,68.89-33.64-11.88-61.14-43.25-61.49-79.53l-1.08-3.28c-.44-2.95-1.28-6.96-.01-9.88l1.06-3.49c.75-41.93,42.69-81.85,84.07-82.5.22,0,.44.45.66,1.03Z"/>
      <path class="cls-98" d="M488.94,416.82c.79.33.76.68-.04,1.03-.13,3,.88,6.29-.57,9.37l-8.4,17.82c-5.52,11.71-25.37,30.69-36.09,35.3-5.55,2.39-10.51,5.84-16.34,6.98-3.85.75-7.81,2.67-11.6,3.1-11.3,1.27-22.41.64-33.78.12-3.86-.17-17.83-5.31-21.59-7.21-15.77-7.99-19.81-11.3-32.01-24.01-8.43-8.78-14.66-20.55-18.28-32.27-.96-3.11-.81-4.98-2.45-7.83-2.58-4.49.03-11.41-.7-16.31,2.82,1.88,2.33,5.23,2.39,8.54.2,12.05,11.46,36.92,17.74,43.17l10.09,10.03c12.19,12.12,31.49,21.71,48.28,23.48l12.48,1.32c5.33.56,10.57-2.3,16.04-.88l18.65-5.86c8.91-2.8,16.15-7.51,23.15-13.72l6.91-6.12c8.11-7.19,17.46-21.17,20.48-31.9-1.2,4.28,6.27-16.7,5.66-14.14Z"/>
      <path class="cls-98" d="M485.44,366.1c.25,1.93-.55,1.96-1.2.04-1.59-.54-1.51-2.42-2.24-4.16-12.64-30.26-45.32-52.28-76.92-53.85l-12.22-.07c.15-.09-22.74,1.48-41.02,12.75-9.42,5.81-24.24,19.15-29.88,29.46-6.22,11.39-12.4,23.01-12.45,36.29-.01,3.09-.3,4.77-2.46,6.47.22-4.53-1.06-9.82.45-14.58l2.9-9.19c7.15-22.63,22.11-37.59,40.89-50.94,6.87-4.88,28.83-12.32,34.8-12.33l18.9-.05c5.92-.01,11.64.13,16.89,3.08,4.53-1.73,7.44,1.91,10.8,3,16.17,5.28,32.69,18.88,42.34,32.91,4.61,6.71,9.67,13.27,10.4,21.16Z"/>
      <path class="cls-98" d="M488.89,417.86l.04-1.03c.48-11.01.86-22.22-.35-33.67-.61-5.83-3.51-11.6-4.35-17.01l1.2-.04c2.87,2.59,4.2,6.54,3.62,10.93,2.65,4.67,3.49,9.64,3.04,14.98-.57,6.8,1.76,25.85-3.2,25.84Z"/>
      <path class="cls-64" d="M470.78,449.99c-22.36,31.94-64.74,44.76-101.98,31.41-32.64-11.7-54.13-40.49-57.86-74.38-.77-7.04-1.25-12.33.52-19.43,1.14-4.57,1.18-9.22,2.98-13.88l4.71-12.23c4.34-11.25,11.88-19.57,20.61-27.79,19.11-17.97,46.17-25.93,72.21-21.89,9.83,1.52,18.88,3.85,27.51,8.7,21.15,11.87,32.6,25.07,42.3,47.45,9.62,28.19,6.21,57.48-11,82.05Z"/>
      <path class="cls-98" d="M405.08,308.13c-3.62-.18-8.71,2.78-12.22-.07,3.67-2.11,8.21-1.23,12.22.07Z"/>
      <path class="cls-25" d="M391.99,481.58c-3.77-1.8-9.16.86-12.48-1.22s-6.73-1.68-9.96-3.11c-.92-.41-17.8-9.14-17.84-9.17-14.02-10.07-27.6-26.24-31.99-42.98-1.6-6.1-4.37-11.63-2.91-17.88-2.5-5.66-2.27-11.8.09-17.38-2.24-5.86,5.24-25.67,7.83-30.13,8.95-15.42,20.23-27.35,36.44-35.61,19.57-9.98,33.23-8.74,55.54-7.51,2.78.15,4.98,3.41,8.33,2.33,2.33-.75,3.81,1.87,5.53,2.56,25.94,10.32,43.84,32.44,50.41,59.41,1.08,4.45,1.33,8.35,1.32,13.21l-.02,9.72c-.03,17.79-8.96,38.27-21.48,51.06-6.47,6.61-13.64,13.62-22.4,17.43-3.56,1.54-6.94,4.18-10.81,5.08-3.51.82-6.38,3.03-9.76,3.24l-13.55.85c-4.23.27-7.74,2.28-12.3.1Z"/>
      <path class="cls-59" d="M428.55,473.9c-5.19-.07-8.08,3.2-12.17,3.56-12.74,1.11-25.5,2.36-37.57-.99-28.98-8.06-50.04-29.59-57.82-58.41-1.23-4.57-1.39-9.41-1.31-14.37l.34-22.76c.03-1.74,1.82-2.58,2.09-3.87,3.68-17.15,17.8-36.54,33.46-45.51,16.46-9.43,24.64-12.79,44.44-12.76,27.79.04,51.84,14.51,66.82,37.27,12.76,19.4,16.21,46.97,7.8,68.61-3,7.73-7.77,18.64-13.36,24.68l-7.69,8.31c-6.7,7.25-16.11,11.07-25.04,16.24Z"/>
      <path class="cls-1" d="M444.49,459c-6.48,4.39-12.1,7.95-18.99,10.49-25.41,9.37-51.53,5.31-73.01-11.07-8.12-6.19-14.93-13.41-19.21-22.93-1.84-4.09-5.35-8.03-5.83-12.64-.34-3.17-1.22-5.33-2.12-8.06-8.42-25.58,7.49-63.51,28.93-76.54,2.78-1.69,4.77-4.43,8.32-5.94l6.85-2.92c11.19-4.77,28.71-7.98,40.02-5.79,8.89,1.72,17.14,4.9,25.21,8.51,6.33,2.84,11.55,8.2,15.5,11.66,7.96,6.97,13.97,15.53,18.09,25.23,2.18,5.13,5.08,9.81,3.5,15.86,4.14,3.87,2.25,8.71,2.6,13.07.97,11.95-4.9,31.84-11.78,41.67-5.1,7.29-10.32,14.14-18.07,19.39Z"/>
      <path class="cls-67" d="M365.86,460.01c-20.28-11.36-34.84-31.5-36.27-54.87-.24-3.92,1.13-7.75.3-11.75-1.24-6.02,1.75-11.39,3.38-16.95,4.84-16.51,15.97-28.67,30.21-37.85,3.97-2.56,7.8-3.74,11.82-5.43,7.51-3.16,14.54-3.47,22.73-3.21,6.53.21,12.45-.49,18.6,1.31,14.44,4.22,26.35,11.21,36.22,23.11,21.09,25.43,21.25,63.77-.42,88.97-21.9,25.47-57.01,33.24-86.58,16.67Z"/>
      <path class="cls-37" d="M455.76,428.69c-9.28,20.2-36.33,35.79-58.82,34.35-3.52-.23-7.05.49-10.04-2.14-4.01.87-7.01-.81-10.64-2.17-19.64-7.36-34.93-23.95-39.35-44.6-5.03-23.5-2.61-14.81.69-32.9,1.85-10.15,8.04-18.54,14.41-26.08,7.77-9.2,15.96-12.61,26.77-17.43,3.33-1.49,6.88-.99,10.06-1.95,7.32-2.2,13.13-2.39,20.48-.04,2.88.92,6.16.3,9.26,1.73,9.36,4.32,18.99,8.13,25.96,15.93,8.41,9.43,15.08,20.01,17.38,32.54.83,4.5-.89,9.08,2.08,13.1-2.95,4.01-1.43,8.45-2.12,13.04-.88,5.81-3.66,11.25-6.13,16.61Z"/>
      <path class="cls-63" d="M414.31,455.39c-13.06,4.35-19.49,3.86-31.69-.81-2.42-.93-5.22-1.12-7.69-2.21-18.6-8.26-28.59-22.24-33.59-41.93-2.97-11.71-1.65-19.92,2.51-30.61,3.53-9.09,7.48-18.32,15.58-24.46,6.58-4.98,13.22-10.77,21.55-12.09,3.87-.62,7.3-3.31,11-3.05,4.96.35,9.27,1,14.26-.05,2.9-.61,5.76,2.96,8.68,2.62,4.18-.48,13.24,4.73,16.89,7.47,10.16,7.64,19.57,16.98,22.89,29.9,2.66,10.37,4.79,16.77,2.68,27.12-.83,4.06-3.4,7.16-2.28,11.55-5.51,10.98-12.7,20.68-22.38,27.91-5.8,4.33-12,6.52-18.41,8.66Z"/>
      <path class="cls-69" d="M411.97,450.41c-8.22.52-16.88,1.66-24.62.05-15.45-3.2-27.3-14.25-35.64-27.39-6.39-10.07-3.99-25.11-4.47-34.99-.25-5.25,3.12-9.41,4.87-13.8,2.23-5.61,5.56-9.25,10.08-13.25,3.89-3.44,7.33-7.1,12.57-9.39,12.74-5.57,16.64-6.69,31.11-5.33,5.55.52,10.33,3.02,15.82,4.58s14.49,10.53,19.01,15.47c6.65,7.25,9.79,17.14,11.03,27.01,1.44,11.46-1.87,23.28-7.97,33.69-5,8.53-13.85,15.77-22.91,19.58-2.73,1.15-5.65,3.56-8.89,3.77Z"/>
      <path class="cls-73" d="M410.84,446.48c-8.17,1.09-16.24,1.09-23.99-.02-14.64-4.79-26.02-14.52-32.43-28.66l-3.71-8.19c-2.36-5.22-.16-11.79-.59-17.5-.26-3.53,2.75-6.41,3.23-9.46,1.57-9.81,15.07-22.88,20.09-25.3l15.74-7.6c21.97,1.39,11.12-2.76,29.66,4.57,8.07,3.19,14.22,9.64,19.8,15.93,3.65,4.12,5.02,8.88,6.58,13.93s4.06,9.62,1.77,14.84c2.27,4.45-.14,8.38-1.25,12.49-1.46,5.4-2.73,10.67-6.21,15.02-7.52,9.42-16.56,16.18-28.69,19.96Z"/>
      <path class="cls-79" d="M410.36,439.9c-7.05,2.25-15.69,2.29-22.54.08-2.99-.97-5.82-2.78-8.82-4.18-8.77-4.07-15.8-12.56-19.41-21.14-3.69-8.78-3.42-22.38-.18-31.23,6.76-18.49,32.5-34.16,52.95-24.77,6.86,3.15,14.92,5.82,19.15,12.75,1.79,2.93,4.57,5.99,5.68,9.06l3.49,9.66c2.96,8.21.12,16.01-2.45,23.93-3.24,9.99-10.55,18.73-20.45,22.53-2.42.93-4.6,2.42-7.41,3.31Z"/>
      <path class="cls-55" d="M405.2,435.2c-17.34,3.31-35.1-6.72-40.98-23.39-.97-2.76-.44-5.49-2.04-8.02-2.76-4.36-.27-9.29.79-13.58,2.62-10.65,10.15-20.78,20.43-25.07,3.36-1.4,6.46-3.9,10.59-2.08,3.02-2.83,6.94-2.59,10.04-.17,3.28-1.12,5.79.14,8.72,1.34,11.39,4.66,19.9,14.29,22.38,26.74.55,2.77-.9,5.75,1.95,8-2.55,2.24-1.11,4.86-1.76,7.47-3.69,14.86-13.98,25.68-30.12,28.76Z"/>
      <path class="cls-18" d="M411.89,428.05c-11.08,5.07-15.53,4.7-25.72-.01-6.57-3.04-11.53-6.69-15.04-13.13-6.43-11.78-5.61-24.73,2.21-35.54,2.3-3.19,3.53-5.04,6.96-7.13,16.8-10.23,38.33-5.59,47.35,12.07,4.96,9.7,4.55,19.79-.2,29.13-3.59,7.07-8.48,11.38-15.56,14.61Z"/>
      <path class="cls-16" d="M405.28,426.16c-10.41,4.33-27.31-4.31-31.97-16.61-3-7.91-3.49-15.82.85-23.62,4.06-7.3,11.17-12.96,20.12-14.67,15.78-3.03,31.39,9.29,32.47,25.89.51,7.86-2.86,15.9-8.01,21.54-3.53,3.87-8.73,5.5-13.46,7.47Z"/>
      <path class="cls-89" d="M420.22,390.03c3.43,9.33,1.09,20.18-6,25.93-6.51,5.29-15.08,6.99-22.76,4.46-9.48-3.13-15.08-11.74-15.24-21.01s5.33-19.54,14.9-21.98c4.8-1.22,10.99-1.13,15.79.14,5.65,1.48,11.19,6.73,13.3,12.46Z"/>
      <path class="cls-61" d="M414.56,404.28c-2.51,6.88-10.17,12.16-17.28,11.39s-15.27-8.85-15.3-16.8c-.02-6.39,5.19-13.42,11.04-15.43,4.32-1.48,8.51.24,12.92-.67,3.14,3.45,7.33,5.86,8.63,10.54.79,2.85,1.3,7.38-.01,10.97Z"/>
      <path class="cls-8" d="M390.81,402.3c-1.32-3.31-.67-8.65,2.4-11.01,2.55-1.97,7.38-1.74,10.02-.55,4.13,1.86,5.23,5.69,4.88,9.66-.32,3.69-3.81,6.4-7.87,7.34-3.56.83-7.72-1.21-9.42-5.45Z"/>
    </g>
    <g>
      <path class="cls-34" d="M656,192c-.88,54.21-.88,110.82,0,165,.84,5.35-2.59,9.83-4,14.71l-2.59-.78c-2.91-12.76-5.7-25.53-8.34-38.32l-.23,17.59c-1.28,2.83-2.45,4.08-3.84.8l1.15-8.14-.49-142.21c-.03-9.88-3.61-18.91-9.23-25.78-8.22-10.04-18.46-14.23-30.43-14.87-44.69-.26-89.36-.64-134-1.15-2.42-1.41-.77-2.74,1.81-2.82-12.27-2.97-24.52-5.89-36.75-8.75-2.46,2.08-7.5,2.3-5.06-1.28,4.33-2.17,9.57-4.79,15.42-4.8l166.34-.21c27.03,4.12,47.03,24.73,50.24,51.01Z"/>
      <path class="cls-34" d="M368,195c-2.78-.32-3.65-13.17-3.08-14.36.41-.85,1.32-1.29,2.14-1.64-2.67-2.23-3.27-11.15-.06-13l-1.92-2.03c-.35-4.46-.24-8.61.34-12.44-12.09,2.04-24.01,4.99-35.76,8.84l.4,1.35c-87.36,13.54-154.09,80.3-168.3,167.43-2.29,1.03-2.96.02-3-2.29-3.31,13-6.14,26.03-8.51,39.09l-2.25,1.04c.86.33.86.67,0,1-7.44-1.35-7.93-11.05-7.48-16.92l1.27-16.8c8.11-107.39,114.82-201.01,220.02-192.93,4.37.34,6.26,5.88,6.26,9.56l-.07,44.1Z"/>
      <path class="cls-101" d="M524.59,367c.81.2.62.54-.59,1-8.01,0-12.68-2.41-15.33-9.75-15.33-42.45-53.48-71.67-97.67-76.25l-5-1h-14l-6,1c-46.3,4.81-84.85,36.84-99.56,81.48-1.96,5.94-10.35,4.17-14.51,4.21-.46-.2-.88-.43-1.16-.77-1.02-1.21,8.34-23.6,10.4-27.66,44.49-87.8,165.86-97.43,224.25-18.57,5.6,7.56,22.32,36.15,20.06,44.24-.2.72-.53,1.4-.9,2.07Z"/>
      <path class="cls-20" d="M423,264c3.14,2.07,7.63,2.72,12,3,.32.06.69-.09,1,0l1.56,1.32c43.95,15.48,67.88,36.76,87.39,79.69.28.62.97,1.04,1.78,1.42,3.12,6.1,4.17,11.91,3.13,17.43-1.06.97-3.97.87-5.28.14-11.38-52.18-59.9-93.11-113.51-97.5-44.82-3.67-82.98,13.08-112.25,46.19-3.28,3.71-5.69,7.49-8.38,11.73-7.4,11.68-13.85,23.6-16.72,37.32-.27,1.27-1.74,1.98-1.79,2.96l-33.93.31,1.18-2.33,14.4-1.26c2-4.61,3.47-9.35,4.42-14.22,1.07-.69,2.4-.76,4-.19l-.12-1.03c3.44.54,6.48.22,9.12-.97,8.7-18.83,19.55-36.39,35.32-50.53,32.29-28.95,74.55-40.9,116.68-33.47Z"/>
      <path class="cls-34" d="M616,282l-2.14-.7c-1.09-3.46-1.26-6.67-.5-9.61-7.31-8.21-13.95-17-19.91-26.38l-2.4-1.38c-7.19-14.77-18.5-27.05-33.06-34.8-1.5-.8-2.47-1.29-3.06-2.31.25-.42.52-.83.84-1.19.22-.24.44-.44.7-.51,1.46-.41-19.7-14.71-23.53-17.28-2.82-3.73-7.14-5.04-12.94-3.92-1.79-.25-2.09-1.4-1-2.91,56.65-2.73,101.37,44.96,97,101Z"/>
      <path class="cls-9" d="M390,208c.28,1.31.93,2.2,1.95,2.69l.33,12.11,12.48-.07,1.92,2.2c.78,3.48,1.22,7.17,1.32,11.07.74,3.49-3.62,6.06-6,7l-7,1c-2.55-.48-5.49.66-8,0l-6,1-20,3h-5c-5.51-.15-6.16-4.49-7-9-3.04-13.61,4.49-15.67,16.28-15.93l1.41,2.03c.36.8.8,1.43,1.3,1.91l10.74-1.36c3.49-.44,6.52-.94,10.33-.57l-.07-28.07c4.13-2.31,4.26,10.08,1,11Z"/>
      <path class="cls-13" d="M652,371.71c-2.01,6.93-11.11,20.2-17.85,23.03-.85-1.67-.47-3.5,1.14-5.51-.11-5.33-.82-10.67-2.12-16.01-.76-.05-1.73-.24-2.93-.57-.17-1.62.92-2.97,1.94-4.45,3.65-5.29,4.01-11.44,4.82-17.2-.06.04,1.84.22,1.84-.26l.29-26.95c3.27,1.52,6.92,21.24,7.61,25.28l2.38,13.88c.58,3.35,1.54,6.18,2.87,8.77Z"/>
      <path class="cls-26" d="M616,282c1.02,7.01-2.63,13.87-3.88,20.6-2.64,1.88-2.97-.76-2.85-3.33l-6.18-11.81c-1.76-3.98-3.75-6.46-5.96-7.45-.18-11.96-.68-24.98-6.08-36.07.46-.44,1.08-.84,1.57-.84.75.01,1.55.39,2.12,1.14l7.66,10.29c4.16,5.58,7.27,11.47,12.68,16.5-.87,4.2.43,7.61.91,10.97Z"/>
      <path class="cls-33" d="M519,181c-.7,2.17,10.09.12,11.64,1.38,1.73,2.93,4.17,4.39,6.92,6.19,9.17,5.99,18.38,12.59,26.94,20.63-3.94-.29-6.59-1.83-9.57-2.39-7.47-1.41-14.27-5.57-21.93-5.81l-6-1c-2.48.7-5.46-.47-8,0-1.22.7-2.86.94-4,0-4.27-2.78,4.35-3.3,7.35-3.16-5.58-4.52-11.93-8.32-19.05-11.42l-.3-2.42c5.43-1.18,10.52-1.74,16-2Z"/>
      <path class="cls-20" d="M539.17,347.01c6.1-.16,9.53,15.85,3.69,18.57-3.28.42-6.36,2.39-9.86,1.42-.95.66-2.41.68-3.14-.14-9.01-39.83-37-74.79-75.38-91.37-5.61-2.42-10.71-4.9-16.74-6.23-1.32-.29-2.04-1.26-1.74-2.25,40.9,11.46,73.8,41.26,89.82,80.9,4.96.23,9.27.08,13.35-.9Z"/>
      <path class="cls-65" d="M366.7,225.09c-5.35-.2-11.92.55-16.5,4.02-2.33,2.51-.73,7.17-1.2,9.89-1.4-7.45-.99-15.28-1-23,.55-3.54.76-7.16.61-10.86-2.02-6.24,16.93-9.5,18.63-6.96.98,1.47.37,23.76-.54,26.91Z"/>
      <path class="cls-3" d="M464,158.85c-5.57.7-11.23,1.08-17,1.15l-9.99.91c-2.49.98-3.08-.06-1.58-2.29l-18.3-2.32c-3.73,1.08-6.36.94-7.91-.43-.68-1.85,13.37-10.22,14.79-9.87-.18.57.29.95.61.9,6.07-.96,1.01-2.92,7.95-.56,6.27,2.13,12.8,2.82,19.41,3.97,7.73,1.35,14.79,3.88,23.23,6.48,2.31,2.11-12.84.27-11.2,2.05Z"/>
      <path class="cls-24" d="M568,356c-7.7,4.56-16.13,8.41-25.14,9.58-1.61-.82.82-1.77.9-2.85.4-5.49-.97-11.94-4.59-15.72,5.78-1.39,11.15-4.32,16.83-6.01l6.01-3.06c3.53,2.33,6.56,11.74,7.35,16.32l-1.36,1.74Z"/>
      <path class="cls-44" d="M617.26,383.86c1.6-.74,2.82-.83,3.65-.28,1.3,5.68,1.85,11.51,1.63,17.48-1.47.74-2,1.38-1.59,1.91-3.04,1.1-5.75,2.54-9.65,3.47l-6.36,1.52-49.94.04c-.87-.28-.86-.62,0-1,1.86-.72,4.19-.72,7,0l.86-2s4.71.67,14.14,2l.3-1.33c4.1-.57,8.66-.12,13.7,1.33l1.07-2,9.08-.06c1.23-2.31.19-9.79-.68-12.5l-8.15-.62-1.32-1.81-7.89.43c-.82,2.14-4.25,1.82-5.11-.43l-9.81.54c-.98,2.38-4.48,2.1-5.19-.54l-8.75.58c-1.43,2.19-7.36,2.41-8.25-.58-1.54.34-2.87.34-4,0-.87-.28-.86-.62,0-1l57.68-.34c6.27-.04,12.44-2.26,17.58-4.8Z"/>
      <path class="cls-33" d="M161.76,329.16c.99,3.3-1.38,6.52-.76,9.84l-1,6c0,.65-.3,1.91.26,2.94l16.74.06c5.38.53,10.84.74,16.39.63,1.29,1.46.54,2.59-1.33,3.07-.67.42-14.76,1.55-14.8-1.35l-1.61,2.03-10.92-.26c.27,3.06-.56,13.26-2.83,14.77-2.03,1.35-11.44,1.12-13.9.12l5.5-27.49c1.65-8.21,3.67-15.81,7.59-23.62,3.29,2.46-2.53,11.17.66,13.27Z"/>
      <path class="cls-44" d="M367.06,179c-.67,5.5.94,10.85.94,16v32c-.27,1.46-1.01.75-1.03.36-.05-1.03-.3-1.89-.28-2.27.34-6.46.72-19.15-.23-25.96-5.04-.11-8.94,1.3-13.13,2.34-7.85,1.95-2.08,11.39-5.34,14.53v-19c.41-4.59.69-9.2.83-13.83.05-5.64,10.75-7.25,15.34-6.98,2.26.13,2.88.17,2.88,2.81Z"/>
      <path class="cls-62" d="M483.03,190.01l4.89-.95c1.13.2,14.09,6.33,15.03,7.04,3.49,2.64,4.96,4.55.23,6.54-8.38,2.31-12.03,5.63-18.38,7.22-1.43,1.52-3,.99-4.71-1.58l-12.02-5.15c-2.28,1.61-3.93,1.56-4.97-.14.17-2.51,17.31-13.31,19.93-12.98Z"/>
      <path class="cls-92" d="M503,183l15.56,8.2c3.41,1.8,5.32,4.14,8.93,7.35,4.9.32-15.85-.01-12.49,1.44-.16.41-.83.75-2,1-3.22.39-6.68.77-9.82,1.64.18-.91,1.34-1.55,1.14-2.2-.27-.89-1.47-2.2-2.36-2.61l-16.42-7.67c-.68-.32-2.39,1.07-2.51-.15,6.02-3.95,13.06-5.5,19.97-7.01Z"/>
      <path class="cls-41" d="M634.14,394.73c-3.11,4.39-8.34,6.48-13.19,8.24-.31-.19-.88.18-1.46-.01-.89-.29-.15-.75.2-.85,2.23-.68.05-8.68.19-16.04.03-1.59-1.71-2.13-2.62-2.21,5.12-2.53,9.08-7.28,12.98-11.2l4.12-4.15,3.09,17.41c.7,3.97-1.39,6.11-3.31,8.82Z"/>
      <path class="cls-71" d="M596.82,330.99c-.8,4-11.86,13.14-14.82,16.01-3.14,2.13-4.83.13-2.36-2.74-1.32-4.39-2.94-8.58-4.85-12.57-2.34,2.22-4.27,2.66-5.79,1.31.33-2.08,3.03-2.2,4.37-3.77l13.67-16.07,2.3-.56c3.03,5.03,5.58,10.34,7.65,15.91l-.18,2.48Z"/>
      <path class="cls-32" d="M413.74,179.19c-8.77,15.64-4.89,39.04-5.74,56.81-.73-3.47-1.72-7.32-1.32-11.07-2.61-3.43-2.85-11.56.07-14.81l-2.01-1.95.25-12.57c-4.71-.55-9.49-.85-14.34-.9-.72-.07-1.08-1.57-1.29-2.54.46-5.09,2.1-9.66,3.94-14.23,2.53-6.46,14.53-5.4,19.36-2.56,1.96,1.15,2.11,1.58,1.08,3.81Z"/>
      <path class="cls-62" d="M206,348c5.36.49,10.81.73,16.35.73l-.35,1.27c-1.16,2.82-3.82,2.86-8,.14-3.41,2.16-7.74,2.78-12.98,1.87-2.6,2.89-3.84,6.94-3.71,12.17-.06,1.45-3.23,2.82-4.57,3.07-5.51,1.02-13.34.31-18.8-.44-.95-2.13-.67-4.87.86-8.23.1-3.44.92-6.18,2.46-8.23l15.84-.69c.21-1.8-17.59.66-16.1-1.65h29Z"/>
      <path class="cls-71" d="M484.8,209.86c-2.32,2.57-5.23,4.5-8.42,6.56s-5.04,5.76-8.27,7.43c-1.16-.65-1.97-1.62-2.42-2.94-8.06-2.96-12.09-4.44-12.09-4.44-1.81,2.5-3.63,3.29-5.45,2.36,3.39-6.27,8.57-12.46,14.94-15.83,1.13-.6,3.12-.77,4.5-2.24l13.03,5.56c1.79.76,2.52,3.04,4.17,3.54Z"/>
      <path class="cls-46" d="M367,166l-7.05,1.04c-5.5-.98-8.41.41-8.72,4.16.74,5.85-.34,9.12-3.23,9.81.29-5.36-.39-10.88.39-16.57.23-1.64,1.3-3.14-.38-3.99-.9-.46-2-.56-3.01-.44l-6,1c-3.04-.52-5.98.81-8.94.73-1.89-.05-4.11-.68-6.3-1.05,14.28-5.78,28.2-9.38,42.52-10.51.87,6.01.97,10.91.72,15.83Z"/>
      <path class="cls-86" d="M606.72,315c-2.52,5.54-4.95,11.95-9.9,15.99-4.7-3.02-4.12-12.98-9.78-17.83,1.79-3.77,2.8-8.8,5.37-12.3l1.86-3.21c1.26-7.25,4.41-2.44,6.83,1.48s5.66,11.56,5.63,15.87Z"/>
      <path class="cls-76" d="M460.12,234.6c-6.03,8.96-4.41,12.71-11.12,15.4l-6,1c-3.48-1.24-5.79-3.91-6.58-6.1-1.7-4.69,1.93-12.75,4.87-15.27,1.17-2.67,3.78-3.17,7.81-1.5,3.15.59,11.73,3.02,11.02,6.47Z"/>
      <path class="cls-77" d="M214,350.14c2.84.26,4.26.97,4.25,2.14-.22,4.18-2.29,15.04-7.25,14.56-.79,1.02-3.79.86-5,.16-4.23.31-8.57.64-13,1.01h-27c-.56-4.01,6.55-4.65,7.94-1.21,5.42.06,11.06.56,16.82,0,8.22-.81,2.51-8.09,7.54-15.22-1-.77-2.58.17-3.41-1.44,6.85-.33,12.93.11,19.11,0Z"/>
      <path class="cls-60" d="M582,347c-4.16,4.04-9.16,6.14-14,9-2.12-3.74-2.59-10.28-6.22-17.14-1.92,1.88-4.16,1.66-5.78,2.14,4.24-2.75,8.56-5.54,13-8,1.51-.84,3.21-2.22,5.21-3.09s3.82,3.04,4.26,4.74c2.11,8.01,4.66,9.93,2.03,11.37-.34.19-.76.83.04.97.62.11,1.1-.04,1.46,0Z"/>
      <path class="cls-38" d="M468.12,223.84c-3.15,3.81-5.62,7.23-8,10.76-2.38-1.75-16.43-7.04-18.83-4.97.82-4.43,3.9-8.16,6.86-10.81l4.75-4.44c5.88.53,11.31,3.14,16.1,6.21-.53,1.67-1.36,2.33-.9,3.25Z"/>
      <path class="cls-41" d="M612.12,302.6c-.88,4.71-3.51,8.24-5.4,12.4-4.14-4.4-6-15.83-11.11-19.88,0,3.94-2.34,4.58-3.2,5.74,1.83-3.48,1.04-8.88,3.59-11.86.96-2.24,1.59-4.55,1-7,.17-.59.14-1.38.13-2,2.45-6.65,11.08,13.62,13.82,18.16.82,1.36-.32,3.7,1.18,4.44Z"/>
      <path class="cls-52" d="M437.01,160.91c-4.73,2.58-9.8,4.66-14.01,8.09-.75.41-1.54.52-2.29.1-6.35-3.54-10.66-3.6-17.96-2.31l-1.79-1.67c2.63-2.41,3.94-7.81,8.25-9.25,3.77-1.26,5.83-1.95,10.24-1.37l16.72,2.2c1.14.15,2.24.73,2.24,1.8,0,.57-.72,1.03-1.63,1.41-1.01.51-.74,1.18.23.99Z"/>
      <path class="cls-31" d="M258,350.19c3.43.84-1.87,15.41-3.51,16.17-5.74,1.24-11.33.17-16.49,1.64-4.16,1.18-9.66,0-14,0-.29-.48-.5-.86-.46-.89,3.16-2.05,7.82-2.58,11.81-2.84.66.06,1-.3,1.34-.82,1.57-2.4,2.81-9.93,3.31-13.29l2.22-1.13c5.32.13,10.58.51,15.78,1.16Z"/>
      <path class="cls-49" d="M406.75,210.12c-.64,3.64-14.47,2.84-15.96,1.76l-.79-3.88v-9.06c0-1.04-.19-2.01-1-1.94,0-1.64.22-3.21.36-4.84,4.24,2.17,12.12-.62,17.44,1.99.73,5.61-.19,10.87-.05,15.97Z"/>
      <path class="cls-29" d="M423,169c-3.4,2.77-7.05,6.25-9.26,10.19-1.91-4.63-16.35-5.3-20.44-1.26,2.02-5.04,3.77-9.24,7.66-12.81,4.69-1.14,18.81-2.65,22.03,3.88Z"/>
      <path class="cls-92" d="M177.26,350.35c2.2-1.31-2.32,18.3-3.32,16.45-2.61-.03-6.03-.44-7.94,1.2-5.8,0-12.3,1.03-18,0,.05-.32-.06-.68,0-1,3.59-.29,7.57.57,11.41-.46,2.94-.79,4.79-16.92,2.01-15.94,5.25-1.24,10.45-.02,15.84-.25Z"/>
      <path class="cls-58" d="M367,166c-.22,4.27.57,8.77.06,13-.89-2.18-14.73.51-16.54,2.58-3.22,5.37.07,13.04-2.51,15.42v-16c2.35-1.51-.53-11.48,3.15-14.6,2.83-2.39,7.41-.61,10.44-1.7,2.44-.88,4.43-.8,5.4,1.31Z"/>
      <path class="cls-56" d="M239,350.12c.22-.87.56-.82,1,.04,4.48,1.01-1.07,9.36-1.61,15.38-3.83,1.68-15.17.86-14.39,2.46h-18c-.87-.28-.86-.62,0-1l5-.16,3.11-2.02c3.75.35,7.42.03,10.99-.96l2.9-13.71c3.26-.88,7.74-1.14,11-.04Z"/>
      <path class="cls-82" d="M656,194c.88,52.88.88,108.09,0,161,0,.65-.1,1.36,0,2-.37.11-1-.28-1-1.2v-162.6c0-.92.63-1.31,1-1.2.08.65,0,1.34,0,2Z"/>
      <path class="cls-100" d="M656,355v-161c.37-.11,1,.28,1,1.2v158.6c0,.92-.63,1.31-1,1.2Z"/>
      <path class="cls-28" d="M464,158.85c44.71.97,89.62-1.23,134,1.15h-151c5.44-.5,11.31-1.28,17-1.15Z"/>
      <path class="cls-24" d="M527,407c.13-3.13,9.32-2.87,10.03-.52,3.1-.26,6.09-.09,8.97.52,1.34-3.74,7.28-2.15,9,0v1h-57c-1.03-2.11-1.94-5.18-.15-7,1.6.29,2.4,1.63,2.41,4.01h16.2s.63,1.44.63,1.44c3.38-.2,6.68-.02,9.91.55Z"/>
      <path class="cls-50" d="M542,389v1c-1.4.8-3.06.9-4.96.31-1.38,2.16-7.5,2.11-9.04-.31l-9.84.56c-.17.79-.37,1.41-.63,1.44-1.79.21-17.35.33-18.2,0-.76-.29-1.13-1.21-1.44-2,.05-.3.18-.7.12-1h44Z"/>
      <path class="cls-11" d="M245,348c5.42.38,10.87.65,16.36.82l.64,1.18c-1.33-.17-2.68.25-4,.19-5.99-.26-12.01-.33-18-.03-.33.02-.67,0-1-.04-4.05-.58-8.21-.86-12.51-.82l.51-1.3h18Z"/>
      <path class="cls-77" d="M227,348c-.76,2.46,13.14-.52,12,2.12-3.66-.34-7.34.13-11,.04-.09,3-5.59,2.7-6-.16.08-.8-.91-1.01-1.95-1.01l-12.1.02c-1.04,0-2.02-.21-1.95-1.01h21Z"/>
      <path class="cls-31" d="M271,348c-.18.38.11,1.03-.19,1.38-1.26,1.44-9.68.21-8.81.62-5.69-2.69-15.4.72-17-2h26Z"/>
      <path class="cls-20" d="M435,267c-1.61,2.42-5.54-1.4-10.54-.12-.1-1.42-.58-2.31-1.46-2.88,4.04.71,8.16,1.49,12,3Z"/>
      <path class="cls-11" d="M206,367v1c-4.3,0-8.7,0-13,0-.08-.79.9-1.03,1.94-1.03l11.06.02Z"/>
      <path class="cls-26" d="M596,289c-.27-2.39.36-4.71,1-7,2.18,1.8.9,6.06-1,7Z"/>
      <path class="cls-22" d="M529.86,366.86c.97-.03,2.21-.12,3.14.14.08.89-.9,1-1.96,1h-7.04c-.12-.42.04-.99.59-1l5.28-.14Z"/>
      <path class="cls-6" d="M402,243c-2.23.89-4.33,1.51-7,1,1.6-2.05,4.68-.65,7-1Z"/>
      <path class="cls-14" d="M515,200c1.31-.15,2.71.24,4,0-1.27,1.91-4.01.76-6,1,.2-.97,1.21-.91,2-1Z"/>
      <path class="cls-88" d="M345,160c-1.2,1.51-4.11,1.32-6,1,1.27-1.89,4.02-.77,6-1Z"/>
      <path class="cls-85" d="M160,345c-.01-2.06-.53-4.39,1-6-.24,1.98.9,4.73-1,6Z"/>
      <path class="cls-5" d="M449,250c-2.12.85-4.01,1.71-6,1,1.27-1.9,4.02-.76,6-1Z"/>
      <path class="cls-27" d="M392,281c-1.27,1.9-4.02.76-6,1,1.61-1.54,3.94-1,6-1Z"/>
      <path class="cls-21" d="M387,244c-1.27,1.9-4.02.76-6,1,1.94-.29,3.59-1.63,6-1Z"/>
      <path class="cls-97" d="M533,201c-1.98-.24-4.73.9-6-1,2.37-.67,4.15.94,6,1Z"/>
      <path class="cls-2" d="M361,248c-1.78.27-3.27.69-5,0h5Z"/>
      <path class="cls-90" d="M411,282c-1.65-.17-4.06.78-5-1,1.66,0,4.05-.66,5,1Z"/>
      <path class="cls-12" d="M528,390c-.72,2.48-3.27,3.55-7.67,3.21.05,3.53-.12,7.1-.49,10.72,5.65-.66,8.04.36,7.17,3.07h-28.88c-.16-2.38-.27-4.18-.27-6-.01-3.67-.55-7.37.03-11h30.12Z"/>
      <path class="cls-11" d="M406.75,210.12c.13,4.97.47,9.85-.07,14.81-5.14-.67-10.44,0-15.95-.32-1.4-5.97-.73-11.36-.73-16.6.53.59,1.12,1.12,1.62,2.26,5.13.3,10.19.68,15.13-.14Z"/>
      <path class="cls-45" d="M542,390h4c-.6,2.46-3.02,3.59-7.26,3.41-.38,3.57-.3,7.11.24,10.62,5.03-.98,7.37,0,7.02,2.98h-19c.07-.82-.9-1-1.94-1.01l-8.1-.09c1.95-4.97,1.46-9.51.59-14.84,4.43.55,7.4-.48,10.45-1.06,4.51-.85,9.45,0,14,0Z"/>
      <path class="cls-30" d="M591,407l-8.76-.95c.96-4.91.55-9.55-1.22-13.94l.34-1.69c3.25.35,6.47.21,9.63-.42,3.23-.73,7.15.4,10.74.08,2.38,5.76,2.16,11.05,1.1,16.88l-11.84.03Z"/>
      <path class="cls-50" d="M563,390c-1.11,2.14-3.51,3.43-7.22,3.88l.04,9.36c3.59.37,5.66,1.62,6.19,3.76h-16c-2.08-2.17-5.53-.6-9.06-1.05-.53-5.1-.52-9.71.02-15.13,3.68,1.55,6.55-.81,9.04-.81h17Z"/>
      <path class="cls-24" d="M578,390c-.37,2.09-2.5,3.23-6.39,3.41,1.71,3.31,1.59,6.95-.16,10.2,3.11.5,4.96,1.63,5.55,3.39h-15c-2.14,0-4.65-2.14-8.42-.9.57-5.5.31-9.67.07-15.04,3.97.76,6.69-1.06,9.35-1.06h15Z"/>
      <path class="cls-43" d="M591,390c-2.37.54-4.55,1.82-8.5.95,2.8,5.44,2.93,9.84,1.05,14.29,2.54.78,4.9.37,7.45,1.75h-14c-2.87,0-5.64-1.51-9.29-1.44,4.27-5.05,4.18-9.76-.25-14.57,4.68.63,7.52-.32,10.55-.99,4.13-.91,8.81.67,13,0Z"/>
      <path class="cls-11" d="M222,350l6,.16c.16.41,1.92,1.06,1.75,1.83l-3,13.67c-5.43,1.78-10.61,1.02-15.75,1.18,4.47-2.5,3.25-10.28,5.64-15.1-.99-.6-1.91-.92-2.64-1.6l8-.14Z"/>
    </g>
  </g>
</svg>