<?xml version="1.0" encoding="UTF-8"?>
<svg id="Layer_1" xmlns="http://www.w3.org/2000/svg" version="1.1" viewBox="0 0 1024 1024">
  <!-- Generator: Adobe Illustrator 30.2.1, SVG Export Plug-In . SVG Version: 2.1.1 Build 1)  -->
  <defs>
    <style>
      .st0 {
        fill: #fdfefd;
      }

      .st1 {
        fill: #46934c;
      }

      .st2 {
        fill: #f85e1a;
      }

      .st3 {
        fill: #fe9e21;
      }
    </style>
  </defs>
  <g>
    <g>
      <polygon class="st1" points="433.08 279.55 416.51 279.31 383.72 219.4 413.14 165.24 432.88 165.26 433.08 279.55"/>
      <rect class="st1" x="463.98" y="209.8" width="114.85" height="25.24" transform="translate(298.73 743.72) rotate(-89.97)"/>
      <rect class="st1" x="459" y="165.09" width="24" height="114.91"/>
      <g>
        <path class="st0" d="M309.7,307.09c-.46-9.53-.66-18.29-.04-27.26l15.13-1,16.46-31.66,4.67-10.13c2.7-5.85,6.63-10.6,8.6-17.26l-30.17-55.03-15.05-.11-.11-23.38h218.63s47.99.15,47.99.15l.2,23.52-15.04.14.04,114.81,15.77-.17c.55,8.87.55,17.71,0,27.42l-267.1-.04ZM385.19,165.28l-32.92-.06,17.16,30.48,15.76-30.42ZM433.08,279.55l-.2-114.29-19.74-.02-29.41,54.16,32.79,59.9,16.56.24ZM483,165.09h-24v114.91h24v-114.91ZM508.82,164.99l-.06,114.85h25.24s.06-114.84.06-114.84h-25.24ZM388.09,279.48l-19.51-35.78-18.42,36.12,37.93-.33Z"/>
        <polygon class="st1" points="388.09 279.48 350.15 279.81 368.57 243.7 388.09 279.48"/>
        <polygon class="st1" points="385.19 165.28 369.42 195.7 352.27 165.22 385.19 165.28"/>
      </g>
    </g>
    <g>
      <path class="st1" d="M616.23,632.52c-2.89-30.7-1.15-60.02-1.29-90.52l-.29-61.33c-.05-10.13.32-51.52-1.28-59.12-3.46-16.53-13.68-29.62-28.17-37.81-9.38-5.3-19.89-10.47-31.34-10.5l-223.51-.48c-4.04,0-7.86-1.5-11.85-2.72-15.18-4.65-30.06-18.84-30.09-36.23l-.31-201.93c-.03-20.27,17.07-40.2,38.66-40.23l225.74-.31c19.56-.03,38.92,17.77,41.39,39.01l.19,216.21c3.84,21.58,18.75,38.18,39.73,43.53,3.42.87,7.57,2.74,11.54,2.74l300.88.28c17.98,4.05,34.41,16.84,34.39,36.12l-.16,203.44c-.01,17.89-17.79,34.86-35.88,34.87l-291.41.1c-18.3,0-35.21-16.58-36.96-35.13ZM309.7,307.09l267.1.04c.55-9.71.55-18.55,0-27.42l-15.77.17-.04-114.81,15.04-.14-.2-23.52-47.99-.14h-218.63s.11,23.37.11,23.37l15.05.11,30.17,55.03c-1.97,6.66-5.9,11.41-8.6,17.26l-4.67,10.13-16.46,31.66-15.13,1c-.62,8.96-.42,17.72.04,27.26ZM697.9,553.15c-11.02,3.11-19.71-2.14-23.58-12.62-4.58-12.38-3.67-26.43,1.45-38.86,3.95-9.6,14.17-13.13,23.59-8.64,12.67,6.04,7.81,21.84,15.07,18.84l.63-24.46c-2.94-1.26-5.7.58-6.76,3.43-10.55-6.22-23.19-7.22-34-2.46-14.69,6.47-23.97,22.7-21.86,38.1,2.25,16.39,12.09,31.19,29.74,33.18,4.31.48,9.19-.27,13.75,0s8.92-2.73,13.12-4.76c.86,2.63,4.16,3.54,6.86,2.26.29-6.52,1.11-14.06-.85-21.72-7.98,4.43-2.1,13.45-17.15,17.69ZM817.24,499.03c5.03-9.2,16.95-10.53,25.3-4.28,7.45,5.58,6.87,15.92,9.01,16.65.67.23,2.81.47,2.85-.43l.78-20.92c.05-1.34-.63-2.68-1.93-3.06s-3.27,3.67-3.84,3.98c-1.03.56-1.32-.9-2.26-1.41-18.64-10.14-42.91-2.39-51.02,17.53-6.08,14.95-3.54,31.73,7.57,43.16s33.88,14.17,46.06,3.65c.44,1.68-.18,3.37.91,4,.97.56,2.94.36,4.98.05.26-2.35,2.43-23.05-1.95-21.98-3.3.81-3.02,15.35-16.62,17.63-7.98,1.34-15.21-1.03-19.51-8.18-6.05-10.06-6.34-35.41-.34-46.38ZM770.34,557.78c6.61-.05,12.61-4.83,15.63-9.78,3.37-5.51,2.9-12.03-.3-17.66-2.53-4.44-7.54-7.29-14.28-9.58,5.83-2,10.1-4.76,12.13-9.17,2.47-5.39,2.27-11.19-1.27-15.81-4.74-6.19-12.38-9.1-20.21-9.1l-38.04.02c-1.56,0-3.01.89-3.17,1.77-.77,4.29,4.08,4.02,7.93,5.11l-.06,58.65c-2.6.89-5.19.08-7.37,1.22-.99.52-.9,4.72.68,4.71l48.35-.39ZM924.66,499.38l.63,53.2c-3.91.8-6.92-.62-9.96.78-1.11.51-.59,3.15.09,3.65s2.09.85,3.58.86l30.81.3c.75-1.43,1-4.15,0-4.73-2.36-1.08-4.61-.35-7.48-1.19l-.1-58.9c4.11-1.87,7.9.63,8.09-3.84.09-2.17-1.1-2.62-3.41-2.62h-25.21s-15.54,43.54-15.54,43.54l-15.36-43.43-27.74-.15c-1.83.74-2.5,2.06-2.32,3.63.34,3.04,6.43,1.84,8.07,3.43l-.12,58.5c-2.66.89-5.08-.18-7.44,1.03-.93.72-.59,3.2.01,4.05,7.51.1,15.04.33,22.88-.06,1.66-.08,1.56-3.9-.02-4.11l-7.78-1.05-.05-54.48,10.08,29.64,10.85,30.09c1.24,1.16,5.93,1.09,6.6-.75l20.83-57.37Z"/>
      <g>
        <path class="st0" d="M924.66,499.38l-20.83,57.37c-.67,1.85-5.36,1.91-6.6.75l-10.85-30.09-10.08-29.64.05,54.48,7.78,1.05c1.58.21,1.67,4.03.02,4.11-7.83.39-15.37.16-22.88.06-.6-.85-.94-3.33-.01-4.05,2.36-1.21,4.78-.14,7.44-1.03l.12-58.5c-1.64-1.59-7.73-.39-8.07-3.43-.18-1.58.49-2.89,2.32-3.63l27.74.15,15.36,43.43,15.54-43.53h25.21c2.31,0,3.51.44,3.41,2.61-.19,4.47-3.98,1.98-8.09,3.84l.1,58.9c2.87.83,5.12.11,7.48,1.19.99.58.74,3.31,0,4.73l-30.81-.3c-1.49-.01-2.92-.38-3.58-.86s-1.2-3.14-.09-3.65c3.04-1.41,6.05.02,9.96-.78l-.63-53.2Z"/>
        <path class="st0" d="M770.34,557.78l-48.35.39c-1.58.01-1.67-4.19-.68-4.71,2.18-1.15,4.78-.33,7.37-1.22l.06-58.65c-3.85-1.09-8.7-.82-7.93-5.11.16-.88,1.61-1.77,3.17-1.77l38.04-.02c7.83,0,15.47,2.91,20.21,9.1,3.54,4.62,3.74,10.41,1.27,15.81-2.02,4.41-6.29,7.16-12.13,9.17,6.74,2.3,11.75,5.14,14.28,9.58,3.21,5.63,3.67,12.14.3,17.66-3.02,4.95-9.02,9.72-15.63,9.78ZM765.27,514.94c3.08-4.57,2.75-9.43,2.01-14.3-1.67-10.87-13.42-8.32-21.07-8.08l.09,26.13c6.68-2.55,15.33,1.65,18.97-3.76ZM771.86,540.4c.32-6.99-2.33-14.63-9.28-16.53-5.46-1.5-11.49-.11-17.03-.46l-.07,29.88c4.96.4,10.2.38,15.36.15,7.16-.32,10.68-5.58,11.02-13.03Z"/>
        <path class="st0" d="M697.9,553.15c15.06-4.24,9.17-13.26,17.15-17.69,1.95,7.66,1.13,15.2.85,21.72-2.7,1.28-6,.37-6.86-2.26-4.19,2.03-8.38,5.04-13.12,4.76s-9.45.48-13.75,0c-17.64-1.99-27.49-16.78-29.74-33.18-2.11-15.41,7.17-31.64,21.86-38.1,10.81-4.76,23.45-3.76,34,2.46,1.06-2.85,3.82-4.69,6.76-3.43l-.63,24.46c-7.26,3-2.4-12.8-15.07-18.84-9.42-4.49-19.64-.96-23.59,8.64-5.11,12.43-6.03,26.48-1.45,38.86,3.88,10.48,12.57,15.73,23.58,12.62Z"/>
        <path class="st0" d="M817.24,499.03c-6,10.97-5.71,36.32.34,46.38,4.3,7.15,11.53,9.52,19.51,8.18,13.6-2.28,13.31-16.82,16.62-17.63,4.37-1.08,2.21,19.63,1.95,21.98-2.04.31-4.01.5-4.98-.05-1.09-.63-.47-2.31-.91-4-12.19,10.52-35.02,7.72-46.06-3.65s-13.65-28.21-7.57-43.16c8.11-19.93,32.38-27.67,51.02-17.53.94.51,1.23,1.97,2.26,1.41.57-.31,2.53-4.36,3.84-3.98s1.97,1.72,1.93,3.06l-.78,20.92c-.03.9-2.18.66-2.85.43-2.14-.73-1.57-11.07-9.01-16.65-8.34-6.25-20.26-4.92-25.3,4.28Z"/>
        <path class="st1" d="M771.86,540.4c-.34,7.45-3.86,12.72-11.02,13.03-5.16.23-10.4.25-15.36-.15l.07-29.88c5.54.35,11.57-1.04,17.03.46,6.95,1.91,9.6,9.54,9.28,16.53Z"/>
        <path class="st1" d="M765.27,514.94c-3.64,5.41-12.29,1.21-18.97,3.76l-.09-26.13c7.65-.23,19.4-2.78,21.07,8.08.75,4.86,1.07,9.72-2.01,14.3Z"/>
      </g>
    </g>
  </g>
  <g>
    <g>
      <path class="st0" d="M152.85,304.91c-1.3,6.56-6.59,11.79-13.45,13.58-6.1,1.59-12.8-.22-19.59.66-.34-5.83,14.31-6.58,17.35-9.03,4.09-3.29,3-9.57,1.94-14.06-.63-2.67.81-4.87-.97-7.37-1.66,1.01-1.34,2.71-2.65,4.63-5.65-3.99-10.79-8.85-15.62-14.03-2.68-2.87-5.24-2.37-8.25-.68-9.67,5.43-20.31,8-30.88,11.19-1.01.31-1.42,1.98-2.36,2.16-1.37.26-2.04-1.41-3.14-2.17-4.19-2.89-9.06-3.57-12.88-8.28,17.81-2.75,11.89,4.07,22.93-2.22l22.39-12.77c-5.14-.65-8.45-.65-10.84-4.43-2.15-3.39-3.76-6.66-2.64-11.13-1.42-2.58-4.6-3.74-5.69-6.7-3.13-13.66,9.02-27.04,22.9-25.94,7.08.56,13.14,4.54,15.55,9.52,6.02,12.46-1.49,18.43-.25,20.79.71,1.35,1.64-.88,2.59-.77,17.73,1.99,34.97,5.73,51.71,12.18,11.37,4.38,15.55,17.47,11.6,28.47-1.07,2.99-1.2,5.34,1.59,6.64s3.65-.34,6.5-1.63c3.59-1.62,9.63,1.53,12.44,4.21,4.55,4.34,8.39,8.45,14.62,11.12-4.56,6.7-24.9-2.96-30.39-1.7-8.44,10.88-15.42,4.08-26.2-.51-1.4,1.64-.19,2.77-.18,4.4-5.43.32-10.36-2.39-13.53-7.37,2.91-1.56,5.57-.07,8.56-.85.37-4.2-.75-7.66-1.43-11.91-1.28,3.07-1.64,6.43-1.64,10.21-6.25-.11-7.04-5.7-8.77-11.75-2.78,4.99-.26,10.12-1.33,15.52Z"/>
      <g>
        <path class="st3" d="M326.63,667.96c-6.77.01-12.79-2.41-17.86-4.79-13.94-6.55-21.35-20.14-21.41-35.82l-.72-178.73c-.04-10.77-2.45-20.06-6.82-29.53-9.85-21.29-35.32-34.86-59.02-34.92l-152.15-.35c-9.74-1.15-17.41-3.65-24.11-10.62-5.83-6.07-12.26-13.98-12.27-23.63l-.28-173.22c2.97-18.88,17.42-35.05,37.22-35.05l153.39.04c17.84,0,37.11,17.53,37.18,35.85l.66,172.12c.11,29.8,30.98,49.08,57.21,49.18l203.22.82c13.1.05,25.02,9.77,31.22,20.19,2.56,4.3,3.36,9.04,4.87,13.58l-.04,201.55c-3.85,17.97-18.27,32.91-37.42,32.94l-192.89.37ZM152.85,304.91c1.07-5.41-1.45-10.53,1.33-15.52,1.73,6.05,2.51,11.64,8.77,11.75,0-3.78.35-7.14,1.64-10.21.68,4.25,1.8,7.71,1.43,11.91-2.99.78-5.65-.71-8.56.85,3.17,4.98,8.1,7.69,13.53,7.37,0-1.63-1.22-2.76.18-4.4,10.78,4.58,17.76,11.39,26.2.51,5.49-1.26,25.83,8.4,30.39,1.7-6.23-2.67-10.07-6.78-14.62-11.12-2.81-2.68-8.85-5.83-12.44-4.21-2.86,1.29-3.78,2.9-6.5,1.63s-2.66-3.66-1.59-6.64c3.95-11-.23-24.09-11.6-28.47-16.74-6.45-33.97-10.19-51.71-12.18-.95-.11-1.88,2.13-2.59.77-1.24-2.36,6.27-8.33.25-20.79-2.41-4.98-8.47-8.96-15.55-9.52-13.89-1.1-26.03,12.28-22.9,25.94,1.1,2.96,4.28,4.12,5.69,6.7-1.12,4.47.49,7.74,2.64,11.13,2.39,3.78,5.7,3.77,10.84,4.43l-22.39,12.77c-11.03,6.29-5.12-.53-22.93,2.22,3.82,4.7,8.69,5.39,12.88,8.28,1.1.76,1.77,2.43,3.14,2.17.94-.18,1.35-1.86,2.36-2.16,10.57-3.2,21.2-5.77,30.88-11.19,3.01-1.69,5.57-2.19,8.25.68,4.83,5.18,9.97,10.04,15.62,14.03,1.31-1.91.99-3.61,2.65-4.63,1.79,2.5.34,4.7.97,7.37,1.07,4.49,2.15,10.77-1.94,14.06-3.04,2.45-17.69,3.19-17.35,9.03,6.78-.88,13.49.94,19.59-.66,6.86-1.79,12.15-7.02,13.45-13.58ZM447.39,497.58c6.37-2,12.5-2.22,18.88-3.35,9.98-1.76,19.46-4.45,29.73-5.35,3.73-.33,8.17,2.04,10.79-2.68-18.03-.79-28.17.54-46.05-.03l-13.81-.44c-1.98-.06-2.91-6.72-.98-7.33,6.34-2.02,9.72-5.82,9.42-12.48-.33-7.39-4.73-13.5-12.98-13.49-4.41,0-9.02,3.5-12.43,6.12l5.1,14.46c.61,1.75-.52,3.59-1.66,4-3.55,1.27-5.17-3.51-9.52-4.87-4.84-1.51-9.34-3.43-14.31-4.7-12.09-3.1-23.66-6.57-34.89-12.13s-6.13-15.92-13.42-23.59l-.39,17.26c-.32,14.09-14.14,39.45-10.32,45.75,6.37,10.5,16.55,20.1,28.19,24.15,18.83,6.56,13.78,17.33,15.41,38.17l2.5,31.98c.55,7.07,2.72,13.21,3,20.04l.85,20.45c3.6,1.17,7.6-.12,11.29.82,4.03,1.03,8.84,1.43,12.18-1.74.46-5.08-10.46-4.91-14.93-10.98l.35-49.44,3.76-38.65c5.93-2.76,10.2-7.58,15.22-12.19,6.73-6.18,17.43-6.89,19.04-19.76Z"/>
        <path class="st0" d="M447.39,497.58c-1.61,12.87-12.32,13.58-19.04,19.76-5.02,4.61-9.28,9.44-15.22,12.19l-3.76,38.65-.35,49.44c4.47,6.07,15.39,5.9,14.93,10.98-3.34,3.16-8.15,2.77-12.18,1.74-3.69-.94-7.7.35-11.29-.82l-.85-20.45c-.28-6.83-2.45-12.96-3-20.04l-2.5-31.98c-1.63-20.83,3.42-31.61-15.41-38.17-11.63-4.05-21.82-13.64-28.19-24.15-3.82-6.31,10-31.66,10.32-45.75l.39-17.26c7.29,7.67,2.29,18.08,13.42,23.59s22.81,9.03,34.89,12.13c4.97,1.27,9.47,3.2,14.31,4.7,4.35,1.36,5.97,6.14,9.52,4.87,1.14-.41,2.28-2.25,1.66-4l-5.1-14.46c3.41-2.63,8.02-6.12,12.43-6.12,8.26-.01,12.65,6.1,12.98,13.49.3,6.67-3.08,10.46-9.42,12.48-1.93.62-1,7.27.98,7.33l13.81.44c17.88.57,28.02-.77,46.05.03-2.62,4.72-7.06,2.35-10.79,2.68-10.26.9-19.74,3.59-29.73,5.35-6.38,1.13-12.51,1.35-18.88,3.35ZM421.14,481.89c-3.92-3.43-9.77-4.4-14.53-6.3-6.3-2.51-12.06-5.42-18.47-7.44-7.13-2.25-13.47-4.9-20.59-8-.08,9.41-1.59,17.64-4.07,26.15-2.82,9.69,15.67,11.95,23.96,18.8,6.1-1.57,13.16-3.49,20.66-2.3s14.61-14.39,13.05-20.91Z"/>
        <path class="st3" d="M421.14,481.89c1.56,6.53-5.8,22.07-13.05,20.91s-14.56.72-20.66,2.3c-8.28-6.85-26.78-9.11-23.96-18.8,2.48-8.5,3.99-16.74,4.07-26.15,7.12,3.1,13.46,5.75,20.59,8,6.4,2.02,12.17,4.93,18.47,7.44,4.77,1.9,10.61,2.87,14.53,6.3Z"/>
      </g>
    </g>
    <g>
      <path class="st2" d="M296.88,695.28c3.85.77,7.72,2.45,11.42,2.46l165.43.61c7.25.03,14.85,5.86,19.74,9.92,5.08,4.21,10.56,16.58,10.54,23.82l-.47,173.62c-.04,16.36-15.3,32.59-31.85,32.67l-152.62.73c-14.48.07-26.4-7.8-33.24-20.03-2.35-4.19-4.49-8.27-4.52-13.73l-.84-163.66c-.15-29.47-25.77-50.86-53.74-55.35l-158.4-.7c-19.07-.08-36.75-15.2-36.79-35.12l-.31-161.84c-.02-9.36,4.9-16.74,10.23-23.1,11.71-13.95,27.88-13.12,44.46-13.01l25.33.18,22.09-.09,18.19.09,74.23.52c4.04.03,8.03,2.28,11.81,3.35,4.32,1.22,7.88,4.91,10.87,7.93,6.79,6.86,10.78,14.87,11.24,24.79l.88,18.88c.17,3.65.18,7.8-.31,11.28-.68,4.82.37,8.99.32,13.51-.08,6.23-1.3,35.67.22,39.36.62,1.51-.78,3.76-.77,5.6l.28,42.43c.15,22.56-3.63,50.1,17.76,65.54,5.48,3.95,11.63,7.88,18.83,9.33ZM159.4,617.56c2.2,15.62,15.73,18.67,13.46,35.65,5.2.29,26.95-11.17,22.87-16.07-4.46-.72-8.55,1.3-13.66,2.02-5.01-8.69-10.52-17.48-12.55-27.38-1.37-6.69-1.62-13.35-4.72-19.72-7.45-15.33-3.52-20.65-11.22-28.68,7.19-1.07,15.8,6.14,24.99,4.35,1.99-.39,1.74-3.48,1.01-4.68-2.43-4.04-14.43-5.46-18.47-8.38-6.06-17.37,13.46-31.49-2.92-50.61,6.98-1.26,9.54-4.91,10.43-10.62.77-4.95.35-10.73-3.85-14.02-3.86-3.03-8.87-3.15-12.94-1.07-7.01,3.57-6.41,19.4-.36,24.89-22.98,11.09-14.66,30.86-19.54,40.69-4.53,9.12-2.7,20.53-3.01,33.06-.27,10.97-7.57,16.81-1.29,18.17.82.18,2.19-1.21,3.43-1.1,2.45.21-.1,2.43-.47,3.56-1.29,3.94-.15,8.84-2.7,12.37-3.13,4.34-6.13,8.13-7.31,13.71-3.24,15.29-12.64,13.43-10.28,18.16,3.68,7.38,18.73,15.65,20.62,10.61,1.06-2.82-9.42-8.5-5.72-16.22,7.22-15.06,18.15-21.38,21.87-41.57,9.13,9.27,10.76,11.61,12.34,22.89ZM432.78,841.65l13.4,63.25c.38,1.81-1.36,4.16,1.33,4.22,1.02.02,2.09-.13,3.06-1.04,1.07-1,0-1.93-.34-3.56l-20.96-98.07,2.82-5.61c-1.88-6.8-8.02-10.18-14.69-11.16s-25.61-4.5-29.03-9.92c-.21-2.82,1.08-5.62,2.36-7.85.77,3.17-2.07,6.22-.38,8.77,4.09,2.07,8.71,3.08,13.17,4.64l5.87-30.7c5.9,1.84,10.9,1.02,14.63-2.03,6.51-5.33,7.02-19.54,1.51-23.62-2.78-2.06-6.36-3.68-10.72-2.88-6.61,1.21-10.03,8.18-9.88,14.94-13.8-3.85-23.92,1.98-30.17,13.94-10.22,19.56-14.05,41.41-15.34,63.51l32.15,5.84c2.94-9.11,4.68-17.29,5.81-26.83-5.31-.8-17.75-3.38-19.55-9.15-2.37-7.62-.44-16.22,3.94-22.61l-3.16,14.13c-4.38,19.58,34.51,13.57,45.94,25.71l8.23,36.08ZM372.03,894.78c-.78-2.27,1.71-2.77,2.49.08l16.42,1.25c.21-6.52.19-12.35-.39-18.61-1.13-12.1-.5-24.17-.34-36.51.06-4.95,1.86-9.78.51-14.85l-30.49-6.23c.75,12.99,1.34,25.2.43,37.98l-.88,12.19c-.55,7.61-1.54,15.61,1.14,22.81-.35,2.33-3.87,6.37-1.34,8.84,3.29,3.22,9.51,2.56,13.92,1.96,2.92-.39,3.9-2.67,3.6-5.14-.21-1.73-1.33-2.92-5.06-3.79ZM408.71,906.63c-2.54-4.27-6.05-4.79-9.81-5.61-3.4.34-5.99-1.33-8.13-3.84-4.3-.18-8.07-.52-12.35.28-.31,3.02-1.61,8.09.72,10.26,6.31,3.72,13.95,2.48,20.82,1.46,3.05-.32,6.08,0,8.74-2.54Z"/>
      <g>
        <path class="st0" d="M159.4,617.56c-1.59-11.28-3.21-13.62-12.34-22.89-3.72,20.19-14.65,26.51-21.87,41.57-3.7,7.71,6.78,13.39,5.72,16.22-1.89,5.03-16.93-3.24-20.62-10.61-2.36-4.73,7.04-2.87,10.28-18.16,1.18-5.58,4.18-9.36,7.31-13.71,2.55-3.53,1.41-8.43,2.7-12.37.37-1.13,2.91-3.34.47-3.56-1.24-.11-2.62,1.28-3.43,1.1-6.28-1.35,1.02-7.19,1.29-18.17.3-12.52-1.52-23.94,3.01-33.06,4.88-9.83-3.44-29.6,19.54-40.69-6.06-5.48-6.66-21.31.36-24.89,4.07-2.07,9.07-1.96,12.94,1.07,4.19,3.29,4.62,9.06,3.85,14.02-.89,5.71-3.45,9.36-10.43,10.62,16.38,19.12-3.14,33.25,2.92,50.61,4.04,2.93,16.04,4.34,18.47,8.38.73,1.21.98,4.3-1.01,4.68-9.18,1.79-17.8-5.42-24.99-4.35,7.7,8.03,3.77,13.36,11.22,28.68,3.1,6.37,3.35,13.03,4.72,19.72,2.03,9.9,7.54,18.69,12.55,27.38,5.12-.72,9.2-2.75,13.66-2.02,4.08,4.9-17.67,16.36-22.87,16.07,2.27-16.98-11.26-20.03-13.46-35.65ZM134.26,592.08c5.05-3.75,4.11-9.26,4.62-13.85-.07-13.3.98-24.52,5.14-37.2,1.75-5.32,4.36-10.27,3.81-16.19-3.1,4.32-2.97,9.48-4.5,14.57-1.95,6.47-4.33,12.66-5.1,19.63l-1.09,9.91c-.9,8.16-.67,15.56-2.88,23.14Z"/>
        <path class="st2" d="M134.26,592.08c2.21-7.58,1.98-14.98,2.88-23.14l1.09-9.91c.77-6.97,3.15-13.15,5.1-19.63,1.53-5.08,1.4-10.24,4.5-14.57.54,5.92-2.06,10.87-3.81,16.19-4.16,12.68-5.21,23.91-5.14,37.2-.51,4.59.44,10.1-4.62,13.85Z"/>
      </g>
    </g>
    <g>
      <path class="st0" d="M432.78,841.65l-8.23-36.08c-11.42-12.15-50.31-6.13-45.94-25.71l3.16-14.13c-4.38,6.39-6.32,14.99-3.94,22.61,1.8,5.76,14.24,8.35,19.55,9.15-1.13,9.54-2.87,17.72-5.81,26.83l-32.15-5.84c1.29-22.11,5.11-43.96,15.34-63.51,6.25-11.96,16.37-17.79,30.17-13.94-.16-6.76,3.27-13.72,9.88-14.94,4.36-.8,7.94.82,10.72,2.88,5.51,4.08,5,18.29-1.51,23.62-3.73,3.05-8.72,3.88-14.63,2.03l-5.87,30.7c-4.45-1.56-9.08-2.58-13.17-4.64-1.69-2.55,1.15-5.59.38-8.77-1.28,2.23-2.57,5.02-2.36,7.85,3.42,5.42,22.42,8.95,29.03,9.92s12.82,4.37,14.69,11.16l-2.82,5.61,20.96,98.07c.35,1.63,1.41,2.56.34,3.56-.97.91-2.04,1.06-3.06,1.04-2.69-.05-.95-2.41-1.33-4.22l-13.4-63.25Z"/>
      <path class="st0" d="M372.03,894.78c3.73.87,4.85,2.06,5.06,3.79.3,2.47-.68,4.75-3.6,5.14-4.41.59-10.63,1.25-13.92-1.96-2.53-2.47,1-6.52,1.34-8.84-2.68-7.2-1.68-15.21-1.14-22.81l.88-12.19c.92-12.78.33-24.99-.43-37.98l30.49,6.23c1.35,5.07-.44,9.9-.51,14.85-.16,12.34-.79,24.41.34,36.51.58,6.27.6,12.09.39,18.61l-16.42-1.25c-.78-2.86-3.27-2.36-2.49-.08ZM369.92,892.61l1.36-44.55c-1.94-3.14-.61-6.21-1.87-9.72-2.96,1.96-.8,4.58-.64,6.87,1.16,15.95-1.16,31.4,1.15,47.39Z"/>
      <path class="st0" d="M408.71,906.63c-2.67,2.54-5.7,2.22-8.74,2.54-6.87,1.02-14.51,2.26-20.82-1.46-2.34-2.17-1.04-7.24-.72-10.26,4.28-.8,8.05-.46,12.35-.28,2.13,2.51,4.73,4.19,8.13,3.84,3.75.81,7.26,1.34,9.81,5.61Z"/>
      <path class="st2" d="M369.92,892.61c-2.31-15.99.01-31.44-1.15-47.39-.17-2.29-2.33-4.9.64-6.87,1.27,3.51-.07,6.57,1.87,9.72l-1.36,44.55Z"/>
    </g>
  </g>
</svg>