<?xml version="1.0" encoding="UTF-8"?>
<svg id="Camada_1" data-name="Camada 1" xmlns="http://www.w3.org/2000/svg" viewBox="0 0 936.75 480">
  <defs>
    <style>
      .cls-1 {
        fill: #fca614;
      }

      .cls-2 {
        fill: #151f53;
      }

      .cls-3 {
        fill: #45a0cb;
      }

      .cls-4 {
        fill: #b5c7bd;
      }

      .cls-5 {
        fill: #ea382c;
      }

      .cls-6 {
        fill: #89b740;
      }

      .cls-7 {
        fill: #48484b;
      }
    </style>
  </defs>
  <path class="cls-2" d="M321.43,188.13c-20.41,17.56-43.26,29.33-69.8,34.6,25.07,61.79,26.92,127.55,12.05,191.66-3.92,16.73-8.61,32.54-16.08,48.4-11.34-12-22.47-22.63-35-33.1,28.11-48.33,39.14-104.67,31.47-159.7-7.18-43.83-26.36-83.8-56.46-116.25-12.19-13.14-25.14-25.13-40.13-34.83l-9.22-5.97c-2.22-1.44-4.92-2.08-7.77-1.99-15.16.48-29.82.96-44.98.53l-27.08-.77,9.06-1.03,9.2-.64c14.9-1.04,28.91-3.5,44.66-6.55-26.92-16.7-56-27.84-87.66-29.47,37.44-4.22,74.16,11.6,107.1,28.48,56.14-2.6,107.53,4.42,154.61,35.75,2.58,1.72,4.11,2.02,6.7-.28,16.01-14.16,25.33-34.55,26.07-56.15.53-15.77-5.1-36.83-19.51-45.23-12.09-7.05-26.81-4.17-36.37,5.71-7.39,7.64-12.02,16.84-14.96,27l-2.17,7.51v-9.08c-.01-22.09,11.49-45.9,34.97-49.55,12.43-1.94,23.99,2.21,32.87,11.05,21.55,21.45,22.06,61.74,12.7,89.25-4.45,13.06-12.62,23.6-22.52,32.71l10.37,7.99c19.08-13.48,34.61-29.8,50.67-46.22,23.67-24.22,56.92-46.13,89.9-54.15,26.19-6.37,53.27-6.61,79.26.14l-25.93-2.6c-38.15-3.82-84.77,18.25-114.03,44.29-24.55,21.84-38.31,45.09-55.74,61.29l-10.81,10.05c9.63,8.28,17.75,16.66,25.39,27.06,12.81-19.36,26.2-37,42.73-52.52,26.55-24.95,57.69-43.86,91.91-56.43,14.43-5.3,48.14-13.85,63.51-12.11-43.69,9.66-84.83,27.97-120.74,55.2-28.77,21.81-51.57,50.5-65.39,83.89-10.07,24.34-14.52,49.76-16.6,75.81-.5,6.27-.88,11.85-.32,18.08l2.25,24.83c.36,3.95,1.13,7.66,1.9,11.68,5.62,29.17,15.22,57.08,30.33,83.18l-32.71,31.61c-16.44-36.64-25.89-74.5-27.75-113.92-2.32-42.75,4.05-81.61,18.5-121.59-7.02-14.45-16.92-26.38-28.48-37.62ZM305.75,172.74c-8.52-9.56-16.59-16.55-25.82-23.73-22.5-17.75-48.7-29.36-76.92-34.75-15.82-2.55-31.19-4.27-47.34-3.51,36.33,23.71,63.9,51.99,84.62,89.76,24.19-2.48,46.48-12.33,65.45-27.77Z"/>
  <path class="cls-4" d="M332.6,419.33c-25.3,4.24-45.97,14.51-67.04,28.86,8.41-23.85,13.47-47,16.05-71.35.82-7.71,2.56-27.23,2.34-34.06l-.83-26.13c-.95-29.83-7.36-58.29-18.21-86.33,2.66-1.75,4.94-2.59,7.68-3.55,17.9-6.29,34.09-15.69,49.19-27.47,7.12,8.99,13.33,18.19,17.86,28.63-6.09,15.24-10.23,30.37-13.36,46.59-4.67,24.07-6.85,47.96-5.7,72.34l1.57,18.7c1.53,18.23,5.04,35.69,10.46,53.76Z"/>
  <path class="cls-1" d="M296.82,129.58c-9.74-6.76-19.14-12.47-29.58-17.18-2.75-1.24-3.98-3.11-4.55-6.11-3.33-17.64-1.87-36.11,6.97-51.72,5.09-8.99,13.32-15.33,23.6-16.13,5.84-.45,11.13,2.46,15.38,6.33,6.18,5.64,9.68,13.35,11.24,21.66,4.19,22.29-2.79,44.67-18.35,60.97-1.16,1.22-2.55,3.68-4.71,2.18Z"/>
  <path class="cls-3" d="M408.18,132.49c-16.98,15.43-31.27,31.88-45.49,50.22l-12.33-11.93,27.42-31.48c7.37-8.46,13.96-16.7,21.75-24.78,12.27-12.74,25.46-23.99,40.9-32.62,22.39-12.51,46.06-19.53,71.85-19.12,10.15.16,19.77.86,29.55,3.58l16.36,4.55c-55.9,1.34-108,25.51-149.99,61.57Z"/>
  <path class="cls-7" d="M625.38,383.11l-14.03,32.86-11.72.2-1.2-10.47-3.1-23.9-6.01,34.37-11.66-.03,9.18-50.42,16.1.16,5.37,35.8,15.18-35.82,17.24.2-8.83,49.75-11.18.42c1.3-11.37,4.14-20.93,4.66-33.13Z"/>
  <path class="cls-7" d="M508.58,228.11c1.89,5.62-.05,11.67-4.3,15.18s-10.19,5.46-15.98,5.49l-24.5.14,9.11-50h24.37c3.84.02,8.29,1.32,11.13,3.63,3.5,2.84,3.54,7.37,2.48,11.53-.94,3.69-4.62,6.07-9.1,7.85,2.78,1.75,5.8,3.21,6.8,6.19ZM499.46,212.52c.3-2.39-1.73-4.74-3.74-4.74h-13.22s-1.9,11.41-1.9,11.41l12.17-.26c3.27-.07,6.24-2.83,6.69-6.4ZM496.69,229.38c-.61-1.09-3.37-2.12-4.57-2.12h-13.08s-2.31,13.03-2.31,13.03c5.65.14,10.49.3,15.52-.79,4.24-.92,6.83-5.86,4.45-10.12Z"/>
  <path class="cls-6" d="M101.48,100.04c-10.79,2.33-21.31,2.99-32.18,3.83s-21.87.4-32.86-1.45c-11.68-3.09-22.22-9.25-28.57-19.89,9.39-3.67,18.93-4.34,28.44-3.4,10.82.72,21.04,2.67,31.28,6.26,11.65,3.89,22.59,7.8,33.89,14.65Z"/>
  <path class="cls-7" d="M544.4,158.4c-8.65,3.91-18.62,3.91-27.01.68-6.14-2.36-9.48-8.43-7.69-14.37l11.33-.03c.36,3.99,2.39,6.51,5.99,7.26,3.97.84,8.48.4,12.28-1.29,2.7-1.2,4.59-5.92,1.99-7.89-6.85-5.2-17.63-3.73-24.08-9.72-3.77-3.5-3.72-9.26-1.79-13.75,5.17-12.03,21.61-14.19,31.93-11.14,7.25,2.14,11.89,8.74,10.43,16.35l-11.01.06-1.58-5.35c-4.26-3.91-11.13-4.52-15.96-1.05-1.52,1.09-2.5,3.43-2.4,5.2s2.15,3.49,4.17,4.04l14.95,4.08c3.11.85,6.87,3.63,7.91,6.72,2.67,7.97-1.5,16.57-9.46,20.17Z"/>
  <path class="cls-7" d="M757.06,331.46c-3.36.19-6.69.14-11.01-.23l3.8-23.05c.2-1.22-.86-3.32-1.71-4.03s-3.69-.9-4.84-.35c-7.07,3.43-6.82,19.63-8.7,27.67l-11.55.09,6.29-35.94,10.05-.25.37,4.73c3.86-4.44,8.21-6.18,14.08-5.49,3.18.37,5.53,2.04,7.27,5.35,5.06-6.59,15.44-6.84,19.62-2.58,1.73,1.76,3.3,5.57,2.8,8.5l-4.42,25.69-10.98-.19,3.95-22.39c.22-1.26-.48-4.26-1.5-4.81-1.51-.81-4.55-.85-5.96-.05-5.54,3.13-5.89,20.23-7.56,27.33Z"/>
  <path class="cls-7" d="M522.35,331.44l-11.03.07,3.75-22.75c.2-1.2-.72-3.96-1.82-4.53-3.71-1.94-8.28.74-9.25,4.89-1.75,7.47-2.82,14.28-4.13,22.25-3.51.21-6.74.2-11.11-.16l6.28-35.57,9.46-.2-.1,4.36c3.62-3.96,6.89-5.36,11.64-5.24,4.2.11,7.57,1.47,9.94,5.83,3.33-4.57,7.95-6.19,13.31-5.82,6.08.41,10.11,5.07,9.3,11.31-1.12,8.68-2.72,17.11-4.43,25.65h-10.53s3.76-22.62,3.76-22.62c.16-.97-.34-3.41-.99-4.14-.76-.85-3.03-1.29-4.68-1.01-2.54.44-5.25,3.71-5.71,6.36l-3.67,21.3Z"/>
  <path class="cls-7" d="M412.16,319.41c2.64,4.02,7.96,4.52,11.96,3.45s7.43-3.47,9.17-8.39l11.68-.09c-3.35,14.91-18.01,20.23-31.88,17.98-8.7-1.41-15.28-7.9-15.9-16.81-.76-10.99,3.18-22.5,11.86-29.25,8.21-6.38,18.58-8.23,28.04-4.75,6.91,2.54,11.31,8.7,10.64,16.54l-11.32.36c-.27-6.04-4.79-9.34-10.5-9.03-12.61.69-20.61,19.54-13.76,29.97Z"/>
  <path class="cls-7" d="M705.91,158.38c-8.21-6.11-4.99-22.15.28-29.72,5.7-8.21,18.43-9.96,25.52-3.54l2.85-16.35,10.97-.03-8.49,51.49-9.86-.29-.7-4.01c-5.35,5.64-13.85,7.46-20.56,2.46ZM725.65,149.23c3.61-4.81,5.19-11.05,3.45-16.59-.82-2.63-4.15-3.36-6.59-3.3-8.1.22-12.53,13.82-8.99,20.34,2.39,4.4,9.18,3.46,12.12-.45Z"/>
  <path class="cls-7" d="M792.04,159.9c-10.72-4.33-8.81-21.69-1.87-31.24,5.59-7.69,17.21-10.16,25.25-3.71l2.65-16.12,10.89-.1-8.68,51.08-9.81.29.04-4.48c-5.18,5.05-11.32,7.18-18.46,4.29ZM811.27,130.66c-2.13-1.75-6.99-1.59-9.17.18-7.2,5.85-8.01,18.26-2.88,20.84,1.54.78,4.69.95,6.13.36,7.68-3.15,10.54-17.59,5.92-21.38Z"/>
  <path class="cls-7" d="M810.55,249.44c-5.98-.73-10.07-4.41-10.79-10.45-.94-7.86,1.74-16.3,7.15-22.13,5.69-6.12,16.64-8.17,23.12-1.44l3.12-17.53,10.6.3-8.25,50.66-9.83.18-.9-4.1c-3.9,4.09-8.53,5.21-14.22,4.51ZM823.23,239.21c4.31-4.31,6.19-11.49,3.81-16.91-1.16-2.63-4.33-2.96-6.92-2.74-1.84.16-4.46,1.55-5.96,3.63-3.12,4.34-5.45,15.09.71,17.61,2.49,1.02,6.01.73,8.35-1.6Z"/>
  <path class="cls-7" d="M561.41,329.18l-2.74,14.64h-10.42s8.11-48.24,8.11-48.24l8.97-.12.44,3.93c2.9-3.44,6.46-4.67,10.98-4.87,6.81-.3,12.44,4,13.21,11.11.6,5.53-.35,11.77-2.8,16.66-4.82,9.64-16.19,13.61-25.77,6.89ZM574.67,322.31c5.65-5.11,6.04-17.13.56-18.99-2.37-.8-5.39-.2-7.18,1.61-4.38,4.41-8.01,16.14-.81,19.26,2.24.97,5.26.08,7.43-1.88Z"/>
  <path class="cls-7" d="M593.69,153.17c-7.8,9.94-25.34,10.99-32.32,1.9-3.24-4.23-3.7-9.12-2.68-14.3,1.74-8.87,7.71-17.93,17.36-18.67l6.23-.48,4.38.12c5.21.14,10.59,4.08,12.07,9.2,2.25,7.76.03,15.78-5.03,22.24ZM581.92,150.87c5.21-4.01,7.95-11.9,5.06-17.98-2.31-4.86-9.71-4.24-13.02-.5-3.7,4.18-5.31,10.37-3.62,15.84,1.45,4.68,7.45,5.83,11.58,2.64Z"/>
  <path class="cls-7" d="M750.18,160.72c-4.94-.97-7.34-4.54-7.07-9.24,1.09-19.53,25.81-10.42,27.03-17.75.3-1.81-1.03-3.97-3.07-4.47-4.23-1.03-7.11,1.05-9.6,4.57l-10.29.22c2.63-12.38,16.86-14.41,26.71-11.79,4.89,1.3,7.66,5.65,6.93,10.48l-1.04,6.9c-1.03,6.79-1.93,12.96-2.5,20.24l-9.55.31-.98-4.5c-4.4,4.76-10.24,6.28-16.57,5.03ZM755.81,152.4c3.82,1.42,7.39.25,9.84-2.09,1.88-1.8,2.99-5.3,2.99-8.08l-10.51,2.63c-1.18.29-2.96,1.85-3.51,2.88s.05,4.24,1.19,4.66Z"/>
  <path class="cls-7" d="M839.96,150.42c4.85,6.43,13.41-.93,13.62-1,2.75-.93,6.86-.37,10.08-.31-3.52,8.74-11.8,12.53-20.64,12.22-9.81-.35-16.27-7.3-15.4-17.29.87-9.87,6.78-19.95,17.22-22,3.01-.59,7.05,1.05,10.19-.58,10.95,2.49,11.75,12.78,10.36,22.51l-26.57.12c-.62,1.86-.08,4.71,1.14,6.33ZM855.43,137.26c.75-2.43-.83-6.17-3.18-7.52-4.73-2.7-10.54,2.08-12.21,7.41l15.39.11Z"/>
  <path class="cls-7" d="M698.25,142.5c-1.54.42-3.17.94-4.5,1.52h-6.75s-1.46-.9-1.46-.9c-3.65.11-7.49-.1-10.54.89l-3.82.31c0,2.29.42,4.87,1.84,6.46,1.11,1.25,3.73,2.26,5.69,2.29,7.05.11,2.9-5.66,17.9-3.85-3.08,8.8-12.4,12.57-21.63,12.02-7.89-.47-14.03-5.46-14.56-13.59-.9-13.66,8.05-26.94,23.58-26.4,6.89.24,12.72,3.69,14.1,11.08.5,2.66.4,7.66.14,10.16ZM688.2,137.14c-.6-3.75-.96-5.57-2.24-6.86s-4.38-1.57-6.19-.99c-3.65,1.17-5.8,4.09-6.94,7.86l15.37-.02Z"/>
  <path class="cls-7" d="M763.58,245.04c-5.39,4.8-14.37,6.75-20.72,2.07-3.22-2.38-3.17-7.36-1.9-11.18,3.76-11.32,23.55-8.02,25.3-11.57.42-.85.35-3.45-.33-4.18-1.43-1.55-5.21-2.36-7.38-1.52s-3.62,2.62-5.35,5.22l-8.91.13c.51-12.85,16.16-14.01,25.38-11.91,5.5,1.25,8.52,5.86,7.66,11.08l-2.54,15.43c-.57,3.44-.73,6.57-.95,10.26l-8.96.13-1.31-3.96ZM752.06,241.07c3.41,1.82,7.06.79,9.12-.77,2.66-2.02,3.59-5.2,3.19-8.76-5.51,1.55-11.19,1.18-13.33,5.59-.43.87.08,3.44,1.02,3.94Z"/>
  <path class="cls-7" d="M671.24,241.43c4.21,1.17,7.22-.38,10.3-3.24,3.02-.27,7.04-.31,10.31-.15-3.84,9.2-12.54,12.2-21.37,11.8-7.67-.35-14.01-4.98-14.67-13.12-.55-6.76,2.2-13.81,6.58-18.95,4.27-5.01,10.02-6.61,16.37-6.49s12.75,2.88,14.62,9.57c1.11,3.99.85,8.38-.23,12.4l-25.92.02c-1.73,2.95.59,7.21,4.02,8.17ZM683.47,226.59c-.36-3.19-.78-5.06-2.07-6.2-1.2-1.06-3.86-1.69-5.61-1.54-4.21.36-6.71,3.58-7.77,7.75h15.45Z"/>
  <path class="cls-7" d="M749.06,398.95c-2.37,15.59-16.87,20.89-30.64,17.42-6.04-1.52-9.73-6.74-9.85-12.86-.23-11.35,6.87-23.12,18.89-23.42,6.23-1.72,13.42-.9,18.08,3.85,3.86,3.94,4.34,9.7,3.53,15ZM732.23,407.79c5.43-4.07,6.81-11.01,5.19-17.11-2.65-4.13-7.94-4.83-11.84-1.6-4.32,3.57-6.72,10.02-5.08,15.63,1.41,4.84,7.64,6.16,11.74,3.08Z"/>
  <path class="cls-7" d="M608.63,332.68c-9.41-.29-16.55-5.82-16.16-15.58.27-6.65,3.19-13.31,8.2-17.81s11.13-4.97,17.3-4.65c9.47.5,15.33,7.39,14.73,16.51-.85,12.97-10.69,21.94-24.08,21.53ZM615.71,322.84c4.94-4.28,7.13-11.56,4.34-17.36-2.14-4.45-8.54-4.11-11.73-.85-5.26,5.39-7.21,17.27.16,19.7,2.23.74,5.06.39,7.23-1.49Z"/>
  <path class="cls-7" d="M562.36,244.74c-5.69,5.4-14.18,7.13-20.4,2.31-3.12-2.42-3.28-6.74-2.24-10.68.67-2.55,3.44-5.56,6.8-7.06,8.37-3.73,16.96-2,18.2-4.89.43-1.02.21-4.09-.65-4.78-3.14-2.52-9.18-1.26-11.56,4.31l-9.02.07c1.22-12.37,15.37-14.22,25.31-11.88,4.91,1.16,8.02,5.69,7.26,10.64l-2.53,16.41c-.5,3.23-.47,6.17-.55,9.84l-9.29-.13-1.33-4.15ZM550.46,240.23c2.63,3,6.96,1.74,9.18.27,2.95-1.96,4.06-5.1,3.77-8.85l-9.34,2.17c-2.38.55-5.54,4.21-3.61,6.41Z"/>
  <path class="cls-7" d="M858.72,241.95c4.07.65,6.83-1.19,9.57-3.87,2.5-.23,6.24-.28,9.71-.24-3.45,8.68-12.45,12.51-21.51,11.93-6.04-.39-11.96-3.4-13.66-9.48-2.43-8.66.84-17.87,7.14-23.91,4.4-4.22,9.65-5.15,15.54-5.08,6.85.08,12.59,3.76,14.21,10.7.86,3.7.84,7.7-.49,11.22l-26.09.07c-1.31,3.61,1.27,7.97,5.58,8.66ZM869.99,226.61c-.15-4.14-1.21-6.29-3.73-7.43-1.98-.89-4.9-.87-7.05.44-2.45,1.49-3.91,4.01-4.84,6.92l15.62.07Z"/>
  <path class="cls-7" d="M462.01,332.59c-8.87-.69-14.8-6.69-14.63-15.41.07-3.42,1.06-6.72,2.38-9.73,3.79-8.6,10.88-13.25,20.6-12.95,6.04.18,12.77,1.69,15.73,7.8,3.43,7.1,1.51,16-3.09,21.93-4.93,6.35-12.52,9.01-20.99,8.36ZM470.64,323.17c6.02-4.29,8.6-16.71,2.1-20.13-2.4-1.26-5.95-.98-8.4.84-5.78,4.3-8.21,15.93-2.88,19.53,2.76,1.86,6.3,1.81,9.18-.24Z"/>
  <path class="cls-7" d="M656.53,417.18c-7.04-.57-13.7-3.32-15.45-10.47-2.45-10.01,2.9-20.96,12.02-25.52,4.31-2.15,18.73-2.13,23.39,1.72,3.76,3.11,4.82,7.55,4.64,12.24-.51,13.58-10.6,23.17-24.6,22.03ZM664.75,407.09c4.43-4.15,6.35-10.72,4.15-16.28-1.12-2.85-4.48-3.73-7.05-3.85s-5.81,1.19-6.94,3.79c-2.35,5.38-5.93,15.54,1.52,18.17,2.78.98,5.87.47,8.31-1.83Z"/>
  <path class="cls-7" d="M800.86,324.44c7.9,3.09,6.51-5.64,20.62-3.09-3.93,8.76-12.18,11.59-20.8,11.22-7.31-.31-13.91-4.43-14.74-12.35-.76-7.22,2.1-14.72,7.02-19.72,4.59-4.66,9.99-6.1,16.32-5.96,6.64.14,12.35,3.38,13.87,10.38.76,3.51.35,7.62-.4,11.4l-26.14.13c-.84,3.59,1.1,6.76,4.25,7.99ZM812.91,309.7c.07-2.36-.36-4.88-1.62-6.22-1.17-1.24-4.03-1.81-5.75-1.49-4.18.79-6.54,3.88-7.65,7.76l15.02-.06Z"/>
  <path class="cls-7" d="M706.39,328.22c-5.13,4.3-12.69,6.04-18.36,2.38-3.61-2.33-4.13-6.32-3.45-10.04,2.35-12.79,22.61-8.94,25.18-13.25.58-.98.32-3.82-.74-4.4-4.22-2.33-9.37-.61-11.2,4.29l-9.74-.05c1.3-7.64,7.64-12.2,14.93-12.09,3.64.06,7.57-.91,11.08.26,5.51,1.84,7.45,6.72,6.67,12.25l-3.36,23.97-6.62.22c-1.53.05-2.91-1.31-4.38-3.54ZM696.5,324.42c3.56,1.56,6.85.49,9.17-1.6,1.98-1.78,2.78-4.78,2.73-7.92-5.45,1.4-10.92,1.16-13.06,5.3-.47.9.09,3.75,1.16,4.22Z"/>
  <path class="cls-7" d="M850.56,304.3c-4.78-2.51-9.45.95-10.69,5.47-1.9,6.9-2.73,13.45-3.92,21.01-3.41,1.05-6.77,1.08-11.29.33l6.02-35.58,9.75-.04-.4,4.55c3.99-4.36,7.89-5.74,13.61-5.48s11.22,4.39,10.22,10.8l-4.05,26.08-11.32.17,3.78-21.9c.23-1.35-.49-4.76-1.72-5.41Z"/>
  <path class="cls-7" d="M907.93,332.34c-7.47.92-14.73-2.83-16.53-10.16-2.3-9.36,1.81-19.25,9.7-24.69,2.08-1.43,5.37-1.81,7.81-2.08l4.26-.47,4.17.13c8.94.27,13.78,8.51,13.05,16.89-.84,9.56-6.33,17.97-16.12,19.75-2.09-.04-4.13.2-6.33.62ZM915.31,321.66c3.67-4.38,5.1-10.72,2.94-15.93-1.6-3.87-7.06-4.58-10.34-2.19-5.46,3.98-8.28,12.1-4.8,18.15,2.54,4.41,8.96,3.84,12.2-.03Z"/>
  <path class="cls-7" d="M613.47,239.8c-3.96,11.24-20.64,11.62-28.46,7.89-4.09-1.95-6.93-5.39-6.01-9.94l9.08-.7c2.16,5.34,8.4,6.22,12.93,4.16.95-.43,2.16-2.2,2.14-3.07-.02-1.02-1.68-2.64-2.74-2.87l-11.93-2.65c-5.22-1.16-7.84-6.37-6.24-11.28,3.34-10.26,16.67-11.21,24.88-9.38,5.21,1.16,8.49,5.2,8.17,10.56l-9.13.24c-2.13-4.56-6.74-5.3-11.01-3.31-.86.4-2.1,1.97-2.11,2.85s1.58,2.52,2.48,2.67l10.92,1.82c2.91.48,5.68,2.48,6.61,4.34,1.54,3.07,1.52,5.53.4,8.69Z"/>
  <path class="cls-7" d="M613.34,140.58c-1.19,4.65-.5,9.76,4.01,11.55s8.25-1.26,10.31-5.34l11.05-.07c-2.23,7.09-7.44,11.6-13.09,13.4-6.98,2.23-14.46,1.44-19.7-3.23-4.5-4.02-4.59-10.42-3.73-15.84,2-12.69,12.06-20.9,24.86-19.75,3.87.35,7.59,1.25,10.11,3.96,2.73,2.93,4.26,6.72,3.06,11.04h-9.69c-.62-2.06-1.29-4.35-2.24-5.33-1.05-1.08-4.16-1.53-5.78-1.23-5.22.96-7.86,5.75-9.16,10.86Z"/>
  <path class="cls-7" d="M886.89,324.29c0,2.11-.35,4.93-.93,7.46-3.92.52-7.74.8-11.33.35-5.09-.64-6.56-5.07-5.76-9.31l3.74-19.78-5.87-.1,1.34-7.17,5.9-.47,1.97-9.68c3.84-.49,7.23-.61,11.03-.52l-1.96,10.38,7.57.32-1.22,6.94-7.71.42c-1.19,6.62-2.38,12.68-3.22,19.47-.23,1.91,3.86,2.34,6.43,1.67Z"/>
  <path class="cls-7" d="M704.67,408.96l-1.59,7.64c-3.94.48-7.57.61-11.29-.01-4.13-.69-6.39-4.54-5.67-8.64l3.56-20.3-5.39-.35.86-6.79,5.93-.1,2.23-10.49,10.97.05-1.95,10.24,7.28.24-1.07,7.2-7.72.05-3.1,16.17c-.22,1.14.02,3.71.95,4.27,1.06.64,2.58.58,6.02.81Z"/>
  <path class="cls-7" d="M675.61,323.45c.43,1.15,3.93,1.06,5.65,1.19.23,1.83-.15,4.75-.95,6.94-3.93.79-7.92.92-11.82.28-3.63-.59-5.98-4.13-5.3-7.81l3.84-20.81-4.49-.44.66-7.09,5.46-.4,2.2-10.16,10.48-.16-1.69,10.47,7.73.24-1.18,7.1-7.93.33-2.09,9.52c-.41,1.86-1.93,7.09-.57,10.78Z"/>
  <polygon class="cls-7" points="648.32 248.92 637.13 248.85 646.04 197.85 657.03 197.9 648.32 248.92"/>
  <path class="cls-7" d="M523.71,248.79l-11.32-.03,5.91-36.36,9.99-.22-.77,7.21c4.13-5.07,7.12-9.34,14.18-7.7l-1.36,10.66c-6.74-1.71-11.91,1.69-13.31,7.79s-2.2,11.41-3.32,18.66Z"/>
  <path class="cls-7" d="M762.51,416.09l-11.64.14,6.19-35.86,9.71-.16-.02,5.96c3.47-4.48,7.24-7.88,13.45-6.63l-1.21,10.85c-5.37-1.21-10.71.25-12.36,5.12-2.21,6.54-3.01,12.74-4.12,20.58Z"/>
  <path class="cls-7" d="M724.99,248.82l-11.16.05,6.25-36.47,9.69-.28-.49,6.54c3.24-5.15,6.88-8.54,13.27-6.98l-1.1,10.57c-6.92-1.64-11.84,2.31-13.01,8.46l-3.45,18.1Z"/>
  <path class="cls-7" d="M633.74,331.53l4.53-24.56,1.71-11.38,9.36-.11-.3,6.35c3.64-4.79,7.33-8.39,13.14-6.79l-1,9.98c-2.96-.47-5.72-.52-8.49.81-1.99.96-3.89,3.9-4.36,6.6l-3.3,19.09-11.3.02Z"/>
  <polygon class="cls-7" points="652.81 159.82 641.51 160.18 643.32 149.98 648.11 123.01 659.21 122.97 652.81 159.82"/>
  <polygon class="cls-7" points="629.11 248.92 618.04 248.76 624.39 212.3 635.51 212.4 629.11 248.92"/>
  <polygon class="cls-7" points="706.16 248.86 695.03 248.88 701.63 212.22 712.54 212.39 706.16 248.86"/>
  <polygon class="cls-7" points="636.18 208.09 625.47 208.15 627.14 198 637.83 197.88 636.18 208.09"/>
  <polygon class="cls-7" points="713.09 208.27 702.55 207.97 704.36 197.99 715 197.95 713.09 208.27"/>
  <polygon class="cls-7" points="659.84 118.4 648.93 118.47 650.3 109.47 661.37 109.54 659.84 118.4"/>
  <path class="cls-2" d="M687,144.02h-12c3.05-.99,6.9-.79,10.54-.9l1.46.9Z"/>
  <path class="cls-2" d="M698.25,142.5c-.04.39-.3,1.43-.7,1.49-1,.13-2.95.04-3.8.04,1.33-.58,2.96-1.1,4.5-1.52Z"/>
  <path class="cls-5" d="M294.3,173.29c-15.27,9.57-31.59,15.9-49.05,19.43-16.5-29.41-38.71-54.35-65.83-74.92,29,3,55.84,12.5,79.91,27.08,12.68,8.16,24.19,16.57,34.97,28.41Z"/>
</svg>