<?xml version="1.0" encoding="UTF-8"?>
<svg id="Layer_1" data-name="Layer 1" xmlns="http://www.w3.org/2000/svg" viewBox="0 0 461 259">
  <defs>
    <style>
      .cls-1 {
        fill: #fff;
        fill-rule: evenodd;
      }
    </style>
  </defs>
  <path class="cls-1" d="M49.12,221.01q-.85-.3-4.31-.73c-12.56-3.46-21.06-9.47-27.61-19.84-2.31-4.67-3.58-8.8-4.98-13.29-.24-1.94-.42-3.82-.61-5.7-.06-46.48-.06-92.96-.06-139.44h143.26v11.77c-19.9,0-39.75,0-59.59.06-.06,41.75-.06,83.56-.06,125.36h-11.77c-.06-41.81-.06-83.62-.06-125.36H23.57v129.19c.55,2.18,1.09,4.43,1.64,6.67,5.1,11.17,12.32,17.29,25.12,19.42h77.67c12.68-1.7,21.48-9.53,25.73-21.42.49-2.79.91-6.01,1.09-8.5h12.01c.73,16.5,12.2,29.37,29.85,30.04v11.77c-12.38,0-21.42-4.92-29.98-12.5-2-2.55-4.01-5.04-5.95-7.52-6.98,10.62-15.29,15.84-27.12,19.3-1.46.18-2.91.36-4.37.61-26.76,0-53.46.06-80.16.12Z"/>
  <path class="cls-1" d="M190.81,221.01v-11.95c24.82,0,49.64,0,74.52.06,12.44-1.52,22.33-10.32,25.85-22.21,1.76-9.77.73-20.09.67-29.31-23.18-23.18-46.3-46.3-69.42-69.42v-.42c1.21-1.15,7.58-7.95,8.56-7.95,24.33,24.39,48.66,48.79,73,73.18v28.46c-.55,6.25-2.37,12.56-5.34,18.57-1.27,1.82-2.55,3.64-3.82,5.52-6.07,6.61-11.89,10.56-20.08,13.71-2.73.55-5.46,1.09-8.19,1.64-25.24,0-50.49.06-75.73.12Z"/>
  <path class="cls-1" d="M304.1,221.01v-11.77h59.65v-125.43h11.95v65.53h59.89c-.06-21.84-.12-43.69-.12-65.53-.79-10.07-3.7-16.75-10.92-23.18-4.98-3.22-7.89-4.67-12.92-6.19-2.06-.24-4.07-.42-6.07-.61h-71.66c-10.56.73-16.87,4-23.79,11.77-1.33,2.25-2.67,4.55-3.94,6.86-1.27,3.64-1.88,7.1-2.06,11.35h-12.02c-.55-15.11-9.65-25.73-23.72-29.37-2.06-.24-4.13-.42-6.13-.61h-71.6c-6.61.42-10.38,1.64-15.84,4.67-7.22,5.34-10.25,9.41-13.17,18.2-1.15,9.16-.79,18.63-.73,28.52,23.18,23.3,46.36,46.66,69.6,70.02-1.7,1.7-6.74,7.52-8.56,7.95-24.27-24.33-48.54-48.67-72.82-72.94-.06-9.53-.06-18.99-.06-28.46.91-8.8,2.85-15.05,7.58-22.27,6.49-7.89,12.2-12.07,21.78-15.65,3.64-.85,7.4-1.4,11.53-1.82h72.51c2,.12,4,.24,6.07.42,12.2,2.18,22.39,8.8,29.61,19.66,6.31-8.5,10.07-12.26,19.54-16.81,5.46-2.12,9.95-2.79,16.2-3.28h71.66c2.06.12,4.19.24,6.31.42,6.8,1.21,13.17,3.82,19.36,8.37,1.46,1.33,2.97,2.67,4.49,4.07,6.67,7.89,10.86,15.78,11.53,26.88,0,26.52.06,53.03.12,79.55h-71.66v59.65h-71.6Z"/>
</svg>